<svg id="Layer_1" enable-background="new 0 0 480.711 480.711" height="512" viewBox="0 0 480.711 480.711" width="512" xmlns="http://www.w3.org/2000/svg"><path d="m467.624 98.415-88.95-85.48c-3.05-2.94-7.12-4.58-11.36-4.58h-26.86c-7.93 0-14.7 5.67-16.13 13.47-.08.42-.16.85-.25 1.27-42.943 16.33-123.833 16.362-166.86 0-.09-.42-.17-.85-.25-1.27-1.43-7.8-8.2-13.47-16.13-13.47h-26.86c-4.24 0-8.31 1.64-11.36 4.58l-88.95 85.48c-6.14 5.91-6.74 15.53-1.38 22.15l28.83 35.59c5.52 6.82 15.43 8.08 22.49 2.87l34.54-25.52v195.85h285v-195.85l34.54 25.52c7.06 5.21 16.97 3.95 22.49-2.87l28.83-35.59c5.36-6.62 4.76-16.24-1.38-22.15z" fill="#80aaff"/><path d="m324.074 23.095c-7.79 38.97-42.19 68.33-83.43 68.33s-75.64-29.36-83.43-68.33c42.943 16.33 123.834 16.362 166.86 0z" fill="#719efa"/><path d="m130.144 158.218v171.138h-32v-171.138c0-20.634 32-21.487 32 0z" fill="#9cbcff"/><path d="m148.991 10.529c5.119 2.945 2.889 10.826-3.016 10.826-4.24 0-8.31 1.64-11.36 4.58l-88.95 85.48c-6.14 5.91-6.74 15.53-1.38 22.15l10.057 12.414c6.774 8.362-5.618 19.577-13.227 10.176l-28.83-35.59c-5.36-6.62-4.76-16.24 1.38-22.15l88.95-85.48c3.05-2.94 7.12-4.58 11.36-4.58h26.86c2.952 0 5.742.786 8.156 2.174z" fill="#9cbcff"/><circle cx="241.144" cy="188.855" fill="#cbe3fa" r="52.5"/><path d="m468.234 310.915-26.02-30.23c-4.56-5.29-11.19-8.325-18.17-8.325h-367.9c-6.98 0-13.62 3.035-18.18 8.325l-26.04 30.23c-8.93 10.37-1.56 26.44 12.12 26.44h11.1v119c0 8.84 7.16 16 16 16h377.9c8.83 0 15.99-7.16 15.99-16v-119h11.09c13.68 0 21.04-16.07 12.11-26.44z" fill="#c79a83"/><path d="m82.855 472.355h-31.71c-8.837 0-16-7.163-16-16v-119h47.697c8.452 0 15.303 6.852 15.303 15.303 0 0 .001 103.873.002 103.961.137 8.622-6.67 15.736-15.292 15.736z" fill="#e0b7a3"/><path d="m445.034 337.355v119c0 8.84-7.16 16-15.99 16h-150.9c8.84 0 16-7.16 16-16v-183.96l44.35 53.41c6.08 7.32 15.09 11.55 24.6 11.55z" fill="#a07765"/><path d="m313.034 274.645-50.98 61.38c-9.15 11.01-22.61 17.33-36.93 17.33h-181.98c-4.418 0-8-3.582-8-8v-8h189.98c9.519 0 18.545-4.236 24.627-11.559 45.54-54.827 44.292-53.501 44.392-53.401 0-.1-.863-.04 17.77-.04z" fill="#a07765"/><path d="m294.114 272.36c.092.1.613-.711-44.37 53.445-6.08 7.32-15.1 11.55-24.62 11.55h-201.08c-13.68 0-21.05-16.07-12.12-26.44l26.04-30.23c4.56-5.29 11.2-8.325 18.18-8.325z" fill="#e0b7a3"/><path d="m242.836 292.355h-156.692c-6.98 0-13.621 3.039-18.18 8.33-36.001 41.779-23.245 26.968-26.199 30.416-3.4 3.968-8.365 6.254-13.591 6.254h-4.129c-13.68 0-21.05-16.07-12.12-26.44l26.04-30.23c4.56-5.29 11.2-8.325 18.18-8.325h186.692c13.447.001 12.796 19.995-.001 19.995z" fill="#ebcbb7"/><path d="m468.234 310.915c8.93 10.37 1.57 26.44-12.11 26.44h-93.03c-9.51 0-18.52-4.23-24.6-11.55l-44.35-53.41c0-.1-5.307-.035 129.9-.035 6.98 0 13.61 3.035 18.17 8.325z" fill="#c79a83"/><path d="m373.171 327.764c3.167 3.814.454 9.591-4.503 9.591h-5.573c-9.51 0-18.521-4.23-24.6-11.55-46.076-55.481-44.35-53.344-44.35-53.445h129.9c6.98 0 13.612 3.033 18.17 8.325 3.266 3.793.569 9.68-4.437 9.68h-47.063c-19.32.008-29.885 22.535-17.544 37.399z" fill="#e0b7a3"/><g><path d="m189.144 373.355h-76c-4.418 0-8 3.582-8 8s3.582 8 8 8h76c4.418 0 8-3.582 8-8s-3.581-8-8-8z"/><path d="m448.278 275.47c-6.083-7.064-14.916-11.115-24.235-11.115h-32.898v-114.992l21.788 16.095c10.526 7.775 25.225 5.901 33.46-4.268l28.826-35.585c8.044-9.93 7.162-24.097-2.052-32.953l-88.943-85.488c-4.568-4.391-10.574-6.809-16.91-6.809h-26.861c-11.769 0-21.861 8.42-23.997 20.021-6.729 36.533-38.612 63.049-75.811 63.049-31.932 0-59.93-19.547-71.48-48.188 31.825 8.327 72.441 9.802 105.746 6.439 4.396-.444 7.6-4.367 7.156-8.763-.443-4.396-4.375-7.601-8.763-7.156-33.533 3.386-78.382 1.733-109.363-8.749-3.298-9.822-12.511-16.653-23.103-16.653h-26.861c-6.336 0-12.342 2.418-16.91 6.809l-88.944 85.487c-9.214 8.856-10.097 23.023-2.052 32.953l28.825 35.585c8.236 10.168 22.933 12.043 33.461 4.268l21.788-16.095v84.251c0 4.418 3.582 8 8 8s8-3.582 8-8v-100.106c0-6.542-7.47-10.339-12.753-6.435l-34.542 25.516c-3.624 2.677-8.685 2.032-11.521-1.47l-28.826-35.585c-2.77-3.419-2.466-8.297.707-11.346l88.943-85.487c1.573-1.512 3.641-2.344 5.822-2.344h26.861c4.049 0 7.523 2.91 8.262 6.919 8.123 44.104 46.651 76.151 91.546 76.151 44.918 0 83.419-32.026 91.546-76.151.738-4.009 4.213-6.919 8.262-6.919h26.861c2.182 0 4.25.833 5.823 2.344l88.943 85.487c3.172 3.049 3.476 7.927.707 11.346l-28.826 35.585c-2.836 3.501-7.896 4.146-11.521 1.469l-34.541-25.516c-5.262-3.887-12.753-.134-12.753 6.435v130.849h-19.936c-4.418 0-8 3.582-8 8s3.582 8 8 8h68.834c4.656 0 9.07 2.025 12.11 5.555l26.022 30.222c4.467 5.188.782 13.223-6.052 13.223h-93.026c-7.151 0-13.875-3.157-18.445-8.662l-44.09-53.102c-1.553-2.089-3.955-3.237-6.417-3.237h-237.999c-9.322 0-18.158 4.051-24.244 11.113l-26.037 30.223c-13.412 15.568-2.335 39.665 18.183 39.665h3.096v111c0 13.234 10.767 24 24 24h227c13.233 0 24-10.766 24-24v-161.81l30.197 36.369c7.62 9.177 18.83 14.441 30.755 14.441h73.936v111c0 4.411-3.585 8-7.991 8h-92.453c-4.418 0-8 3.582-8 8s3.582 8 8 8h92.453c13.229 0 23.991-10.766 23.991-24v-111h3.09c20.533 0 31.566-24.114 18.177-39.663zm-170.134 188.885h-227c-4.411 0-8-3.589-8-8v-111h181.982c11.93 0 23.144-5.263 30.768-14.439 2.824-3.398 2.357-8.442-1.041-11.266-3.4-2.824-8.443-2.357-11.266 1.041-4.574 5.506-11.303 8.664-18.461 8.664h-201.078c-6.843 0-10.529-8.036-6.061-13.222l26.037-30.221c3.043-3.531 7.461-5.557 12.122-5.557h229.999v176c-.001 4.412-3.589 8-8.001 8z"/><path d="m248.071 232.821c-4.366.681-7.352 4.772-6.671 9.138.683 4.378 4.785 7.351 9.138 6.671 29.373-4.583 51.107-29.994 51.107-59.774 0-33.36-27.14-60.5-60.5-60.5s-60.5 27.14-60.5 60.5c0 18.352 8.191 35.503 22.472 47.057 3.436 2.78 8.472 2.247 11.251-1.188s2.247-8.472-1.188-11.251c-10.509-8.501-16.536-21.119-16.536-34.618 0-24.537 19.962-44.5 44.5-44.5s44.5 19.963 44.5 44.5c0 22.077-15.802 40.567-37.573 43.965z"/></g></svg>