<svg id="Layer_1" enable-background="new 0 0 479.966 479.966" height="512" viewBox="0 0 479.966 479.966" width="512" xmlns="http://www.w3.org/2000/svg"><path d="m437.054 286.813c-.173 48.291-27.613 90.341-68.04 111.82v34.22c0 14.431-11.699 26.13-26.13 26.13h-17.74c-14.431 0-26.13-11.699-26.13-26.13v-19.87h-114v19.87c0 14.431-11.699 26.13-26.13 26.13h-17.74c-14.431 0-26.13-11.699-26.13-26.13v-23.87c-25.487-8.29-43.017-26.044-50.64-49.44-13.25 2.26-25.79-.06-36.87-5.94-26.09-13.81-26.11-75.55.69-89.06 23.16-11.66 41.54-30.25 53.06-54.35 7.44-15.58 19.01-28.33 33.05-37.21-3.94-9.7-8.82-17.78-13.66-24.32-6.34-8.58-.52-20.85 10.15-21.25 22.67-.87 45.03 9.71 57.88 31.57h141c69.62 0 127.38 56.11 127.38 127.83z" fill="#ffa4b8"/><g fill="#ffbfcb"><path d="m68.194 291.543c-14.508 7.31-21.155 28.759-20.061 49.085.578 10.735-10.885 18.093-20.402 13.094-26.486-13.91-26.259-75.708.464-89.18 23.16-11.66 41.54-30.25 53.06-54.35 21.969-46.004 47.621-23.383 19.39-61.53-6.34-8.58-.52-20.85 10.15-21.25.747-.029 9.493-.045 10.239-.049 25.017-.133 41.348 25.762 31.574 48.791-12.569 29.608-20.901 83.413-84.414 115.389z"/><path d="m353.649 166.785c10.473 3.852 7.713 19.244-3.446 19.199-.177-.001-154.437-.001-154.437-.001-16.841 0-18.535-27-.515-27h114.421c15.407 0 30.231 2.747 43.977 7.802z"/><path d="m133.014 442.048c.058 7.902-10.235 10.994-14.299 4.217-2.351-3.921-3.702-8.509-3.702-13.413v-10.488c0-5.528 5.634-9.245 10.727-7.096.755.319 1.524.631 2.305.936 2.981 1.164 4.968 4.007 4.968 7.207.001.001.001 18.572.001 18.637z"/><path d="m317.014 442.048c.058 7.902-10.235 10.994-14.299 4.217-2.351-3.921-3.702-8.509-3.702-13.413v-23.157c0-4.26 3.453-7.713 7.713-7.713h2.574c4.26 0 7.713 3.453 7.713 7.713.001.001.001 32.288.001 32.353z"/></g><circle cx="291.014" cy="119.983" fill="#ffe773" r="62"/><path d="m294.863 83.527c-20.763 9.935-34.854 31.47-35.881 54.457-.651 14.565-20.6 17.887-25.843 4.282-15.433-40.05 13.775-82.783 55.654-84.245 14.612-.51 19.259 19.195 6.07 25.506z" fill="#fff0a6"/><g><path d="m100.014 247.983v13c0 4.418 3.582 8 8 8s8-3.582 8-8v-13c0-4.418-3.582-8-8-8s-8 3.582-8 8z"/><path d="m103.419 337.987c-2.896-3.337-7.949-3.694-11.285-.798-18.626 16.166-41.386 19.658-60.886 9.34-9.286-4.914-15.407-20.158-15.231-37.933.173-17.406 6.513-32.238 15.776-36.906 24.473-12.335 44.28-32.081 56.674-58.046 6.646-13.92 17.058-25.644 30.11-33.906 3.27-2.07 4.589-6.184 3.133-9.77-3.746-9.226-8.669-17.993-14.632-26.058-2.548-3.446-.195-8.346 4.019-8.507 21.07-.8 40.034 9.526 50.676 27.633 1.437 2.445 4.061 3.946 6.897 3.946 78.599 0 74.301.019 74.909-.039 5.646-.537 8.978-6.669 6.301-11.706-1.124-2.118-12.867-13.975-12.867-35.255 0-29.776 24.224-54 54-54s54 24.224 54 54c0 33.129-29.83 58.822-63.013 53.252-4.359-.73-8.482 2.208-9.214 6.565-.731 4.357 2.208 8.483 6.565 9.214 42.912 7.203 81.662-26.017 81.662-69.032 0-38.598-31.402-70-70-70-51.692 0-85.707 54.437-62.745 101h-55.186c-14.022-20.815-37.092-32.541-62.595-31.568-17.065.65-26.437 20.263-16.274 34.008 3.888 5.258 7.264 10.858 10.079 16.71-12.929 9.523-23.316 22.066-30.264 36.617-10.673 22.358-27.725 39.709-49.437 50.651-32.624 16.442-32.677 86.416-.828 103.27 26.548 14.048 55.99 8.448 78.856-11.398 3.339-2.895 3.696-7.947.8-11.284z"/><path d="m185.014 385.983c-4.418 0-8 3.582-8 8v38.871c0 9.996-8.133 18.129-18.129 18.129h-17.742c-9.996 0-18.129-8.133-18.129-18.129v-38.871c0-4.418-3.582-8-8-8s-8 3.582-8 8v3.173c-5.28-2.576-10.11-5.683-14.427-9.301-3.388-2.839-8.433-2.394-11.27.992-2.838 3.386-2.395 8.432.992 11.27 7.194 6.03 15.493 10.873 24.705 14.477v18.26c0 18.819 15.31 34.129 34.129 34.129h17.742c18.819 0 34.129-15.31 34.129-34.129v-38.871c0-4.418-3.582-8-8-8z"/><path d="m467.935 224.076c-2.711-3.49-7.737-4.122-11.226-1.412-3.49 2.71-4.122 7.736-1.412 11.225 14.079 18.131 11.391 39.942-10.602 42.855-2.888-40.472-23.856-77.801-57.403-101.314-3.618-2.535-8.606-1.659-11.143 1.959-2.536 3.618-1.659 8.607 1.959 11.143 67.443 47.271 68.662 148.107-1.096 195.902v-9.451c0-4.418-3.582-8-8-8s-8 3.582-8 8v21.053c-.704 1.817-.747 3.879 0 5.791v31.026c0 9.997-8.133 18.129-18.129 18.129h-17.742c-9.996 0-18.129-8.133-18.129-18.129v-38.871c0-4.418-3.582-8-8-8s-8 3.582-8 8v11h-68.479c-4.418 0-8 3.582-8 8s3.582 8 8 8h68.479v11.871c0 18.819 15.31 34.129 34.129 34.129h17.742c18.819 0 34.129-15.31 34.129-34.129v-29.518c40.194-23.194 65.671-64.702 67.87-110.506 34.833-3.157 46.051-39.136 23.053-68.753z"/><path d="m188.014 127.983h10c4.418 0 8-3.582 8-8s-3.582-8-8-8h-10c-4.418 0-8 3.582-8 8s3.581 8 8 8z"/><path d="m219.596 59.879c3.124 3.124 8.189 3.124 11.313 0 3.125-3.124 3.124-8.189 0-11.314l-7.071-7.071c-3.124-3.124-8.189-3.124-11.313 0-3.125 3.124-3.124 8.189 0 11.314z"/><path d="m384.014 127.983h10c4.418 0 8-3.582 8-8s-3.582-8-8-8h-10c-4.418 0-8 3.582-8 8s3.581 8 8 8z"/><path d="m356.774 62.222c2.047 0 4.095-.781 5.657-2.343l7.071-7.071c3.124-3.124 3.125-8.189 0-11.314-3.124-3.124-8.189-3.124-11.313 0l-7.071 7.071c-5.055 5.055-1.406 13.657 5.656 13.657z"/><path d="m291.014 38.983c4.418 0 8-3.582 8-8v-10c0-4.418-3.582-8-8-8s-8 3.582-8 8v10c0 4.418 3.581 8 8 8z"/><path d="m364.014 231.983c4.418 0 8-3.582 8-8s-3.582-8-8-8h-146c-4.418 0-8 3.582-8 8s3.582 8 8 8z"/></g></svg>