<svg id="Layer_1" enable-background="new 0 0 480 480" height="512" viewBox="0 0 480 480" width="512" xmlns="http://www.w3.org/2000/svg"><path d="m389.17 263.32c4.02-40.56-50.67-52.7-93.65 42.42-14.27-.1-30.39-2.06-49.96-2.72-10.588-.347-22.73-.01-23.93-.01 18.94-14.44 28.2-30.26 24.71-43.56-.95-3.63-2.44-6.77-4.37-9.43-.01-.01-.02-.03-.04-.05-23.521-32.094-113.602 4.525-143.9 63.08-17.44 33.71-10.92 66.81-5.7 83.95h-7.339c-8.84 0-16.001 7.16-16.001 16v43c0 8.84 7.16 16 16 16h180c8.84 0 16-7.16 16-16v-43c0-8.84-7.16-16-16-16h-11.87c-.11-6.28 1.14-13.66 6.11-20.19 26.38-34.6 108.51 12.38 149.88-82.67 6.65-15.29-5.37-27.99-19.94-30.82z" fill="#ffebd2"/><path d="m397.394 266.102c7.727 3.855 6.556 15.375-1.793 17.579-5.48 1.447-10.412 4.545-14.181 9.279-32.819 41.241-56.978 32.75-116.96 30.496-7.856-.295-11.901-9.389-6.978-15.518 2.294-2.856 5.298-4.026 8.285-3.822 41.524 2.845 65.884 6.252 95.653-31.156 8.91-11.191 24.125-12.77 35.974-6.858z" fill="#fff3e4"/><path d="m234.52 243.368c6.687 4.148 3.781 14.442-4.082 14.731-36.695 1.349-90.335 32.292-112.408 74.951-10.18 19.684-12.195 39.153-11.068 55.364.323 4.64-3.323 8.586-7.974 8.586h-6.658c-5.22-17.14-11.74-50.24 5.7-83.95 27.421-52.995 105.19-89.096 136.49-69.682z" fill="#fff3e4"/><path d="m295.52 305.74c42.98-95.12 97.67-82.98 93.65-42.42-9.71-1.89-20.56.61-27.75 9.64-21.94 27.57-41.12 32.97-65.9 32.78z" fill="#ffd9ad"/><path d="m356.127 256.39c-10.503 8.924-21.574 22.684-32.223 42.384-1.395 2.58-3.856 4.409-6.72 5.039-6.848 1.506-13.985 1.984-21.664 1.927 15.835-35.047 33.261-55.531 48.755-65.399 10.49-6.681 21.329 7.997 11.852 16.049z" fill="#ffebd2"/><path d="m280.99 413v43c0 8.84-7.16 16-16 16h-180c-8.84 0-16-7.16-16-16v-43c0-8.84 7.161-16 16.001-16h179.999c8.84 0 16 7.16 16 16z" fill="#befa91"/><path d="m266.067 397.036c12.667.842 11.701 19.964-.994 19.964h-150.083c-8.837 0-16 7.163-16 16v25c0 7.732-6.268 14-14 14-8.837 0-16-7.163-16-16v-43c0-8.837 7.165-16 16.001-16 128.88 0 180.241-.02 181.076.036z" fill="#daffbf"/><path d="m323.74 115.2h-.97v-87.71c0-10.76-8.73-19.49-19.49-19.49h-92.58c-10.76 0-19.49 8.73-19.49 19.49v87.71h-.97c-14.17 0-21.35 17.05-11.45 27.18l64.26 65.75c7.65 7.83 20.23 7.83 27.88 0l64.26-65.75c9.9-10.13 2.72-27.18-11.45-27.18z" fill="#befa91"/><path d="m303.297 34h-71.597c-10.764 0-19.49 8.726-19.49 19.49v74.457c0 14.858-21.33 26.8-33.42 14.433-9.894-10.122-2.735-27.18 11.44-27.18h.98v-87.71c0-10.764 8.726-19.49 19.49-19.49h92.58c17.852 0 16.924 26 .017 26z" fill="#daffbf"/><g><path d="m397.323 257.384c-1.325-33.296-39.113-49.595-77.632-5.957-2.924 3.313-2.608 8.368.704 11.292s8.367 2.609 11.292-.703c17.673-20.021 33.015-23.172 40.78-19.787 4.654 2.028 7.639 6.548 8.58 12.619-9.466.485-18.966 4.431-25.887 13.126-24.831 31.201-43.631 31.34-80.447 28.748-4.421-.308-8.231 3.011-8.542 7.418-.31 4.407 3.012 8.232 7.419 8.542 39.003 2.745 64.417 2.536 94.09-34.745 7.159-8.996 19.608-8.686 27.686-3.829 3.272 1.968 10.449 7.548 6.407 16.836-39.832 91.515-118.404 41.012-148.903 81.019-3.773 4.949-6.174 10.658-7.192 17.036h-147.283c-4.928-19.28-6.904-45.896 6.745-72.275 30.368-58.695 123.763-92.195 133.458-55.246 3.459 13.185-13.825 35.797-53.55 53.504-4.036 1.799-5.849 6.528-4.05 10.564 1.799 4.035 6.528 5.848 10.564 4.05 44.297-19.745 68.835-48.077 62.513-72.179-15.093-57.517-127.63-16.687-163.146 51.956-17.516 33.854-13.064 67.607-6.251 89.962 1.026 3.366 4.179 5.687 7.679 5.666h172.633c4.411 0 8 3.589 8 8v43c0 4.411-3.589 8-8 8h-180c-4.411 0-8-3.589-8-8v-21.5c0-4.418-3.582-8-8-8s-8 3.582-8 8v21.499c0 13.234 10.767 24 24 24h180c13.233 0 24-10.766 24-24v-43c0-13.234-10.767-24-24-24h-2.95c11.712-43.151 108.515 13.766 154.403-91.669 7.391-16.98-1.844-33.482-19.12-39.947z"/><path d="m237.329 213.724c10.797 11.047 28.526 11.045 39.322 0l64.256-65.751c14.846-15.193 4.108-40.774-17.164-40.774h-.973c-4.418 0-8 3.582-8 8s3.582 8 8 8h.973c7.082 0 10.672 8.525 5.721 13.591l-64.256 65.751c-4.511 4.617-11.925 4.617-16.436 0l-64.257-65.751c-4.95-5.065-1.363-13.592 5.721-13.592h.973c4.418 0 8-3.582 8-8v-87.708c0-6.336 5.154-11.49 11.49-11.49h92.58c6.336 0 11.49 5.155 11.49 11.49v49.38c0 4.418 3.582 8 8 8s8-3.582 8-8v-49.38c.001-15.158-12.331-27.49-27.489-27.49h-92.58c-15.158 0-27.49 12.332-27.49 27.49v80.717c-16.511 4.909-23.182 26.417-10.138 39.765z"/><path d="m291.647 58.343c-3.125-3.125-8.189-3.125-11.314 0l-58 58c-5.055 5.054-1.406 13.657 5.657 13.657 2.047 0 4.095-.781 5.657-2.343l58-58c3.124-3.124 3.124-8.19 0-11.314z"/><circle cx="281.99" cy="117" r="12"/><circle cx="232.99" cy="68" r="12"/></g></svg>