<svg id="Layer_1" enable-background="new 0 0 480.007 480.007" height="512" viewBox="0 0 480.007 480.007" width="512" xmlns="http://www.w3.org/2000/svg"><path d="m455.155 111.92c-1.51-9.64-8.74-17.3-18.16-19.63-35.97-8.92-64.61-34.71-76.34-68.03-3.42-9.7-12.45-16.26-22.68-16.26h-195.92c-10.23 0-19.26 6.56-22.68 16.26-11.73 33.31-40.35 59.11-76.34 68.03-9.42 2.33-16.65 9.99-18.16 19.63-24.13 153.98 65.87 283.41 203.86 357.25 7.05 3.77 15.51 3.77 22.56 0 137.93-73.82 227.97-203.33 203.86-357.25z" fill="#80aaff"/><path d="m435.196 101.917c-25.952-3.789-51.908-4.496-77.297-2.278-2.384.208-4.729-.645-6.421-2.336-9.799-9.793-18.265-20.897-25.122-33.064-2.85-5.07-8.171-8.239-13.981-8.239h-144.72c-5.81 0-11.131 3.168-13.981 8.239-16.62 29.5-42.71 52.78-74.38 66.34-5.58 2.38-9.399 7.651-9.779 13.701-3.277 51.669 8.755 99.105 31.855 141.09 1.109 2.016 1.309 4.399.55 6.571-4.916 14.065-8.591 27.992-11.286 41.504-1.392 6.98-10.47 8.835-14.477 2.953-43.765-64.231-64.407-140.72-51.282-224.478 1.51-9.64 8.74-17.3 18.16-19.63 35.99-8.92 64.61-34.72 76.34-68.03 3.42-9.7 12.45-16.26 22.68-16.26h195.92c10.23 0 19.26 6.56 22.68 16.26 11.189 31.783 38.169 58.213 76.551 68.083 5.958 1.533 4.078 10.462-2.01 9.574z" fill="#9cbcff"/><path d="m400.738 130.576c-31.671-13.561-57.762-36.835-74.382-66.337-2.852-5.064-8.169-8.239-13.981-8.239h-144.72c-5.812 0-11.129 3.175-13.981 8.239-16.62 29.503-42.708 52.779-74.38 66.34-5.573 2.386-9.395 7.65-9.779 13.701-7.385 116.414 62.969 211.293 162.322 270.9 5.027 3.016 11.33 3.016 16.357-.001 99.339-59.61 169.675-154.573 162.32-270.898-.383-6.051-4.202-11.318-9.776-13.705z" fill="#9cbcff"/><path d="m343.537 88.74c4.11 4.785 1.405 12.229-4.836 13.149-102.718 15.145-189.185 77.924-229.248 170.724-2.712 6.282-11.552 6.436-14.54.281-18.851-38.83-28.355-81.999-25.398-128.615.38-6.05 4.199-11.321 9.779-13.701 31.67-13.56 57.761-36.84 74.38-66.34 2.85-5.07 8.171-8.239 13.981-8.239h144.72c5.81 0 11.131 3.168 13.981 8.239 4.93 8.748 10.69 16.946 17.181 24.502z" fill="#c2d6ff"/><path d="m329.595 183.19c6.25 6.24 6.25 16.38 0 22.62l-88.31 88.32c-6.25 6.25-16.38 6.25-22.63 0l-50.22-50.22c-6.249-6.249-6.249-16.381 0-22.63l11.31-11.31c6.249-6.249 16.381-6.249 22.63 0l24.762 24.762c1.562 1.562 4.095 1.562 5.657 0l62.862-62.862c6.25-6.25 16.38-6.25 22.63 0z" fill="#befa91"/><path d="m309.492 185.163-52.617 52.617c-9.019 9.019-22.59-4.53-13.561-13.56l52.341-52.35c9.782-9.782 22.566 4.564 13.837 13.293z" fill="#daffbf"/><path d="m225.651 287.996c4.161 4.161-1.794 10.741-6.219 6.862-.622-.545 2.707 2.756-50.997-50.948-6.249-6.249-6.249-16.381 0-22.63l11.31-11.31c9.353-9.353 22.044 4.565 13.551 13.196-2.761 2.805-4.771 5.154-4.731 5.114-6.249 6.249-6.249 16.381 0 22.63z" fill="#daffbf"/><g><path d="m161.475 48.803c-3.975-1.93-8.761-.271-10.69 3.703-16.756 34.519-46.281 60.82-83.137 74.057-2.9 1.042-4.944 3.656-5.255 6.721-12.822 126.339 62.949 230.349 173.65 293.633 2.461 1.407 5.48 1.406 7.941 0 110.6-63.235 186.449-167.316 173.649-293.633-.311-3.066-2.354-5.681-5.255-6.723-36.856-13.239-66.382-39.539-83.135-74.056-1.337-2.755-4.131-4.505-7.196-4.505h-104.193c-4.418 0-8 3.582-8 8s3.582 8 8 8h99.271c18.141 34.594 48.058 61.264 85.043 75.813 8.798 107.017-50.014 205.32-162.153 270.919-112.157-65.599-170.971-163.902-162.156-270.917 38.575-15.173 69.463-43.534 87.32-80.322 1.929-3.974.27-8.761-3.704-10.69z"/><path d="m459.104 155.335c-4.452-.031-8.022 3.53-8.052 7.948-.777 121.102-74.961 230.022-203.527 298.832-4.701 2.516-10.317 2.517-15.021 0-146.974-78.655-221.64-209.106-199.73-348.959.998-6.375 5.779-11.518 12.181-13.104 38.56-9.553 69.202-36.892 81.968-73.131 2.301-6.532 8.383-10.921 15.132-10.921h195.919c6.75 0 12.832 4.388 15.132 10.919 12.765 36.237 43.406 63.577 81.968 73.133 4.293 1.064 8.627-1.553 9.689-5.841 1.063-4.289-1.552-8.627-5.841-9.689-33.316-8.256-59.756-31.777-70.725-62.918-4.552-12.922-16.698-21.604-30.223-21.604h-195.919c-13.524 0-25.67 8.682-30.224 21.605-10.971 31.143-37.41 54.663-70.725 62.917-12.668 3.138-22.144 13.407-24.14 26.159-24.837 158.526 68.217 290.74 207.989 365.541 9.429 5.047 20.69 5.047 30.12 0 120.912-64.714 211.091-175.132 211.977-312.835.028-4.419-3.53-8.023-7.948-8.052z"/><path d="m185.406 215.625c3.125-3.124 3.125-8.189.001-11.314-3.124-3.124-8.189-3.125-11.313 0l-11.315 11.314c-9.356 9.357-9.356 24.583 0 33.941l50.219 50.218c9.38 9.379 24.56 9.38 33.941 0l88.314-88.314c9.356-9.357 9.356-24.583-.001-33.941l-11.313-11.313c-9.379-9.379-24.561-9.381-33.941 0l-60.029 60.029-7.163-7.163c-3.126-3.125-8.19-3.124-11.314 0s-3.124 8.189 0 11.314l12.82 12.82c3.126 3.125 8.19 3.123 11.314 0l65.687-65.687c3.125-3.126 8.185-3.127 11.313 0l11.313 11.313c3.119 3.119 3.119 8.195 0 11.314l-88.314 88.314c-3.125 3.126-8.186 3.127-11.313 0l-50.219-50.218c-3.119-3.119-3.119-8.195-.001-11.314z"/></g></svg>