<svg id="Layer_1" enable-background="new 0 0 480.337 480.337" height="512" viewBox="0 0 480.337 480.337" width="512" xmlns="http://www.w3.org/2000/svg"><path d="m419.182 366.172c10.15-22.73 9.87-36.27-2.32-58.19 13.23-23.84 11.92-41.17-9.31-60.52 21.487-64.288-43.885-71.262-109.24-51.99 1.546-32.009-4.095-65.251-15.9-97.81-16.246-44.808-83.38-26.61-72.95 21.16 9.95 45.53-8.92 91.11-47.83 116.99-2.14-13.33-13.71-23.52-27.64-23.52h-55c-15.46 0-28 12.54-28 28v184c0 15.46 12.54 28 28 28h55c13.289 0 24.984-9.357 27.536-22.965.002.011.004.035.004.035 131.71 16.51 309.97 47 257.65-63.19z" fill="#ffebd2"/><path d="m398.24 216.597c-14.6-1.456-31.734.009-49.562 3.734-10.16 2.123-19.857-5.378-20.276-15.749-.403-9.975 6.81-17.281 15.532-17.998 27.755-2.283 51.138 2.536 61.723 17.471 3.981 5.617-.567 13.226-7.417 12.542z" fill="#fff3e4"/><path d="m253.468 72.303c14.833 2.309 18.7 22.256 5.643 29.663-14.268 8.093-24.273 25.661-19.648 46.856 7.64 34.959-3.62 86.584-53.782 114.62-10.591 5.919-23.644-1.866-23.681-13.999-.041-13.513-.145-12.251-.367-13.631 38.91-25.88 57.771-71.458 47.83-116.99-6.863-31.43 20.287-50.211 44.005-46.519z" fill="#fff3e4"/><path d="m161.633 235.812c-2.14-13.33-13.71-23.52-27.64-23.52h-55c-15.46 0-28 12.54-28 28v184c0 15.46 12.54 28 28 28h55c15.52 0 28-12.606 28-28-.001-196.44.169-185.255-.36-188.48z" fill="#80aaff"/><path d="m134.633 232.292h-25.64c-15.464 0-28 12.536-28 28v164.615c0 19.454-30 20.829-30-.615v-184c0-15.464 12.536-28 28-28 0 0 55.9.01 56.35.03 12.849.61 12.149 19.97-.71 19.97z" fill="#9cbcff"/><path d="m82.712 114.022c7.19 4.97 7.17 15.71-.02 20.69-9.49 6.57-17.74 14.81-24.33 24.34-4.96 7.18-15.69 7.16-20.65-.02-6.57-9.49-14.81-17.74-24.34-24.33-7.18-4.98-7.17-15.72.02-20.69 9.5-6.57 17.75-14.82 24.33-24.34 4.96-7.18 15.69-7.17 20.65.01 6.57 9.5 14.81 17.75 24.34 24.34z" fill="#fff0a6"/><path d="m466.672 59.342c7.57 5.24 7.56 16.55-.01 21.78-10.01 6.92-18.69 15.61-25.62 25.64-5.23 7.56-16.53 7.54-21.76-.02-6.91-10-15.58-18.69-25.62-25.63-7.57-5.23-7.55-16.54.02-21.78 10-6.92 18.68-15.6 25.62-25.63 5.22-7.56 16.52-7.55 21.75.01 6.91 10 15.59 18.69 25.62 25.63z" fill="#fff8d6"/><g><path d="m425.924 307.954c12.41-24.624 9.588-43.835-9.279-62.858 7.657-27.251-.598-42.812-9.192-51.176-26.117-25.417-85.458-16.17-128.339-.529-4.151 1.514-6.288 6.106-4.774 10.257 1.515 4.15 6.106 6.289 10.257 4.774 49.171-17.936 95.103-19.185 111.697-3.036 8.453 8.227 9.688 21.529 3.668 39.537-1.004 3.003-.143 6.316 2.198 8.449 17.81 16.234 19.754 29.032 7.706 50.721-1.343 2.417-1.343 5.356.002 7.773 10.8 19.419 11.232 30.391 2.014 51.042-.953 2.135-.925 4.58.078 6.692 9.992 21.047 11.224 37 3.659 47.416-10.46 14.403-38.896 21.5-84.454 21.082-67.616-.615-164.31-17.644-170.844-16.639-3.432.526-6.056 3.198-6.655 6.462-1.734 9.486-10.009 16.371-19.675 16.371h-54.997c-11.029 0-20.002-8.973-20.002-20.002v-183.996c0-11.029 8.973-20.002 20.002-20.002h54.996c11.029 0 20.002 8.973 20.002 20.002v142.998c0 4.418 3.582 8 8 8s8-3.582 8-8c0 0-.011-143.353-.013-143.531 39.026-28.154 57.545-75.771 47.302-122.652-4.289-19.631 7.621-32.251 21.329-36.05 13.549-3.754 30.003.715 36.228 19.158.038.113.079.224.122.335 7.111 18.333 11.859 37.523 14.109 57.038.505 4.389 4.486 7.538 8.863 7.031 4.39-.506 7.537-4.475 7.031-8.864-2.399-20.811-7.853-41.126-15.024-60.83-19.97-54.873-100.694-31.172-88.289 25.597 8.425 38.561-5.663 77.706-36.102 102.462-6.13-11.133-17.976-18.694-31.558-18.694h-54.996c-19.852 0-36.002 16.15-36.002 36.002v183.997c0 19.851 16.15 36.002 36.002 36.002h54.996c14.787 0 27.761-8.965 33.24-22.149 111.089 14.291 229.511 32.096 261.334-11.725 10.795-14.865 10.582-35.156-.62-60.349 9.26-22.177 8.763-37.236-2.02-58.116z"/><circle cx="106.992" cy="401.292" r="16"/><path d="m471.225 52.765c-9.254-6.4-17.192-14.34-23.596-23.599-8.398-12.145-26.505-12.175-34.911-.014-6.398 9.257-14.336 17.198-23.592 23.602-3.634 2.514-4.541 7.497-2.027 11.131 2.516 3.634 7.498 4.54 11.131 2.027 10.849-7.506 20.151-16.813 27.65-27.662 2.043-2.957 6.538-2.95 8.589.016 7.504 10.852 16.809 20.157 27.654 27.659 2.973 2.057 2.954 6.569-.016 8.624-10.849 7.505-20.151 16.813-27.651 27.663-2.043 2.956-6.538 2.949-8.589-.016-3.368-4.871-7.164-9.502-11.282-13.764-3.069-3.177-8.136-3.264-11.313-.193-3.177 3.07-3.264 8.135-.193 11.312 3.515 3.637 6.754 7.588 9.628 11.745 8.398 12.145 26.505 12.175 34.911.014 6.398-9.257 14.336-17.198 23.593-23.602 12.149-8.408 12.181-26.528.014-34.943z"/><path d="m64.946 163.599c2.638-3.816 5.603-7.451 8.813-10.804 3.055-3.192 2.944-8.256-.247-11.311-3.192-3.054-8.256-2.945-11.312.247-3.794 3.963-7.298 8.26-10.416 12.771-1.78 2.575-5.705 2.57-7.493-.015-7.153-10.344-16.023-19.216-26.363-26.367-2.591-1.792-2.576-5.735.015-7.527 10.343-7.156 19.212-16.028 26.36-26.371 1.781-2.577 5.708-2.568 7.494.015 7.153 10.345 16.023 19.217 26.362 26.368 3.633 2.512 8.615 1.606 11.131-2.029 2.513-3.634 1.604-8.617-2.029-11.13-8.747-6.05-16.251-13.555-22.304-22.309-8.137-11.763-25.674-11.793-33.816-.012-6.048 8.75-13.552 16.257-22.302 22.311-11.77 8.144-11.796 25.694-.013 33.844 8.748 6.051 16.253 13.556 22.305 22.308 8.135 11.763 25.674 11.789 33.815.011z"/></g></svg>