<svg id="Layer_1" enable-background="new 0 0 480 480" height="512" viewBox="0 0 480 480" width="512" xmlns="http://www.w3.org/2000/svg"><path d="m453.1 336c-.1 0 1.371 6.767-38.79-185.9-2.32-11.13-12.13-19.1-23.5-19.1h-48.81v-38h59.12c10.43 0 18.88-8.45 18.88-18.88v-36.24c0-10.43-8.45-18.88-18.88-18.88h-120.24c-10.43 0-18.88 8.45-18.88 18.88v36.24c0 10.43 8.45 18.88 18.88 18.88h16.12v38h-207.81c-11.37 0-21.181 7.974-23.501 19.104l-38.749 185.896c-10.566 0-18.94 8.53-18.94 18.9v87.2c0 10.44 8.46 18.9 18.9 18.9h426.2c10.44 0 18.9-8.46 18.9-18.9v-87.2c0-10.44-8.46-18.9-18.9-18.9z" fill="#80aaff"/><path d="m414.31 150.1c2.248 10.779-5.979 20.9-16.99 20.9h-248.13c-11.37 0-21.18 7.97-23.5 19.1l-27.531 132.086c-1.677 8.047-8.77 13.814-16.99 13.814h-54.229l38.749-185.896c2.32-11.131 12.131-19.104 23.501-19.104h301.62c11.37 0 21.179 7.97 23.5 19.1z" fill="#9cbcff"/><path d="m472 354.9v87.2c0 10.44-8.46 18.9-18.9 18.9h-426.2c-10.44 0-18.9-8.46-18.9-18.9v-87.2c0-10.44 8.46-18.9 18.9-18.9h426.2c10.44 0 18.9 8.46 18.9 18.9z" fill="#9cbcff"/><path d="m472 354.9c0 6.13-4.97 11.1-11.1 11.1h-394c-10.438 0-18.9 8.462-18.9 18.9v60.1c0 8.837-7.163 16-16 16h-5.1c-10.438 0-18.9-8.462-18.9-18.9v-87.2c0-10.438 8.462-18.9 18.9-18.9h426.2c10.438 0 18.9 8.462 18.9 18.9z" fill="#c2d6ff"/><path d="m297 93h45v38h-45z" fill="#719efa"/><path d="m420 37.88v36.24c0 10.43-8.45 18.88-18.88 18.88h-120.24c-10.43 0-18.88-8.45-18.88-18.88v-36.24c0-10.43 8.45-18.88 18.88-18.88h120.24c10.43 0 18.88 8.45 18.88 18.88z" fill="#cbe3fa"/><path d="m401.602 39h-90.722c-10.427 0-18.88 8.453-18.88 18.88v24c0 6.141-4.979 11.12-11.12 11.12-10.427 0-18.88-8.453-18.88-18.88v-36.24c0-10.427 8.453-18.88 18.88-18.88h120.24c14.461 0 13.391 20 .482 20z" fill="#eef7ff"/><path d="m384.64 298.06h-142.85c-10.33 0-17.95-9.64-15.57-19.7l18.06-76.06c1.72-7.21 8.16-12.3 15.57-12.3h106.73c7.41 0 13.85 5.09 15.56 12.3l18.06 76.06c2.39 10.06-5.23 19.7-15.56 19.7z" fill="#cbe3fa"/><path d="m382.14 202.3c.933 3.929-2.046 7.7-6.084 7.7h-86.206c-7.41 0-13.854 5.089-15.57 12.3l-14.64 61.658c-1.964 8.27-9.35 14.102-17.85 14.102-10.33 0-17.954-9.641-15.57-19.7 24.854-104.856-6.969 29.104 18.06-76.06 1.716-7.211 8.16-12.3 15.57-12.3h106.73c7.41 0 13.848 5.09 15.56 12.3z" fill="#eef7ff"/><path d="m208 76.539v97.461h-101v-97.461c0-6.631 7.603-10.383 12.866-6.35l8.272 6.339c2.957 2.266 7.087 2.191 9.959-.181l14.309-11.813c2.957-2.441 7.23-2.441 10.186 0l14.309 11.813c2.873 2.372 7.002 2.447 9.959.181l8.272-6.339c5.265-4.033 12.868-.28 12.868 6.35z" fill="#eef7ff"/><path d="m208 134.569v39.431h-101v-17.512c0-4.784 4.176-8.539 8.923-7.945 29.25 3.659 57.63-1.862 78.948-20.111 5.157-4.414 13.129-.651 13.129 6.137z" fill="#cbe3fa"/><g><path d="m459.739 328.831-37.599-180.362c-3.077-14.758-16.251-25.469-31.327-25.469h-40.813v-30c0-4.418-3.582-8-8-8h-61.125c-5.996 0-10.875-4.879-10.875-10.875v-36.25c0-5.996 4.879-10.875 10.875-10.875h120.249c5.997 0 10.876 4.879 10.876 10.875v36.249c0 5.997-4.879 10.876-10.875 10.876h-13.028c-4.418 0-8 3.582-8 8s3.582 8 8 8h13.028c14.819 0 26.875-12.056 26.875-26.875v-36.25c0-14.819-12.056-26.875-26.875-26.875h-120.25c-14.819 0-26.875 12.056-26.875 26.875v36.249c0 14.82 12.056 26.876 26.875 26.876h8.125v3.291c0 4.418 3.582 8 8 8s8-3.582 8-8v-3.291h29v22h-86.291c-4.418 0-8 3.582-8 8s3.582 8 8 8h143.104c7.538 0 14.125 5.356 15.664 12.735l38.752 185.898c.787 3.775 4.114 6.369 7.823 6.369 6.241 0 10.947 5.041 10.947 10.902v87.193c0 6.012-4.891 10.903-10.903 10.903h-426.193c-6.012 0-10.903-4.891-10.903-10.903v-87.193c0-6.013 4.891-10.904 10.903-10.904h380.097c4.418 0 8-3.582 8-8s-3.582-8-8-8h-380.097c-14.834 0-26.903 12.069-26.903 26.903v87.193c0 14.835 12.069 26.904 26.903 26.904h426.193c14.835 0 26.904-12.069 26.904-26.903v-87.193c0-12.544-8.629-23.108-20.261-26.073z"/><path d="m33.533 304.369c4.343.905 8.566-1.89 9.464-6.199l30.526-146.435c1.539-7.379 8.126-12.735 15.664-12.735h9.813v4.645c0 4.418 3.582 8 8 8s8-3.582 8-8v-67.108l13.326 10.209c2.956 2.265 7.086 2.19 9.958-.181l19.216-15.861 19.216 15.862c2.873 2.371 7.001 2.445 9.958.181l13.326-10.21v89.463h-105c-4.418 0-8 3.582-8 8s3.582 8 8 8h125c4.418 0 8-3.582 8-8s-3.582-8-8-8h-4v-105.67c0-6.617-7.61-10.378-12.865-6.351l-21.14 16.196-19.402-16.015c-2.957-2.44-7.229-2.44-10.186 0l-19.402 16.015-21.14-16.196c-5.253-4.024-12.865-.27-12.865 6.351v62.67h-9.813c-15.075 0-28.25 10.711-31.327 25.469l-30.526 146.435c-.902 4.326 1.874 8.563 6.199 9.465z"/><path d="m303 421c4.418 0 8-3.582 8-8v-29c0-4.418-3.582-8-8-8s-8 3.582-8 8v7h-110v-7c0-4.418-3.582-8-8-8s-8 3.582-8 8v29c0 4.418 3.582 8 8 8s8-3.582 8-8v-6h110v6c0 4.418 3.582 8 8 8z"/><path d="m259.85 198c4.418 0 8-3.582 8-8s-3.582-8-8-8c-11.168 0-20.771 7.589-23.351 18.456l-18.06 76.061c-3.577 15.067 7.84 29.544 23.351 29.544h142.847c15.487 0 26.935-14.453 23.351-29.544l-18.059-76.061c-2.58-10.867-12.183-18.456-23.351-18.456-79.369 0-74.968-.018-75.576.035-3.194.278-5.894 2.451-6.885 5.433-.36 1.079.078-1.64-6.731 48.529h-32.881l7.561-31.846c.86-3.621 4.061-6.151 7.784-6.151zm38.839 0h67.889c3.723 0 6.924 2.53 7.784 6.152l18.059 76.061c1.192 5.022-2.613 9.848-7.783 9.848h-27.641l-5.165-38.063h8.395c4.418 0 8-3.582 8-8s-3.582-8-8-8h-10.567l-1.098-8.088c-.594-4.379-4.626-7.448-9.003-6.852-4.378.594-7.446 4.625-6.852 9.003l.806 5.937h-39.981zm-23.474 53.998-.768 5.663c-.594 4.378 2.473 8.409 6.852 9.003 4.359.595 8.407-2.459 9.003-6.852l1.06-7.814h44.323l5.165 38.063h-99.059c-5.161 0-8.978-4.818-7.784-9.848l6.699-28.215z"/></g></svg>