<svg id="Layer_1" enable-background="new 0 0 480 480" height="512" viewBox="0 0 480 480" width="512" xmlns="http://www.w3.org/2000/svg"><path d="m306.457 55c0-27.735-21.563-47-46-47h-195c-25.41 0-46 20.59-46 46 0 27.735 21.563 47 46 47-24.334 0-46 19.158-46 47 0 25.41 20.59 46 46 46-25.412 0-46 20.599-46 46 0 25.41 20.59 46 46 46-24.334 0-46 19.158-46 47 0 25.41 20.59 46 46 46-25.41 0-46 20.59-46 46 0 27.735 21.563 47 46 47h195c25.41 0 46-20.59 46-46 0-27.735-21.563-47-46-47 24.334 0 46-19.159 46-47 0-25.41-20.59-46-46-46 25.412 0 46-20.599 46-46 0-25.41-20.59-46-46-46 24.334 0 46-19.159 46-47 0-25.41-20.59-46-46-46 25.41 0 46-20.59 46-46z" fill="#ffe773"/><g fill="#fff0a6"><path d="m262.173 8.031c12.927.474 12.384 19.952-.551 19.946h-166.165c-29.809 0-48.202 25.994-45.803 51.341.875 9.252-10.391 14.621-16.922 8.01-8.208-8.308-13.275-19.727-13.275-32.328 0-27.735 21.563-47 46-47 0 0 196.147.011 196.716.031z"/><path d="m262.173 101.031c12.927.474 12.384 19.952-.551 19.946h-166.165c-29.809 0-48.202 25.994-45.803 51.341.875 9.252-10.391 14.621-16.922 8.01-8.208-8.308-13.275-19.727-13.275-32.328 0-27.735 21.563-47 46-47 0 0 196.147.011 196.716.031z"/><path d="m262.173 194.031c12.927.466 12.384 19.599-.551 19.592h-166.165c-29.809 0-48.202 25.534-45.803 50.431.875 9.088-10.391 14.362-16.922 7.869-8.208-8.161-13.275-19.378-13.275-31.756 0-27.243 21.563-46.167 46-46.167 0 0 196.147.01 196.716.031z"/><path d="m262.172 286.046c12.927.474 12.384 19.952-.551 19.946h-166.165c-29.809 0-48.202 25.994-45.803 51.341.875 9.252-10.391 14.621-16.922 8.01-8.208-8.308-13.275-19.728-13.275-32.328 0-27.735 21.563-47 46-47 0 0 196.147.01 196.716.031z"/><path d="m262.172 379.031c12.927.474 12.384 19.952-.551 19.946h-166.165c-29.809 0-48.202 25.994-45.803 51.341.875 9.252-10.391 14.621-16.922 8.01-8.208-8.308-13.274-19.727-13.274-32.328 0-27.735 21.563-47 46-47-.001 0 196.146.011 196.715.031z"/></g><path d="m271.993 470.545c-2.641.682-5.373 1.135-8.176 1.335-27.926-21.109-42.58-58.214-49.1-92.88h11.385c2.855 0 5.334 1.977 5.958 4.763 7.293 32.548 21.293 60.594 41.994 75.89 4.179 3.088 2.969 9.592-2.061 10.892z" fill="#facf5f"/><path d="m223.691 379h-8.974c-5.648-29.988-6.073-63.023-1.53-93h9.134c3.71 0 6.543 3.271 6.056 6.949-3.431 25.888-2.991 53.393 1.336 78.87.637 3.751-2.218 7.181-6.022 7.181z" fill="#facf5f"/><path d="m264.842 204.4c-17.364 17.786-28.891 45.555-34.582 76.592-.532 2.901-3.06 5.008-6.009 5.008h-11.064c4.941-32.69 16.732-68.247 39.55-92h7.865c5.368.017 7.989 6.559 4.24 10.4z" fill="#facf5f"/><path d="m283.577 173.073c6.481-2.485 11.538 5.955 6.192 10.381-7.957 6.588-18.169 10.546-29.312 10.546h-7.72c9.171-9.555 19.553-16.6 30.84-20.927z" fill="#facf5f"/><path d="m381.277 184h-70c-113.6 0-113.55 288 0 288h70c103.6 0 103.55-288 0-288z" fill="#ffe773"/><path d="m383.086 184.03c9.084.298 8.787 13.955-.302 14.004-10.819.058-25.645.034-46.508-.033-83.84-.272-105.776 156.877-65.864 239.062 3.651 7.519-6.626 13.963-11.799 7.398-56.753-72.023-39.228-260.461 52.664-260.461 0 0 71.21.01 71.809.03z" fill="#fff0a6"/><path d="m381.277 184c103.55 0 103.6 288 0 288h-70c113.6 0 113.55-288 0-288z" fill="#fff0a6"/><path d="m428.461 210.376c4.222 5.69.084 13.647-7.002 13.624-.061 0-44.305 0-44.305 0-2.931 0-5.638-1.52-7.216-3.991-14.004-21.931-33.553-36.009-58.661-36.009h70c19.333 0 35.064 10.041 47.184 26.376z" fill="#fff8d6"/><path d="m311.277 229c54.94 0 60.15 198 0 198-60.24 0-54.81-198 0-198z" fill="#fff0a6"/><path d="m291.06 365.147c1.169 13.055-18.12 15.486-20.2 2.544-9.378-58.327 5.5-138.691 40.417-138.691 9.678 0 13.737 12.01 6.572 17.944-21.397 17.721-30.935 71.893-26.789 118.203z" fill="#fff8d6"/><path d="m455.177 37.73c7.19 4.97 7.17 15.71-.02 20.69-9.49 6.57-17.74 14.81-24.33 24.34-4.96 7.18-15.69 7.16-20.65-.02-6.57-9.49-14.81-17.74-24.34-24.33-7.18-4.98-7.17-15.72.02-20.69 9.5-6.57 17.75-14.82 24.33-24.34 4.96-7.18 15.69-7.17 20.65.01 6.57 9.5 14.81 17.75 24.34 24.34z" fill="#fff0a6"/><path d="m149.177 168.73c7.19 4.97 7.17 15.71-.02 20.69-9.49 6.57-17.74 14.81-24.33 24.34-4.96 7.18-15.69 7.16-20.65-.02-6.57-9.49-14.81-17.74-24.34-24.33-7.18-4.98-7.17-15.72.02-20.69 9.5-6.57 17.75-14.82 24.33-24.34 4.96-7.18 15.69-7.17 20.65.01 6.57 9.5 14.81 17.75 24.34 24.34z" fill="#fff8d6"/><g><path d="m308.089 237.361c4.304-.998 6.984-5.296 5.986-9.601-.998-4.304-5.293-6.982-9.601-5.986-16.959 3.933-30.005 22.105-37.726 52.552-6.4 25.236-8.302 57.068-5.089 85.15 5.492 47.997 23.576 75.524 49.615 75.524 58.399 0 62.576-137.091 33.7-189.599-2.129-3.871-6.994-5.284-10.865-3.155-3.872 2.129-5.284 6.993-3.155 10.865 26.318 47.856 18.351 165.889-19.68 165.889-19.686 0-30.326-31.688-33.719-61.342-6.368-55.661 8.756-115.247 30.534-120.297z"/><path d="m438.741 211.181c-14.914-23.015-34.785-35.181-57.465-35.181 0 0-73.185.056-74.758.159 15.069-24.558 8.68-58.83-17.814-75.159 15.438-9.515 25.753-26.573 25.753-46 0-32.213-25.306-55-54-55h-195c-29.776 0-54 24.224-54 54 0 20.817 10.365 37.516 25.753 47-34.278 21.126-34.409 71.793-.013 93-34.321 21.161-34.272 70.869 0 92-34.4 21.209-34.271 71.871.013 93-15.309 9.435-25.753 26.092-25.753 47 0 29.776 24.224 54 54 54h177.581c4.418 0 8-3.582 8-8s-3.582-8-8-8h-177.581c-20.953 0-38-17.047-38-38 0-23.277 18.018-39 38-39h128.807c4.418 0 8-3.582 8-8s-3.582-8-8-8h-128.807c-19.908 0-38-15.647-38-39 0-20.953 17.047-38 38-38h163.949c3.923 0 7.268-2.883 7.888-6.725 7.173-44.393 28.982-95.275 73.982-95.275h70c39.987 0 60.984 51.208 67.302 99.131 9.66 73.28-11.303 172.869-67.302 172.869h-25.271c56.303-45.539 62.701-176.345 23.387-243.861-2.224-3.818-7.121-5.112-10.939-2.888-3.818 2.223-5.111 7.121-2.888 10.939 43.006 73.859 25.018 235.81-54.289 235.81-15.295 0-28.943-6.008-40.565-17.857-23.562-24.022-37.573-71.272-36.566-123.31.085-4.417-3.426-8.068-7.844-8.153-4.386-.084-8.068 3.426-8.153 7.844-.512 26.463 2.701 52.578 9.292 75.521 12.385 43.113 39.161 81.955 83.836 81.955h70c91.394 0 108.06-190.741 57.465-268.819zm-411.284-156.181c0-23.277 18.018-39 38-39h195c20.953 0 38 17.047 38 38 0 23.277-18.018 39-38 39h-195c-20.953 0-38-17.047-38-38zm0 93c0-23.277 18.018-39 38-39h195c20.953 0 38 17.047 38 38 0 23.277-18.018 39-38 39h-99.103c3.184-8.935-.123-18.658-7.628-23.849-8.748-6.05-16.252-13.556-22.305-22.309-8.134-11.764-25.673-11.793-33.816-.013-6.048 8.75-13.551 16.257-22.301 22.311-7.588 5.25-10.793 15.014-7.644 23.859h-2.203c-20.953.001-38-17.046-38-37.999zm56.935 34.826c-2.591-1.792-2.575-5.735.015-7.527 10.342-7.156 19.211-16.028 26.36-26.371 1.783-2.581 5.71-2.565 7.494.015 7.153 10.345 16.023 19.217 26.363 26.368 2.591 1.792 2.575 5.735-.015 7.526-9.626 6.66-19.351 16.232-26.36 26.372-1.784 2.581-5.71 2.564-7.494-.015-6.769-9.791-16.393-19.474-26.363-26.368zm138.298 95.174h-157.233c-20.953 0-38-17.047-38-38s17.047-38 38-38h17.542c5.51 4.793 10.408 10.236 14.596 16.293 8.134 11.765 25.674 11.793 33.816.013 4.189-6.061 9.091-11.509 14.607-16.306h110.142c-18.195 20.42-28.405 49.334-33.47 76z"/><path d="m381.291 64.985c8.748 6.05 16.252 13.556 22.305 22.308 8.134 11.765 25.674 11.793 33.816.013 6.048-8.751 13.552-16.258 22.301-22.311 11.77-8.143 11.798-25.693.013-33.844-8.748-6.05-16.252-13.556-22.305-22.309-8.134-11.763-25.673-11.792-33.816-.012-6.048 8.75-13.551 16.257-22.301 22.311-11.771 8.144-11.797 25.693-.013 33.844zm9.117-20.686c10.342-7.156 19.211-16.028 26.36-26.371 1.783-2.581 5.71-2.565 7.494.015 7.153 10.345 16.023 19.217 26.363 26.368 2.591 1.792 2.575 5.735-.015 7.526-10.342 7.155-19.21 16.028-26.36 26.372-1.784 2.581-5.71 2.564-7.494-.015-7.154-10.345-16.023-19.217-26.363-26.368-2.592-1.793-2.576-5.735.015-7.527z"/></g></svg>