<svg id="Layer_1" enable-background="new 0 0 480.008 480.008" height="512" viewBox="0 0 480.008 480.008" width="512" xmlns="http://www.w3.org/2000/svg"><path d="m463.11 138.445c-166.814-71.75-243.432-38.095-383.46-103.28-8.41-3.92-18.3.77-20.51 9.77l-40 162.66c-6.29 1.57-11.14 7.23-11.14 14.24v199c0 6.96 4.88 12.99 11.7 14.41 153.557 32.042 220.624-19.267 397.92 9.22 8.95 1.44 17.07-5.46 17.07-14.52v-124.51l36.88-149.97c1.72-6.97-1.86-14.18-8.46-17.02z" fill="#befa91"/><path d="m434.69 230.785v42.78c-35.94-.93-65.13-28.99-67.84-64.46 17.32 1.54 35.75 3.86 55.56 7.16 7.09 1.19 12.28 7.33 12.28 14.52z" fill="#daffbf"/><path d="m434.69 230.785v12.326c0 4.795-4.189 8.498-8.952 7.942-14.041-1.639-27.356-2.767-40.079-3.488-2.397-.136-4.632-1.311-6.027-3.265-7.192-10.073-11.785-22.137-12.782-35.195 17.32 1.54 35.75 3.86 55.56 7.16 7.09 1.19 12.28 7.33 12.28 14.52z" fill="#f1ffe6"/><path d="m434.69 378.445v51.5c0 9.06-8.12 15.96-17.07 14.52-17.8-2.86-34.48-4.92-50.24-6.33 4.84-33.19 33-58.8 67.31-59.69z" fill="#daffbf"/><path d="m8 378.445c36.28.94 65.67 29.513 67.91 65.453-17.54-1.7-36.13-4.463-56.21-8.653-6.82-1.42-11.7-7.45-11.7-14.41z" fill="#daffbf"/><path d="m55.651 404.797c-2.509 8.986-4.428 18.207-5.72 27.625-.612 4.46-4.796 7.537-9.235 6.789-7.004-1.18-13.76-2.472-20.996-3.965-6.82-1.42-11.7-7.45-11.7-14.41v-42.39c17.449.453 33.3 7.294 45.308 18.27 2.238 2.044 3.158 5.161 2.343 8.081z" fill="#f1ffe6"/><path d="m374.154 235.253c-4.034-7.963-6.59-16.801-7.304-26.148-139.05-12.406-206.734 24.923-341.28-1.65-9.157-1.815-17.57 5.173-17.57 14.38v156.61c15.202.394 29.191 5.638 40.483 14.24 4.224 3.218 10.411 1.38 12.243-3.604 27.14-73.818 94.994-128.502 177.504-135.826 39.549-3.503 79.708-7.862 128.517-6.494 6.008.169 10.122-6.146 7.407-11.508z" fill="#daffbf"/><path d="m25.57 207.455c17.57 3.47 34 5.853 49.6 7.393-5.25 32.71-33.19 57.837-67.17 58.717v-51.73c0-9.207 8.414-16.195 17.57-14.38z" fill="#f1ffe6"/><path d="m221.35 268.075c90.03 0 90.05 115.87 0 115.87-90.04 0-90.06-115.87 0-115.87z" fill="#daffbf"/><path d="m409.948 132.544c.333 7.923-7.043 13.905-14.712 11.887-54.839-14.429-100.434-18.847-146.865-26.896-75.296-13.067-148.393 24.281-183.257 88.666-2.319 4.283-7.075 6.67-11.896 5.978-27.963-4.013-28.499-5.958-34.077-4.584l40-162.66c2.21-9 12.1-13.69 20.51-9.77 124.475 57.945 198.895 37.78 331.18 83.06-.8 4.81-1.081 9.603-.883 14.319z" fill="#daffbf"/><path d="m79.65 35.165c16.24 7.56 31.64 13.8 46.42 19.02-12.91 30.51-46.06 48.24-79.28 40.98l12.35-50.23c2.21-9 12.1-13.69 20.51-9.77z" fill="#f1ffe6"/><path d="m463.11 138.445c6.6 2.84 10.18 10.05 8.46 17.02l-10.22 41.55c-34.69-9.49-56.35-43.7-50.52-78.79 16.46 5.63 33.82 12.28 52.28 20.22z" fill="#daffbf"/><path d="m471.57 155.465c-1.676 6.805-8.898 10.615-15.473 8.189-12.829-4.731-25.119-8.84-36.961-12.445-4.214-1.283-7.338-4.818-8.127-9.152-1.402-7.703-1.521-15.745-.179-23.833 16.46 5.63 33.82 12.28 52.28 20.22 6.6 2.841 10.177 10.05 8.46 17.021z" fill="#f1ffe6"/><path d="m255.38 140.755c40.34 9.91 56.2 39.18 53 65.74-48.54-.01-88.87 5.27-130.01 8.43-15.88-39.03 16.03-89.15 77.01-74.17z" fill="#daffbf"/><g><path d="m466.268 131.095c-168.045-72.262-244.74-38.683-383.244-103.186-12.973-6.041-28.237 1.219-31.653 15.115l-39.011 158.634c-7.515 3.846-12.36 11.536-12.36 20.179v198.999c0 10.704 7.6 20.056 18.07 22.238 155.813 32.466 221.68-19.066 398.281 9.29 13.811 2.217 26.343-8.436 26.343-22.42 0-53.839.003-50.991-.005-51.603-.064-4.426-3.709-7.949-8.1-7.888-17.839.16-37.206 7.548-51.838 21.521-3.196 3.051-3.313 8.115-.262 11.311 3.053 3.196 8.116 3.312 11.311.261 9.129-8.717 20.59-14.363 32.895-16.334v42.733c0 4.146-3.716 7.278-7.807 6.622-179.167-28.766-244.873 22.658-397.553-9.156-3.092-.645-5.335-3.411-5.335-6.576v-33.6c16.352 2.655 31.236 11.847 40.874 25.592 1.557 2.22 4.037 3.407 6.557 3.407 6.386 0 10.288-7.254 6.543-12.594-12.622-18-32.398-29.814-53.974-32.583v-149.22c0-4.241 3.883-7.353 8.021-6.536 14.498 2.864 28.211 4.993 41.322 6.535-3.427 11.175-10.001 21.251-19.017 28.951-5.636 4.812-2.212 14.083 5.199 14.083 1.837 0 3.685-.629 5.191-1.917 12.153-10.378 20.778-24.2 24.786-39.485 98.435 8.342 165.288-15.92 278.198-6.94 3.754 22.549 17.333 42.502 37.265 54.276 3.819 2.257 8.719.971 10.957-2.819 2.247-3.804.985-8.709-2.818-10.957-14.606-8.628-24.918-22.775-28.778-38.963 14.13 1.477 28.993 3.464 44.77 6.095 3.243.541 5.597 3.326 5.597 6.623v99.229c0 4.418 3.582 8 8 8s8-3.582 8-8v-99.229c0-11.149-7.976-20.572-18.964-22.405-103.74-17.303-166.754-7.881-239.776-1.92-8.915-33.331 19.109-70.321 69.521-57.933 15.831 3.89 28.545 11.357 36.766 21.597 2.767 3.445 7.802 3.995 11.247 1.229 3.445-2.767 3.995-7.802 1.229-11.247-10.441-13.004-26.149-22.381-45.425-27.117-61.272-15.052-98.977 30.697-89.5 74.679-41.574 2.781-84.659 2.77-138.548-7.656l23.546-95.748c19.852 2.288 39.699-3.137 55.608-15.033 3.538-2.646 4.262-7.659 1.616-11.198-2.645-3.538-7.659-4.262-11.198-1.616-12.2 9.123-27.204 13.359-42.162 12.135l10.256-41.706c1.023-4.161 5.573-6.196 9.361-4.432 123.903 57.703 198.294 39.007 325.872 81.322-1.49 19.62 4.528 39.252 17.014 54.756 2.779 3.451 7.816 3.976 11.248 1.212 3.441-2.771 3.984-7.807 1.213-11.249-9.025-11.207-13.813-25.121-13.718-39.268 13.377 4.807 27.346 10.285 42.049 16.607 3.021 1.299 4.644 4.565 3.856 7.765l-7.555 30.72c-1.055 4.291 1.567 8.624 5.858 9.679 4.295 1.056 8.624-1.569 9.679-5.858l7.555-30.72c2.663-10.827-2.835-21.882-13.073-26.283z"/><path d="m121.944 159.396c-4.292-1.053-8.624 1.57-9.678 5.86-1.054 4.291 1.57 8.624 5.86 9.678 20.173 4.956 19.309 4.842 20.678 4.842 3.597 0 6.866-2.444 7.763-6.093 1.054-4.291-1.57-8.624-5.86-9.678z"/><path d="m221.347 276.072c18.587 0 34.09 5.398 44.833 15.611 3.201 3.045 8.265 2.917 11.31-.286 3.044-3.202 2.916-8.266-.286-11.31-13.773-13.094-33.088-20.016-55.856-20.016-47.828 0-75.536 31.001-75.536 65.929 0 34.9 27.679 65.94 75.536 65.94 47.832 0 75.539-31.008 75.535-65.936 0-4.418-3.583-8-8.001-7.999s-7.999 3.583-7.999 8.001c.002 26.172-20.658 49.934-59.535 49.934-79.18.001-79.753-99.868-.001-99.868z"/><path d="m96.281 318.006c-4.418 0-8 3.582-8 8s3.582 8 8 8h19.312c4.418 0 8-3.582 8-8s-3.582-8-8-8z"/><path d="m327.101 318.006c-4.418 0-8 3.582-8 8s3.582 8 8 8h19.312c4.418 0 8-3.582 8-8s-3.582-8-8-8z"/></g></svg>