<svg id="Layer_1" enable-background="new 0 0 480 480" height="512" viewBox="0 0 480 480" width="512" xmlns="http://www.w3.org/2000/svg"><path d="m447.46 20.559-30.25 19.1c-5.22 3.3-11.87 3.3-17.09 0l-46.24-29.2c-5.22-3.29-11.87-3.29-17.09 0l-46.25 29.2c-5.22 3.3-11.86 3.3-17.08 0l-46.25-29.2c-5.22-3.29-11.87-3.29-17.09 0l-46.24 29.2c-5.22 3.3-11.87 3.3-17.09 0l-30.25-19.1c-10.65-6.72-24.54.93-24.54 13.53v357.92l-12.12 7.65c-5.22 3.3-11.87 3.3-17.09 0l-30.25-19.1c-10.65-6.72-24.54.93-24.54 13.53v35.9c0 23.2 18.8 41.995 42 41.995h380.72c23.03-.38 41.28-19.655 41.28-42.685v-395.21c0-12.6-13.89-20.25-24.54-13.53z" fill="#eef7ff"/><path d="m445.584 194.216c10.344-8.943 26.416-1.535 26.416 12.138v222.945c0 23.135-18.471 42.685-42.01 42.685-23.2 0-41.99-18.805-41.99-41.995v-35.9c0-12.6-13.89-20.25-24.54-13.52l-30.25 19.09c-5.22 3.3-11.87 3.3-17.09 0l-46.24-29.2c-5.22-3.29-11.87-3.29-17.09 0l-46.25 29.2c-5.22 3.3-11.86 3.3-17.08 0l-46.25-29.2c-5.22-3.29-11.87-3.29-17.09 0l-34.12 21.55v-119.556c0-10.619 10.151-18.272 20.37-15.382 118.199 33.426 241.118 16.766 333.214-62.855z" fill="#cbe3fa"/><path d="m429.99 471.984h-379.99c-23.2 0-42-18.795-42-41.995v-35.9c0-12.6 13.89-20.25 24.54-13.53l30.25 19.1c5.22 3.3 11.87 3.3 17.09 0l46.24-29.2c5.22-3.29 11.87-3.29 17.09 0l46.25 29.2c5.22 3.3 11.86 3.3 17.08 0l46.25-29.2c5.22-3.29 11.87-3.29 17.09 0l46.24 29.2c5.22 3.3 11.87 3.3 17.09 0l30.25-19.09c10.65-6.73 24.54.92 24.54 13.52v35.9c0 23.19 18.79 41.995 41.99 41.995z" fill="#b5d5f5"/><path d="m412 117.989v22c0 8.84-7.16 16-16 16h-228c-8.84 0-16-7.16-16-16v-22c0-8.84 7.16-16 16-16h228c8.84 0 16 7.16 16 16z" fill="#cbe3fa"/><g><path d="m443.188 13.799-30.249 19.101c-2.596 1.639-5.949 1.639-8.545 0l-46.245-29.203c-7.785-4.916-17.846-4.916-25.631 0l-46.246 29.203c-2.596 1.639-5.949 1.639-8.545 0l-46.245-29.203c-7.785-4.916-17.846-4.916-25.631 0l-46.245 29.203c-2.596 1.639-5.949 1.639-8.545 0l-30.249-19.101c-15.997-10.102-36.812 1.373-36.812 20.291v295.885c0 4.418 3.582 8 8 8s8-3.582 8-8v-295.885c0-6.311 6.944-10.127 12.27-6.763l30.249 19.101c7.785 4.917 17.846 4.917 25.631 0l46.245-29.203c2.596-1.639 5.949-1.639 8.545 0l46.246 29.203c7.785 4.917 17.846 4.917 25.631 0l46.246-29.203c2.596-1.639 5.949-1.639 8.545 0l46.245 29.203c7.786 4.917 17.846 4.917 25.631 0l30.249-19.101c5.337-3.371 12.27.465 12.27 6.763v395.208c0 18.818-14.99 34.379-33.416 34.687-.44.008-380.48.005-380.584.005-18.748 0-34-15.252-34-34v-35.9c0-6.312 6.945-10.127 12.27-6.763l30.249 19.101c7.785 4.917 17.846 4.917 25.631 0l46.245-29.203c2.596-1.639 5.949-1.639 8.545 0l46.246 29.203c7.785 4.917 17.846 4.917 25.631 0l46.246-29.203c2.596-1.639 5.949-1.639 8.545 0l46.245 29.203c7.785 4.917 17.846 4.917 25.631 0l30.246-19.1c5.339-3.372 12.272.465 12.272 6.765v35.896c0 4.418 3.582 8 8 8s8-3.582 8-8v-35.896c0-18.921-20.817-30.395-36.815-20.293l-30.246 19.1c-2.596 1.639-5.949 1.639-8.545 0l-46.245-29.203c-7.786-4.917-17.846-4.917-25.631 0l-46.251 29.203c-2.596 1.639-5.949 1.639-8.545 0l-46.246-29.203c-7.785-4.917-17.846-4.917-25.631 0l-46.244 29.203c-2.596 1.639-5.949 1.639-8.545 0l-30.249-19.101c-15.998-10.102-36.812 1.373-36.812 20.291v35.899c0 27.57 22.43 50 50 50 .385 0 379.857.004 380.852-.007 27.1-.453 49.148-23.19 49.148-50.685v-395.207c0-18.919-20.815-30.392-36.812-20.291z"/><path d="m396 93.989h-228c-13.233 0-24 10.767-24 24v22c0 13.233 10.767 24 24 24h228c4.418 0 8-3.582 8-8s-3.582-8-8-8h-228c-4.411 0-8-3.589-8-8v-22c0-4.411 3.589-8 8-8h228c4.411 0 8 3.589 8 8 0 4.418 3.582 8 8 8s8-3.582 8-8c0-13.233-10.767-24-24-24z"/><path d="m185.032 346.861c4.418 0 8-3.582 8-8v-10.83c17.604-3.035 30.863-15.875 30.863-31.212 0-24.102-21.535-28.512-37.258-31.731-18.659-3.821-24.468-6.534-24.468-16.057 0-8.615 10.47-15.894 22.863-15.894 8.447 0 16.209 3.312 20.256 8.643 2.671 3.52 7.69 4.207 11.209 1.535 3.52-2.671 4.207-7.69 1.535-11.209-5.682-7.486-14.699-12.552-25-14.292v-10.823c0-4.418-3.582-8-8-8s-8 3.582-8 8v10.83c-17.604 3.035-30.863 15.875-30.863 31.211 0 24.102 21.535 28.512 37.258 31.731 18.659 3.821 24.468 6.534 24.468 16.057 0 8.616-10.47 15.895-22.863 15.895-8.447 0-16.209-3.312-20.256-8.643-2.671-3.52-7.69-4.207-11.209-1.535-3.52 2.671-4.207 7.69-1.535 11.209 5.682 7.486 14.699 12.552 25 14.292v10.823c0 4.418 3.582 8 8 8z"/><path d="m412 201.989h-139c-4.418 0-8 3.582-8 8s3.582 8 8 8h139c4.418 0 8-3.582 8-8s-3.582-8-8-8z"/><path d="m412 257.989h-139c-4.418 0-8 3.582-8 8s3.582 8 8 8h139c4.418 0 8-3.582 8-8s-3.582-8-8-8z"/><path d="m412 313.989h-109c-4.418 0-8 3.582-8 8s3.582 8 8 8h109c4.418 0 8-3.582 8-8s-3.582-8-8-8z"/></g></svg>