<svg id="Layer_1" enable-background="new 0 0 479.999 479.999" height="512" viewBox="0 0 479.999 479.999" width="512" xmlns="http://www.w3.org/2000/svg"><path d="m366.37 22.152h-252.74c-70.51 0-105.67 58.5-105.63 117v61c.04 58.5 35.29 117 105.63 117h252.74c70.5 0 105.67-58.5 105.63-117v-61c-.04-58.5-35.3-117-105.63-117z" fill="#daffbf"/><path d="m371.832 22.272c19.317.853 18.575 29.779-.762 29.851-37.943.142-100.423.233-207.441.029-70.51-.134-105.71 58.5-105.63 117 .022 16.092.026 28.044.012 37.102-.022 14.487-18.625 20.492-27.06 8.714-48.11-67.175-20.625-192.816 82.679-192.816 0 0 256.406.04 258.202.12z" fill="#e9ffd9"/><path d="m472 200.152c.04 58.5-35.13 117-105.63 117h-252.74c-70.34 0-105.59-58.5-105.63-117v-61c.04 58.5 35.3 117 105.63 117h252.74c70.46 0 105.63-58.43 105.63-116.89z" fill="#befa91"/><path d="m50.536 275.611c3.122 8.286-7.68 14.76-13.491 8.078-19.336-22.236-29.024-52.886-29.045-83.537v-61c.019 32.052 10.616 64.113 31.772 86.542 1.334 1.414 2.05 3.288 2.108 5.23.461 15.348 3.347 30.595 8.656 44.687z" fill="#daffbf"/><path d="m450.44 407.752c5.78 6.69 4.35 16.97-3.04 21.85l-39.13 25.82c-7.39 4.88-17.36 2.13-21.19-5.84l-35.45-73.693c-1.134-2.358-4.189-3.01-6.187-1.321l-28.633 24.204c-9.21 7.79-23.33 1.71-24-10.34l-7.93-140.93c-.63-11.26 11.12-19.01 21.16-13.97l125.8 63.13c10.76 5.4 10.74 20.81-.04 26.22l-33.511 16.808c-2.329 1.168-2.937 4.216-1.235 6.189z" fill="#cbe3fa"/><path d="m410.755 446.431c1.538 3.197.476 7.038-2.485 8.991-7.393 4.876-17.356 2.128-21.19-5.84l-21.791-45.292c-6.56-13.636 13.95-23.366 20.457-9.842z" fill="#eef7ff"/><path d="m307.829 234.43c7.93 3.98 6.792 18.455 7.051 23.072l7.257 128.893c.267 4.733-1.707 9.316-5.327 12.377-9.211 7.788-23.33 1.71-24-10.34l-7.93-140.93c-.63-11.26 11.12-19.01 21.16-13.97z" fill="#eef7ff"/><g><path d="m178.889 112.652c0-19.023-15.477-34.5-34.5-34.5h-32.389c-4.418 0-8 3.582-8 8v106c0 4.418 3.582 8 8 8h32.389c19.023 0 34.5-15.477 34.5-34.5 0-10.639-4.843-20.167-12.438-26.5 7.594-6.333 12.438-15.861 12.438-26.5zm-16 53c0 10.201-8.299 18.5-18.5 18.5h-24.389v-37h24.389c10.201 0 18.5 8.299 18.5 18.5zm-42.889-34.5v-37h24.389c10.201 0 18.5 8.299 18.5 18.5s-8.299 18.5-18.5 18.5z"/><path d="m269.444 78.152c-4.418 0-8 3.582-8 8v76.556c0 11.824-9.62 21.444-21.444 21.444s-21.444-9.62-21.444-21.444v-76.556c0-4.418-3.582-8-8-8s-8 3.582-8 8v76.556c0 20.647 16.797 37.444 37.444 37.444 20.646 0 37.444-16.797 37.444-37.444v-76.556c0-4.418-3.582-8-8-8z"/><path d="m372.484 78.951c-3.978-1.925-8.761-.26-10.686 3.717l-22.798 47.117-22.799-47.117c-1.925-3.977-6.708-5.642-10.686-3.717-3.978 1.924-5.642 6.708-3.717 10.686l29.202 60.349v42.167c0 4.418 3.582 8 8 8s8-3.582 8-8v-42.167l29.201-60.349c1.925-3.978.261-8.762-3.717-10.686z"/><path d="m479.999 139.127c-.055-67.311-42.384-124.975-113.629-124.975h-252.741c-35.159 0-64.716 13.664-85.476 39.514-18.154 22.608-28.153 52.93-28.153 85.382v61.11c.048 67.083 42.185 124.994 113.629 124.994h167.604l3.584 63.728c1.048 18.629 22.904 28.054 37.159 16.004l24.686-20.866 33.204 69.029c5.939 12.341 21.393 16.59 32.81 9.056l39.13-25.829c11.4-7.525 13.625-23.398 4.693-33.749l-50.039-57.987 28.921-14.51c16.662-8.359 16.674-32.177.047-40.521l-52.617-26.405c36.062-4.699 64.149-25.159 81.039-56.682-.865 19.661-5.859 38.335-14.603 54.338-2.936 5.375 1.026 11.837 7.014 11.837 2.831 0 5.574-1.506 7.027-4.166 10.951-20.044 16.73-43.656 16.711-68.278zm-113.629 109.025h-15.246c-3.02 0-5.822 1.753-7.151 4.412-1.855 3.696-.574 8.297 3.064 10.457.53.316-5.229-2.59 81.216 40.789 4.878 2.448 4.871 9.453-.045 11.92l-38.099 19.113c-4.653 2.332-5.874 8.432-2.47 12.377l56.747 65.76c2.625 3.042 1.97 7.722-1.395 9.942l-39.129 25.829c-3.351 2.209-7.843.967-9.578-2.639l-37.685-78.342c-2.263-4.708-8.38-6.02-12.373-2.642l-32.578 27.539c-4.161 3.516-10.547.819-10.856-4.684l-7.927-140.933c-.288-5.119 5.035-8.653 9.588-6.37 3.945 1.981 8.755.389 10.738-3.562 1.981-3.949.387-8.757-3.563-10.738-15.541-7.8-33.717 4.159-32.738 21.568l3.442 61.205h-166.703c-64.428 0-95.163-52.212-97.482-102.884 19.671 36.772 54.009 57.884 97.482 57.884h121.177c4.418 0 8-3.582 8-8s-3.582-8-8-8h-121.177c-129.935 0-130.643-218 0-218h252.741c129.932-.001 130.652 217.999 0 217.999z"/></g></svg>