<svg id="Layer_1" enable-background="new 0 0 480 480" height="512" viewBox="0 0 480 480" width="512" xmlns="http://www.w3.org/2000/svg"><path d="m472 44v392c0 8.84-7.16 16-16 16h-19c-8.84 0-16-7.16-16-16v-392c0-8.84 7.16-16 16-16h19c8.84 0 16 7.16 16 16z" fill="#585966"/><path d="m459.98 44c-8.8.011-15.98 7.142-15.98 16v375.939c0 14.924-23 15.79-23 .061v-392c0-8.837 7.163-16 16-16h19c2.741 0 5.32.688 7.575 1.902 6.889 3.707 4.228 14.088-3.595 14.098z" fill="#6e6f80"/><path d="m369 44v271c0 8.84-7.16 16-16 16h-19c-8.84 0-16-7.16-16-16v-271c0-8.84 7.16-16 16-16h19c8.84 0 16 7.16 16 16z" fill="#585966"/><path d="m354.597 28.105c7.373.847 6.576 11.895-.847 11.895-8.84 0-16.02 7.16-16.018 16v259.069c.02 12.938-19.982 13.803-19.982-.069v-271c0-8.837 7.171-16 16.007-16 20.871 0 19.569-.041 20.84.105z" fill="#6e6f80"/><path d="m266 44v271c0 8.84-7.16 16-16 16h-19c-8.84 0-16-7.16-16-16v-271c0-8.84 7.16-16 16-16h19c8.84 0 16 7.16 16 16z" fill="#585966"/><path d="m251.347 28.105c7.373.847 6.576 11.895-.847 11.895-8.84 0-16.02 7.16-16.018 16v259.069c.02 12.938-19.982 13.803-19.982-.069v-271c0-8.837 7.171-16 16.007-16 20.871 0 19.569-.041 20.84.105z" fill="#6e6f80"/><path d="m162 44v271c0 8.84-7.16 16-16 16h-19c-8.84 0-16-7.16-16-16v-271c0-8.84 7.164-16 16.004-16h18.996c8.84 0 16 7.16 16 16z" fill="#585966"/><path d="m147.847 28.105c7.373.847 6.576 11.895-.847 11.895-8.84 0-16.02 7.16-16.018 16v259.069c.021 12.938-19.982 13.803-19.982-.069v-271c0-8.837 7.167-16 16.004-16 20.871 0 19.572-.041 20.843.105z" fill="#6e6f80"/><path d="m59 44v392c0 8.84-7.16 16-16 16h-19c-8.84 0-16-7.16-16-16v-392c0-8.84 7.16-16 16-16h19c8.84 0 16 7.16 16 16z" fill="#585966"/><path d="m46.98 44c-8.8.011-15.98 7.142-15.98 16v375.939c0 14.924-23 15.79-23 .061v-392c0-8.837 7.163-16 16-16h19c2.741 0 5.32.688 7.575 1.902 6.889 3.707 4.228 14.088-3.595 14.098z" fill="#6e6f80"/><g><path d="m43 20h-19c-13.233 0-24 10.766-24 24v334c0 4.418 3.582 8 8 8s8-3.582 8-8v-334c0-4.411 3.589-8 8-8h19c4.411 0 8 3.589 8 8v392c0 4.411-3.589 8-8 8h-19c-4.411 0-8-3.589-8-8 0-4.418-3.582-8-8-8s-8 3.582-8 8c0 13.234 10.767 24 24 24h19c13.233 0 24-10.766 24-24v-392c0-13.234-10.767-24-24-24z"/><path d="m266 61.387c-4.418 0-8 3.582-8 8v245.613c0 4.411-3.589 8-8 8h-19c-4.411 0-8-3.589-8-8v-271c0-4.411 3.589-8 8-8h19c4.418 0 8-3.582 8-8s-3.582-8-8-8h-19c-13.233 0-24 10.766-24 24v271c0 13.234 10.767 24 24 24h19c13.233 0 24-10.766 24-24v-245.613c0-4.418-3.582-8-8-8z"/><path d="m146 20h-19c-13.233 0-24 10.766-24 24v271c0 13.234 10.767 24 24 24h19c4.418 0 8-3.582 8-8s-3.582-8-8-8h-19c-4.411 0-8-3.589-8-8v-271c0-4.411 3.589-8 8-8h19c4.411 0 8 3.589 8 8v249.903c0 4.418 3.582 8 8 8s8-3.582 8-8v-249.903c0-13.234-10.767-24-24-24z"/><path d="m456 20h-19c-13.233 0-24 10.766-24 24v392c0 13.234 10.767 24 24 24h19c4.418 0 8-3.582 8-8s-3.582-8-8-8h-19c-4.411 0-8-3.589-8-8v-392c0-4.411 3.589-8 8-8h19c4.411 0 8 3.589 8 8v369.581c0 4.418 3.582 8 8 8s8-3.582 8-8v-369.581c0-13.234-10.767-24-24-24z"/><path d="m353 20h-19c-13.233 0-24 10.766-24 24v271c0 13.234 10.767 24 24 24h19c13.233 0 24-10.766 24-24 0-4.418-3.582-8-8-8s-8 3.582-8 8c0 4.411-3.589 8-8 8h-19c-4.411 0-8-3.589-8-8v-271c0-4.411 3.589-8 8-8h19c4.411 0 8 3.589 8 8v225.129c0 4.418 3.582 8 8 8s8-3.582 8-8v-225.129c0-13.234-10.767-24-24-24z"/><path d="m141.422 370.845-16 8c-3.951 1.976-5.553 6.781-3.577 10.733 1.975 3.952 6.78 5.554 10.733 3.578l4.422-2.211v61.055c0 4.418 3.582 8 8 8s8-3.582 8-8v-74c0-5.933-6.256-9.814-11.578-7.155z"/><path d="m244.422 370.845-16 8c-3.951 1.976-5.553 6.781-3.577 10.733s6.781 5.554 10.733 3.578l4.422-2.211v61.055c0 4.418 3.582 8 8 8s8-3.582 8-8v-74c0-5.933-6.256-9.814-11.578-7.155z"/><path d="m343 370c-16.262 0-29 19.766-29 45s12.738 45 29 45 29-19.766 29-45-12.738-45-29-45zm0 74c-5.301 0-13-11.297-13-29s7.699-29 13-29 13 11.297 13 29-7.699 29-13 29z"/></g></svg>