<svg id="Layer_1" enable-background="new 0 0 479.977 479.977" height="512" viewBox="0 0 479.977 479.977" width="512" xmlns="http://www.w3.org/2000/svg"><path d="m358.988 35.989h-238c-13.25 0-24 10.75-24 24v218c0 13.25 10.75 24 24 24h238c13.25 0 24-10.75 24-24v-218c0-13.25-10.75-24-24-24z" fill="#c79a83"/><path d="m382.988 59.989c0 3.314-2.686 6-6 6h-91.66c-3.314 0-6-2.686-6-6v-24h79.66c13.255 0 24 10.745 24 24z" fill="#e0b7a3"/><path d="m201.299 35.989v24c0 3.314-2.686 6-6 6h-34.31c-13.255 0-24 10.745-24 24v212h-16c-13.255 0-24-10.745-24-24v-218c0-13.255 10.745-24 24-24h80.31z" fill="#e0b7a3"/><path d="m279.329 35.989v71.42c0 12.1-12.9 19.82-23.56 14.1l-15.45-8.29-15.45 8.29c-10.66 5.72-23.57-2-23.57-14.1v-71.42z" fill="#cbe3fa"/><path d="m279.329 35.989v24c0 3.314-2.686 6-6 6h-66.03c-3.314 0-6-2.686-6-6v-24z" fill="#eef7ff"/><path d="m430.988 184.989h-382c-8.84 0-16 7.16-16 16v40c0 8.84 7.16 16 16 16h7.61l26.02 160.13c2.52 15.49 15.9 26.87 31.59 26.87h251.56c15.69 0 29.07-11.38 31.59-26.87l26.02-160.13h7.61c8.84 0 16-7.16 16-16v-40c0-8.841-7.159-16-16-16z" fill="#585966"/><path d="m125.452 426.077c4.099 8.244-2.037 17.912-11.244 17.912-15.69 0-29.07-11.38-31.59-26.87l-26.02-160.13h29.377c6.124 0 11.345 4.441 12.327 10.486l24.316 149.644c.532 3.27 1.492 6.258 2.834 8.958z" fill="#6e6f80"/><path d="m423.379 256.989-1.509 9.283c-.629 3.872-3.973 6.717-7.896 6.717h-347.971c-3.923 0-7.267-2.845-7.896-6.717l-1.509-9.283z" fill="#42434d"/><path d="m446.988 200.989v40c0 8.84-7.16 16-16 16h-382c-8.84 0-16-7.16-16-16v-40c0-8.84 7.16-16 16-16h382c8.84 0 16 7.16 16 16z" fill="#ff6d7a"/><path d="m431.072 204.989h-352.084c-8.837 0-16 7.163-16 16v22c0 7.732-6.268 14-14 14-8.837 0-16-7.163-16-16v-40c0-8.837 7.163-16 16-16h382c13.924 0 13.008 20 .084 20z" fill="#ff8c95"/><path d="m175.608 182.949c9.583 10.874 8.462 27.377-2.33 36.88-10.84 9.54-27.35 8.5-36.89-2.33l-124.309-141.13c-5.98-6.79-5.33-17.15 1.47-23.14l14.61-12.87c6.8-5.99 17.16-5.33 23.15 1.46z" fill="#cbe3fa"/><path d="m151.368 205.131c8.224 9.35-5.372 22.27-14.064 13.355-.729-.747 7.526 8.603-125.225-142.117-5.98-6.79-5.33-17.15 1.47-23.14l14.61-12.87c9.333-8.221 19.998 5.286 11.677 12.618-7.454 6.568-7.499 16.872-1.756 23.392z" fill="#eef7ff"/><path d="m466.428 53.229c6.8 5.99 7.45 16.35 1.47 23.14l-124.31 141.13c-9.54 10.83-26.05 11.87-36.89 2.33-10.801-9.511-11.905-26.016-2.33-36.88l124.3-141.13c5.99-6.79 16.35-7.45 23.15-1.46z" fill="#cbe3fa"/><path d="m451.819 40.359c4.081 3.596 4.444 9.824.81 13.871-9.885 11.012-37.197 42.456-121.261 137.719-5.225 5.922-7.256 13.496-6.302 20.7 1.091 8.239-7.661 14.208-14.744 9.859-13.86-8.511-16.666-27.404-5.954-39.559l124.3-141.13c5.99-6.79 16.351-7.451 23.151-1.46z" fill="#eef7ff"/><g fill="#42434d"><path d="m267.988 328.989v44c0 15.46-12.54 28-28 28s-28-12.54-28-28v-44c0-15.46 12.54-28 28-28 15.459 0 28 12.539 28 28z"/><path d="m168.988 328.989v50c0 12.15-9.85 22-22 22s-22-9.85-22-22v-50c0-12.15 9.85-22 22-22 12.16 0 22 9.839 22 22z"/><path d="m354.988 328.989v50c0 12.15-9.85 22-22 22s-22-9.85-22-22v-50c0-12.16 9.84-22 22-22 12.15 0 22 9.85 22 22z"/></g><g><path d="m471.717 47.224-14.612-12.871c-10.111-8.909-25.519-7.94-34.435 2.181l-123.718 140.455c-129.753 0-122.359-.194-124.16.384-5.096 1.637-7.205 7.775-4.104 12.2 5.763 8.248 3.988 18.36-2.703 24.254-7.505 6.609-18.986 5.881-25.595-1.622l-124.305-141.121c-3.061-3.475-2.724-8.792.751-11.853l14.612-12.871c3.499-3.081 8.795-2.719 11.853.751l103.44 117.434c2.92 3.315 7.976 3.636 11.291.715s3.636-7.976.715-11.292l-55.759-63.302v-30.677c0-8.822 7.178-16 16-16h150.344v63.422c0 6.051-6.451 9.909-11.783 7.049l-15.45-8.291c-2.361-1.268-5.203-1.268-7.564 0l-15.45 8.291c-5.332 2.86-11.783-.999-11.783-7.049v-33.906c0-4.418-3.582-8-8-8s-8 3.582-8 8v33.906c0 18.199 19.407 29.703 35.348 21.148l11.668-6.261 11.668 6.261c15.977 8.572 35.348-2.994 35.348-21.148v-63.422h71.656c4.273 0 8.291 1.665 11.314 4.687 3.126 3.124 8.191 3.123 11.313-.001 3.124-3.125 3.123-8.19-.001-11.313-6.045-6.044-14.081-9.372-22.627-9.372h-238c-17.645 0-32 14.355-32 32v12.514l-31.682-35.969c-8.91-10.115-24.317-11.095-34.435-2.182l-14.612 12.871c-10.095 8.892-11.073 24.339-2.182 34.435l83.97 95.329h-41.06c-13.233 0-24 10.766-24 24v40c0 13.234 10.767 24 24 24h364.982l-24.512 150.849c-1.897 11.676-11.86 20.151-23.689 20.151h-251.561c-11.829 0-21.792-8.475-23.689-20.15l-19.683-121.125c-.708-4.361-4.819-7.317-9.18-6.613-4.361.708-7.322 4.818-6.613 9.18l19.683 121.126c3.163 19.459 19.768 33.583 39.482 33.583h251.561c19.715 0 36.319-14.124 39.482-33.584l24.929-153.416c15.075 0 24.808-11.525 24.808-24v-40c0-13.234-10.767-24-24-24h-41.06l83.971-95.33c8.891-10.096 7.913-25.543-2.182-34.435zm-9.824 23.859c-102.111 115.944-96.253 108.984-97.008 110.718-1.873 4.31.378 9.351 4.877 10.799 1.717.554-2.61.389 61.226.389 4.411 0 8 3.589 8 8v40c0 4.411-3.589 8-8 8h-382c-4.411 0-8-3.589-8-8v-40c0-4.411 3.589-8 8-8h55.154l26.243 29.793c6.737 7.648 16.164 11.557 25.635 11.556 21.818 0 37.991-20.218 33.372-41.349h101.24c-2.516 11.698 1.185 24.389 10.784 32.845 14.123 12.439 35.735 11.072 48.177-3.052 2.921-3.315 2.601-8.371-.715-11.291s-8.371-2.601-11.291.715c-6.61 7.504-18.092 8.23-25.595 1.622-7.504-6.609-8.231-18.091-1.622-25.594l124.306-141.123c3.058-3.47 8.355-3.833 11.853-.751l14.612 12.871c3.474 3.061 3.812 8.378.752 11.852z"/><path d="m267.988 380.989c4.418 0 8-3.582 8-8v-44c0-19.851-16.149-36-36-36s-36 16.149-36 36v44c0 19.851 16.149 36 36 36 4.418 0 8-3.582 8-8s-3.582-8-8-8c-11.028 0-20-8.972-20-20v-44c0-11.028 8.972-20 20-20s20 8.972 20 20v44c0 4.418 3.582 8 8 8z"/><path d="m124.988 320.989c-4.418 0-8 3.582-8 8v50c0 16.542 13.458 30 30 30s30-13.458 30-30v-50c0-16.542-13.458-30-30-30-4.418 0-8 3.582-8 8s3.582 8 8 8c7.72 0 14 6.28 14 14v50c0 7.72-6.28 14-14 14s-14-6.28-14-14v-50c0-4.419-3.582-8-8-8z"/><path d="m332.988 314.989c4.418 0 8-3.582 8-8s-3.582-8-8-8c-16.542 0-30 13.458-30 30v50c0 16.542 13.458 30 30 30s30-13.458 30-30v-50c0-4.418-3.582-8-8-8s-8 3.582-8 8v50c0 7.72-6.28 14-14 14s-14-6.28-14-14v-50c0-7.72 6.281-14 14-14z"/></g></svg>