<svg id="Layer_1" enable-background="new 0 0 480 480" height="512" viewBox="0 0 480 480" width="512" xmlns="http://www.w3.org/2000/svg"><path d="m357.59 367.62c-.093 0-44.611-15.302-47.69-16.68l-7.509-13.84c-2.32-4.28-7.882-5.511-11.792-2.611l-.894.664c-7.32-9.343-11.705-21.188-11.705-33.583 12.93-5.38 24.47-13.42 33.93-23.43.425 0 11 7.86 28.07 7.86 29.82 0 54-24.18 54-54 0-21.21-12.23-39.57-30.03-48.4.039-.736.03-70.557.03-71.6 0-57.438-46.562-104-104-104h-40c-57.438 0-104 46.562-104 104v70.46c0 13.244 10.715 24.54 25 24.54v3.13c0 41.21 25.18 76.54 61 91.44 0 12.459-4.118 24.365-11.506 33.731l-1.093-.812c-3.91-2.9-9.472-1.669-11.792 2.611l-7.509 13.84c-5.293 2.386-47.374 16.355-47.71 16.69-21.78 7.55-36.39 28.08-36.39 51.14v45.23c0 4.42 3.58 8 8 8h292c4.42 0 8-3.58 8-8v-45.23c0-23.07-14.62-43.6-36.41-51.15z" fill="#ffebd2"/><path d="m273.577 319.257c-21.906 7.853-45.22 7.863-67.153 0-3.613-1.295-5.786-5.009-5.156-8.795.483-2.907.732-5.879.732-8.892 23.599 9.822 51.154 10.341 76 0 0 3.013.249 5.985.733 8.892.629 3.786-1.543 7.5-5.156 8.795z" fill="#ffd9ad"/><path d="m243.84 285.695c13.278 3.773 10.756 23.323-3.046 23.432-54.892.432-99.794-43.917-99.794-98.997v-57.19c0-4.69 4.019-8.39 8.689-7.97 3.079.279 6.406.513 9.951.667 6.362.276 11.36 5.553 11.36 11.92v32.572c0 47.857 32.795 84.187 72.84 95.566z" fill="#fff3e4"/><path d="m363.97 183.6c.039-.736.03-70.604.03-71.6 0-57.438-46.562-104-104-104h-40c-57.438 0-104 46.562-104 104v70.46c0 13.244 10.715 24.54 25 24.54v-54.06c0-4.689 4.018-8.394 8.689-7.97 48.892 4.438 97.213-8.234 137.519-36.278 3.92-2.728 9.363-1.491 11.617 2.719 8.049 15.033 20.474 25.444 34.955 30.873 3.135 1.175 5.221 4.152 5.221 7.499v60.346c0 26.34-10.28 50.27-27.06 68.01 35.572 21.7 82.059-3.782 82.059-46.139 0-21.21-12.23-39.57-30.03-48.4z" fill="#585966"/><path d="m371.369 260.047c5.962-3.47 12.127 4.341 7.352 9.32-17.743 18.504-45.703 21.789-67.041 8.773 4.32-4.57 8.22-9.56 11.61-14.89 16.071 6.744 33.845 5.083 48.079-3.203z" fill="#6e6f80"/><path d="m283.404 10.644c9.427 2.168 7.534 16.143-2.132 15.78-60.247-2.265-135.272 24.473-135.272 105.576v9.331c0 2.192-.9 4.288-2.493 5.794-1.538 1.453-2.507 3.514-2.507 5.816v54.059c-14.261 0-25-11.27-25-24.54v-70.46c0-57.438 46.562-104 104-104 40.847 0 48.484-.787 63.404 2.644z" fill="#6e6f80"/><path d="m376.229 199.528c-4.37 9.4-12.208 16.787-21.659 20.572-1.882 21.957-9.986 42.749-23.425 60.159-2.086 2.703-5.651 3.875-8.877 2.757-3.635-1.26-7.091-2.9-10.328-4.876 17.16-18.14 27.06-42.232 27.06-68.01v-3.13c14.317 0 24.397-10.903 24.97-23.4 3.561 1.771 6.901 3.918 9.963 6.394 2.837 2.295 3.835 6.226 2.296 9.534z" fill="#42434d"/><path d="m394 418.77v45.23c0 4.42-3.58 8-8 8h-292c-4.42 0-8-3.58-8-8v-45.23c0-23.06 14.61-43.59 36.39-51.14.364-.363 42.397-14.295 47.71-16.69l7.509-13.84c2.32-4.28 7.882-5.511 11.792-2.611l50.599 37.511 50.599-37.51c3.91-2.9 9.472-1.669 11.792 2.611l7.509 13.84c2.99 1.338 47.607 16.68 47.69 16.68 21.79 7.549 36.41 28.079 36.41 51.149z" fill="#ffa4b8"/><path d="m180.567 367.525c2.758 4.369.713 10.167-4.176 11.839-11.552 3.951-23.821 8.087-24.001 8.266-21.78 7.55-36.39 28.08-36.39 51.14v25.23c0 4.418-3.582 8-8 8h-14c-4.418 0-8-3.582-8-8v-45.23c0-23.06 14.61-43.59 36.39-51.14.332-.332 42.5-14.342 47.71-16.69z" fill="#ffbfcb"/><path d="m240 372-24.968 30.429c-3.462 4.219-10.038 3.808-12.95-.807l-31.982-50.682 7.509-13.84c2.32-4.277 7.883-5.508 11.792-2.611z" fill="#ffbfcb"/><path d="m215.757 392.972c1.764 2.992 1.477 6.771-.726 9.457-3.46 4.22-10.03 3.812-12.95-.807l-31.981-50.682 7.509-13.84c2.32-4.28 7.882-5.511 11.792-2.611l2.574 1.907c2.739 2.029 4.072 5.526 3.173 8.814-4.531 16.553 9.747 29.337 20.609 47.762z" fill="#ffd9e0"/><path d="m302.391 337.1 7.509 13.84-31.981 50.682c-2.912 4.615-9.489 5.026-12.95.808l-24.969-30.43 50.599-37.51c3.909-2.898 9.472-1.667 11.792 2.61z" fill="#ffbfcb"/><path d="m277.79 396.856c3.851 5.523-7.06 12.6-12.822 5.573l-24.968-30.429 50.599-37.51c3.91-2.9 9.472-1.669 11.792 2.611 2.882 5.316 1.26 11.959-3.76 15.33-13.242 8.891-34.704 24.541-20.841 44.425z" fill="#ffd9e0"/><path d="m344 464v8h-208v-8c0-13.25 10.75-24 24-24h160c13.25 0 24 10.75 24 24z" fill="#585966"/><path d="m321.203 440.03c8.976.444 8.47 13.97-.517 13.97h-132.686c-9.624 0-17.922 5.669-21.748 13.849-1.171 2.502-3.625 4.151-6.388 4.151h-23.864v-8c0-13.255 10.745-24 24-24 0 0 160.804.01 161.203.03z" fill="#6e6f80"/><g><path d="m360.212 360.058c-4.385-1.516-44.167-15.249-44.629-15.427l-10.552-19.446c-2.329-4.294-7.908-5.492-11.796-2.611l-1.558 1.155c-2.89-5.292-4.724-11.127-5.389-17.126 35.861-17.188 59.156-52.634 60.625-92.474 9.771-2.3 17.854-9.01 22.025-17.911 28.141 22.65 20.225 68.246-14.771 79.562-4.204 1.359-6.51 5.869-5.151 10.073 1.355 4.192 5.858 6.515 10.073 5.151 25.666-8.299 42.911-32.011 42.911-59.004 0-22.01-11.376-41.922-30-53.111v-66.889c0-61.757-50.243-112-112-112h-40c-61.757 0-112 50.243-112 112v68.742c0 4.418 3.582 8 8 8s8-3.582 8-8v-68.742c0-52.935 43.065-96 96-96h40c52.935 0 96 43.065 96 96v70.46c0 6.403-3.664 11.956-9 14.704v-53.164c0-3.577-2.374-6.719-5.814-7.696-18.158-5.156-31.973-18.337-38.703-36.134-1.895-5.01-8.095-6.779-12.35-3.52-42.97 32.935-95.985 46.331-148.082 39.419-4.784-.633-9.051 3.09-9.051 7.931v67.353c.643 57.366 46.456 104.065 103.85 105.727 4.362.135 8.099-3.305 8.228-7.765.128-4.417-3.349-8.1-7.765-8.228-49.521-1.434-88.313-41.389-88.313-90.962v-57.188c49.092 4.415 99.666-7.649 142.797-37.689 8.79 16.418 22.623 28.336 39.203 34.539v60.338c0 36.892-22.016 69.875-56.074 84.059-2.948 1.228-4.926 4.121-4.926 7.388 0 11.17 3.069 22.184 8.74 31.749l-38.74 28.72-53.235-39.468c-3.901-2.892-9.475-1.668-11.796 2.611l-10.552 19.446c-1.436.552 3.03-1.051-44.629 15.427-25.006 8.646-41.788 32.25-41.788 58.716v53.227c0 4.418 3.582 8 8 8s8-3.582 8-8v-53.227c0-19.678 12.499-37.209 31.103-43.624l2.897-.999v97.85c0 4.418 3.582 8 8 8s8-3.582 8-8v-103.366l22.835-7.874 34.399 54.51c2.363 3.744 7.304 4.849 11.035 2.496 3.736-2.358 4.854-7.299 2.496-11.035l-35.402-56.098 5.273-9.718 47.364 35.113v31.94c0 4.418 3.582 8 8 8s8-3.582 8-8v-13.606l17.815 21.713c3.464 4.222 10.045 3.798 12.95-.805l17.683-28.021c2.358-3.736 1.24-8.677-2.496-11.035-3.738-2.358-8.677-1.24-11.035 2.496l-11.766 18.644-19.637-23.932 43.848-32.508c7.726 14.238 7.56 14.004 8.047 14.684 2.105 2.942 3.108 2.87 32.59 13.036v67.671c-4.711-2.732-10.173-4.305-16-4.305h-149.903c-4.418 0-8 3.582-8 8s3.582 8 8 8h149.904c8.822 0 16 7.178 16 16v8c0 4.418 3.582 8 8 8s8-3.582 8-8v-97.85l2.897.999c18.604 6.415 31.103 23.946 31.103 43.624v53.227c0 4.418 3.582 8 8 8s8-3.582 8-8v-53.227c0-26.466-16.782-50.069-41.788-58.715z"/><path d="m223 199v-14c0-4.418-3.582-8-8-8s-8 3.582-8 8v14c0 4.418 3.582 8 8 8s8-3.582 8-8z"/><path d="m265 207c4.418 0 8-3.582 8-8v-14c0-4.418-3.582-8-8-8s-8 3.582-8 8v14c0 4.418 3.582 8 8 8z"/><path d="m263.636 249.678c3.125-3.124 3.125-8.189 0-11.313-3.124-3.124-8.189-3.124-11.313 0-6.795 6.794-17.85 6.794-24.645 0-3.124-3.124-8.189-3.124-11.313 0-3.125 3.124-3.125 8.189 0 11.313 13.063 13.063 34.206 13.064 47.271 0z"/></g></svg>