<svg id="Layer_1" enable-background="new 0 0 479.99 479.99" height="512" viewBox="0 0 479.99 479.99" width="512" xmlns="http://www.w3.org/2000/svg"><path d="m343.342 168.151c28.258-10.274 22.531-57.22-11.28-56.51 19.09-41.94 34.64-84.44-7.28-87.29-15.82-1.07-31 21.33-57.73-3.81-17.703-16.661-45.276-16.776-63.12 0-26.72 25.14-41.9 2.74-57.73 3.81-41.75 2.83-26.49 45.01-7.5 86.79v.01c-35.08-1.8-41.18 47.57-10.96 56.9-390.291 405.44 605.534 404.993 215.6.1z" fill="#ffd9ad"/><path d="m230.162 7.653c17.387-1.628 27.57 19.915 13.77 32.889-26.72 25.14-41.9 2.74-57.73 3.81-26.79 1.815-30.107 19.83-24.024 43.544 3.204 12.494-6.632 24.473-19.495 23.532-1.015-.074-3.67-.267-3.98-.277v-.01c-18.99-41.78-34.25-83.96 7.5-86.79 15.83-1.07 31.01 21.33 57.73-3.81 8.968-8.431 17.871-12.106 26.229-12.888z" fill="#ffebd2"/><path d="m180.942 467.53c-128.56-21.563-224.659-121.368-53.2-299.478 2.24.69 4.68 1.17 7.33 1.38 10.042.808 20.593 1.502 31.562 2.071 6.711.348 10.018 8.314 5.541 13.325-126.136 141.195-79.288 230.308 13.014 267.367 8.896 3.571 5.208 16.921-4.247 15.335z" fill="#ffebd2"/><path d="m433.006 159.112c-2.791-3.361-2.279-8.342 1.048-11.173 1.8-1.532 3.823-3.441 5.828-5.688 13.99-15.7-4.78-39.19-23.09-28.85-17.56 9.92-37.08 15.57-57.36 16.5-4.27-11.611-14.634-19.134-29.17-18.18-59.553 4.12-130.78 4.02-190.61-.52-39.082-2.445-42.756 55.205-4.58 58.23 61.886 4.975 136.982 5.138 199.29.59 3.31-.24 6.3-.89 8.98-1.87 8.35 8.67 16.06 17.16 23.16 25.47 19.96 3.72 40.16 3.78 59.77-.35 14.44-3.04 19.54-20.69 9.29-31.3-.882-.917-1.734-1.87-2.556-2.859z" fill="#ff6d7a"/><path d="m168.702 131.151c-19.703-1.007-30.261 14.119-30.375 29.229-.041 5.392-5.301 9.278-10.461 7.709-30.22-9.189-24.758-59.175 11.786-56.888 105.41 7.999 188.113.03 195.395.503 11.679.759 10.97 18.285-.733 18.362-51.768.34-165.534 1.088-165.612 1.085z" fill="#ff8c95"/><path d="m427.803 110.947c12.976 1.335 10.868 21.234-2.117 19.987-3.467-.333-7.19.374-10.893 2.467-16.75 9.46-35.28 15.04-54.56 16.34 1.82-6.45 1.52-13.54-.8-19.84 20.28-.93 39.8-6.58 57.36-16.5 3.745-2.114 7.51-2.814 11.01-2.454z" fill="#ff8c95"/><path d="m369.311 194.12c-.936-.158-1.872-.324-2.808-.499-7.417-8.677-15.197-17.207-23.16-25.47 15.645-5.682 21.588-23.343 16.09-38.25 2.961-.135 5.907-.373 8.832-.71 4.465-.515 8.489 2.7 8.93 7.173 1.202 12.206-2.262 24.549-9.972 33.888 3.181 3.502 6.361 7.087 9.509 10.731 4.93 5.705.015 14.393-7.421 13.137z" fill="#fe4f60"/><g><path d="m439.21 154.056c2.117-1.801 4.414-3.984 6.643-6.483 8.862-9.944 9.183-24.169.778-34.593-8.354-10.365-22.244-13.054-33.776-6.54-15.097 8.527-31.409 13.591-48.553 15.109-6.136-10.754-17.811-18.97-34.594-17.809-59.963 4.147-128.941 3.861-185.686-.243-8.38-18.62-21.908-50.69-14.133-63.71.971-1.626 3.925-6.574 16.859-7.451 11.531-.765 32.608 22.31 62.67-5.967 14.689-13.819 37.449-13.838 52.157 0 30.054 28.272 51.149 5.2 62.671 5.967 8.427.572 13.85 2.862 16.578 7.004 4.373 6.637 3.196 19.663-3.497 38.717-1.465 4.168.728 8.735 4.896 10.199s8.735-.727 10.199-4.896c5.459-15.539 11.581-37.921 1.762-52.824-5.587-8.479-15.296-13.244-28.856-14.163-6.775-.461-12.757 1.941-18.546 4.263-10.95 4.391-19.597 7.858-34.244-5.921-20.841-19.607-53.213-19.634-74.083 0-14.648 13.78-23.295 10.311-34.244 5.921-5.789-2.322-11.78-4.72-18.546-4.263-14.129.958-24.059 6.076-29.514 15.211-10.463 17.523-1.376 44.924 10.754 72.75-36.938 9.637-36.136 69.547 7.527 73.068 53.58 4.322 114.749 4.88 167.458 2.525 4.414-.197 7.832-3.936 7.635-8.35-.198-4.413-3.903-7.842-8.35-7.635-53.266 2.381-113.633 1.69-165.458-2.489-14.49-1.168-20.147-12.27-19.326-22.753.824-10.513 8.142-20.633 22.65-19.524 58.333 4.437 129.902 4.806 191.768.527 17.023-1.176 21.188 12.142 22.061 16.251 2.106 9.935-1.69 20.679-12.311 24.703-4.36 1.61-6.5 6.704-4.403 11.013 2.9 5.912 75.678 72.292 89.282 145.013 35.76 191.152-393.345 196.243-381.942 15.443 2.395-37.97 23.528-81.126 62.813-128.269 2.828-3.395 2.37-8.439-1.024-11.268-3.396-2.828-8.44-2.37-11.268 1.024-41.506 49.809-63.876 96.072-66.489 137.505-10.242 162.397 283.108 191.982 383.06 88.503 34.14-35.346 71.628-114.349-54.452-249.588 10.117-8.154 14.169-21.106 13.068-32.899 18.15-2.07 35.443-7.682 51.52-16.762 5.731-3.237 10.707-.754 13.451 2.649 2.784 3.454 4.176 8.921-.268 13.906-4.274 4.796-8.464 7.664-9.35 8.133-4.292 2.273-5.601 7.342-3.295 11.231 2.421 4.084 5.298 7.862 8.549 11.231 5.929 6.143 3.039 16.191-5.191 17.922-3.274.689-6.624 1.265-9.954 1.71-4.38.586-7.455 4.611-6.869 8.99.591 4.413 4.648 7.452 8.99 6.868 3.723-.498 7.467-1.141 11.128-1.912 20.843-4.386 27.835-29.747 13.408-44.692-.731-.754-1.436-1.539-2.113-2.352z"/><path d="m280.339 257.262c-3.719-2.391-8.667-1.313-11.056 2.403l-72 112c-3.453 5.372.493 12.327 6.722 12.327 2.631 0 5.208-1.297 6.737-3.675l72-112c2.389-3.716 1.313-8.666-2.403-11.055z"/><path d="m253.012 353.991c0 14.888 12.112 27 27 27s27-12.112 27-27-12.112-27-27-27-27 12.113-27 27zm38 0c0 6.065-4.935 11-11 11s-11-4.935-11-11 4.935-11 11-11 11 4.935 11 11z"/><path d="m200.012 258.991c-14.888 0-27 12.112-27 27s12.112 27 27 27 27-12.112 27-27-12.112-27-27-27zm0 38c-6.065 0-11-4.935-11-11s4.935-11 11-11 11 4.935 11 11-4.934 11-11 11z"/></g></svg>