<svg id="Layer_1" enable-background="new 0 0 481 481" height="512" viewBox="0 0 481 481" width="512" xmlns="http://www.w3.org/2000/svg"><path d="m448 314h-4.2l24.99-203.05c1.17-9.54-6.27-17.95-15.88-17.95h-326.28l-7.77-58.12c-1.06-7.95-7.84-13.88-15.86-13.88h-78c-8.84 0-16 7.16-16 16v16c0 8.84 7.16 16 16 16h49.99l33.6 251.36c3.19 23.84 23.52 41.64 47.58 41.64h291.83c13.253 0 24-10.759 24-24 0-13.25-10.75-24-24-24z" fill="#cbe3fa"/><path d="m157.256 357.064c2.534 1.131 1.689 4.936-1.086 4.936-24.06 0-44.39-17.8-47.58-41.64l-33.6-251.36h12.998c4.009 0 7.398 2.967 7.929 6.94l32.672 244.42c2.297 17.156 13.645 29.997 28.667 36.704z" fill="#eef7ff"/><path d="m463.718 319.866c5.702 4.948 1.988 14.183-5.562 14.134-.052 0-270.987 0-270.987 0-7.293 0-12.398-2.436-15.971-5.779-5.529-5.172-1.76-14.272 5.811-14.222.054.001 270.991.001 270.991.001 6.011 0 11.507 2.212 15.718 5.866z" fill="#eef7ff"/><path d="m118.86 34.88 4.56 34.12h-98.42c-8.84 0-16-7.16-16-16v-16c0-8.84 7.16-16 16-16h78c8.02 0 14.8 5.93 15.86 13.88z" fill="#ff6d7a"/><path d="m113.505 41h-61.505c-8.837 0-16 7.163-16 16v1c0 6.075-4.925 11-11 11-8.837 0-16-7.163-16-16v-16c0-8.837 7.163-16 16-16h78c8.02 0 14.797 5.93 15.86 13.88.433 3.237-2.083 6.12-5.355 6.12z" fill="#ff8c95"/><path d="m425 40h-92c-8.84 0-16 7.16-16 16v-32c0-8.84-7.16-16-16-16h-116c-8.84 0-16 7.16-16 16v103h272v-71c0-8.84-7.16-16-16-16z" fill="#c79a83"/><path d="m301.084 28h-86.084c-8.837 0-16 7.163-16 16v83h-30v-103c0-8.837 7.163-16 16-16h116c13.923 0 13.007 20 .084 20z" fill="#e0b7a3"/><path d="m441 56v71h-124v-71c0-8.84 7.16-16 16-16h92c8.84 0 16 7.16 16 16z" fill="#befa91"/><path d="m317 127v-71c0-8.837 7.163-16 16-16h89c13.923 0 13.007 20 .084 20h-59.084c-8.837 0-16 7.163-16 16v51z" fill="#daffbf"/><path d="m452.91 93h-326.28l26.75 200.18c1.6 11.92 11.77 20.82 23.79 20.82h266.63l24.99-203.05c1.17-9.54-6.27-17.95-15.88-17.95z" fill="#80aaff"/><path d="m468.79 110.95-1.18 9.604c-.896 7.291-7.203 12.515-14.548 12.447-.05 0-308.663-.001-308.663-.001-7.11 0-13.122-5.262-14.065-12.309l-3.704-27.691h326.28c9.61 0 17.05 8.41 15.88 17.95z" fill="#9cbcff"/><g fill="#719efa"><path d="m411 179v48c0 12.15-9.85 22-22 22s-22-9.85-22-22v-48c0-12.15 9.85-22 22-22 12.16 0 22 9.84 22 22z"/><path d="m320 160v86c0 12.15-9.85 22-22 22s-22-9.85-22-22v-86c0-12.15 9.85-22 22-22 12.16 0 22 9.84 22 22z"/><path d="m229 179v48c0 12.15-9.85 22-22 22s-22-9.85-22-22v-48c0-12.16 9.84-22 22-22 12.15 0 22 9.85 22 22z"/></g><circle cx="219" cy="410.5" fill="#42434d" r="62.5"/><path d="m179.789 440.561c2.476 7.311-7.373 12.312-11.833 6.012-7.15-10.099-11.379-22.412-11.454-35.709-.191-33.543 26.675-61.888 60.711-62.839 7.767-.217 9.588 10.651 2.214 13.103-33.296 11.067-50.681 46.827-39.638 79.433z" fill="#585966"/><circle cx="219" cy="410" fill="#585966" r="24"/><path d="m222.173 399.32c-6.167 4.446-10.03 11.771-10.183 19.421-.145 7.276-9.641 10.002-13.452 3.802-9.344-15.2.778-34.953 18.359-36.453 8.434-.72 11.161 8.988 5.276 13.23z" fill="#6e6f80"/><circle cx="407" cy="410.5" fill="#42434d" r="62.5"/><path d="m367.789 440.561c2.476 7.311-7.373 12.312-11.833 6.012-7.15-10.099-11.379-22.412-11.454-35.709-.191-33.543 26.675-61.888 60.711-62.839 7.767-.217 9.588 10.651 2.214 13.103-33.296 11.067-50.681 46.827-39.638 79.433z" fill="#585966"/><circle cx="407" cy="410" fill="#585966" r="24"/><path d="m410.173 399.32c-6.167 4.446-10.03 11.771-10.183 19.421-.145 7.276-9.641 10.002-13.452 3.802-9.344-15.2.778-34.953 18.359-36.453 8.434-.72 11.161 8.988 5.276 13.23z" fill="#6e6f80"/><g><path d="m448 306h-270.827c-7.983 0-14.802-5.967-15.859-13.88l-25.544-191.12h317.14c4.765 0 8.533 4.157 7.939 8.978l-19.698 160.06c-.539 4.385 2.578 8.377 6.963 8.917 4.385.542 8.378-2.579 8.918-6.963l19.698-160.059c1.756-14.255-9.359-26.933-23.82-26.933h-3.91v-29c0-13.234-10.767-24-24-24h-75.129c-4.418 0-8 3.582-8 8s3.582 8 8 8h75.129c4.411 0 8 3.589 8 8v29h-108v-61c0-13.234-10.767-24-24-24h-116c-13.233 0-24 10.766-24 24v31.193c0 4.418 3.582 8 8 8s8-3.582 8-8v-31.193c0-4.411 3.589-8 8-8h116c4.411 0 8 3.589 8 8v61h-175.369l-6.84-51.18c-1.587-11.869-11.814-20.82-23.789-20.82h-78.002c-13.233 0-24 10.767-24 24v16c0 13.233 10.767 24 24 24h67.322c4.418 0 8-3.582 8-8s-3.582-8-8-8h-67.322c-4.411 0-8-3.589-8-8v-16c0-4.411 3.589-8 8-8h78.002c3.992 0 7.401 2.984 7.93 6.94l34.522 258.3c2.116 15.826 15.752 27.76 31.719 27.76h270.827c8.822 0 16 7.178 16 16 0 4.418 3.582 8 8 8s8-3.582 8-8c0-17.645-14.355-32-32-32z"/><path d="m276 152c-4.418 0-8 3.582-8 8v86c0 16.542 13.458 30 30 30s30-13.458 30-30v-86c0-16.542-13.458-30-30-30-4.418 0-8 3.582-8 8s3.582 8 8 8c7.72 0 14 6.28 14 14v86c0 7.72-6.28 14-14 14s-14-6.28-14-14v-86c0-4.418-3.582-8-8-8z"/><path d="m411 235c4.418 0 8-3.582 8-8v-48c0-16.542-13.458-30-30-30s-30 13.458-30 30v48c0 16.542 13.458 30 30 30 4.418 0 8-3.582 8-8s-3.582-8-8-8c-7.72 0-14-6.28-14-14v-48c0-7.72 6.28-14 14-14s14 6.28 14 14v48c0 4.418 3.582 8 8 8z"/><path d="m207 241c-4.418 0-8 3.582-8 8s3.582 8 8 8c16.542 0 30-13.458 30-30v-48c0-16.542-13.458-30-30-30s-30 13.458-30 30v48c0 4.418 3.582 8 8 8s8-3.582 8-8v-48c0-7.72 6.28-14 14-14s14 6.28 14 14v48c0 7.72-6.28 14-14 14z"/><path d="m406.5 340c-4.418 0-8 3.582-8 8s3.582 8 8 8c30.052 0 54.5 24.449 54.5 54.5s-24.448 54.5-54.5 54.5-54.5-24.449-54.5-54.5c0-16.47 7.608-31.56 20.126-42.295 6.23-5.343 1.943-14.19-5.024-14.203-116.394-.221-109.907-.264-112.096.774-1.11.522-2.051 1.321-2.771 2.157-.983 1.141-1.854 3.432-1.811 5.088.065 2.495 1.035 4.543 2.949 6.185 12.519 10.734 20.127 25.824 20.127 42.294 0 30.051-24.448 54.5-54.5 54.5s-54.5-24.449-54.5-54.5 24.448-54.5 54.5-54.5c4.418 0 8-3.582 8-8s-3.582-8-8-8c-15.778 0-30.361 5.21-42.121 14h-20.712c-19.959 0-37.003-14.918-39.647-34.701l-28.369-212.249c-.586-4.379-4.607-7.453-8.989-6.87-4.38.585-7.455 4.61-6.87 8.99l28.368 212.249c.624 4.664 1.831 9.129 3.521 13.339-23.16 40.559 2.526 91.277 47.8 97.586 9.218 28.211 35.769 48.656 67.019 48.656 31.007 0 57.383-20.129 66.797-48h26.953c4.418 0 8-3.582 8-8s-3.582-8-8-8h-23.562c1.568-17.064-3.023-33.575-12.466-47h72.055c-8.248 11.727-12.777 25.787-12.777 40.5 0 38.874 31.626 70.5 70.5 70.5s70.5-31.626 70.5-70.5-31.626-70.5-70.5-70.5zm-292.221 11.078c10.342 11.649 25.403 18.922 41.888 18.922h5.18c-8.992 12.762-13.826 28.496-12.656 45.411-27.751-7.141-43.891-37.116-34.412-64.333z"/><path d="m219 394c8.822 0 16 7.178 16 16 0 4.418 3.582 8 8 8s8-3.582 8-8c0-17.645-14.355-32-32-32s-32 14.355-32 32 14.355 32 32 32c4.418 0 8-3.582 8-8s-3.582-8-8-8c-8.822 0-16-7.178-16-16s7.178-16 16-16z"/><path d="m407 426c-8.822 0-16-7.178-16-16 0-4.418-3.582-8-8-8s-8 3.582-8 8c0 17.645 14.355 32 32 32s32-14.355 32-32-14.355-32-32-32c-4.418 0-8 3.582-8 8s3.582 8 8 8c8.822 0 16 7.178 16 16s-7.178 16-16 16z"/></g></svg>