<svg id="Layer_1" enable-background="new 0 0 480.045 480.045" height="512" viewBox="0 0 480.045 480.045" width="512" xmlns="http://www.w3.org/2000/svg"><path d="m451.673 436.995-37.86-295.98c-1.02-7.99-7.82-13.97-15.87-13.97h-325.38c-8.24 0-15.14 6.27-15.92 14.48l-28.27 295.47c-1.8 18.79 12.98 35.05 31.86 35.05h359.58c18.88 0 33.66-16.26 31.86-35.05z" fill="#e0b7a3"/><path d="m329.813 472.045h-269.58c-18.88 0-33.66-16.26-31.86-35.05l4.559-47.624c.79-8.249 7.744-14.586 16.03-14.485 108.265 1.323 205.526-44.523 265.981-130.166 8.592-12.171 27.643-7.22 29.062 7.611l17.668 184.663c1.8 18.791-12.98 35.051-31.86 35.051z" fill="#c79a83"/><path d="m451.673 436.995c1.8 18.79-12.98 35.05-31.86 35.05h-90c18.88 0 33.66-16.26 31.86-35.05l-28.27-295.47c-.78-8.21-7.68-14.48-15.92-14.48h80.46c8.05 0 14.85 5.98 15.87 13.97z" fill="#a07765"/><g><path d="m154.697 382.775c3.715 2.389 8.666 1.314 11.056-2.403l72-112c2.389-3.717 1.313-8.667-2.403-11.056-3.719-2.391-8.667-1.313-11.056 2.403l-72 112c-2.389 3.717-1.314 8.667 2.403 11.056z"/><path d="m235.023 381.045c14.888 0 27-12.112 27-27s-12.112-27-27-27-27 12.112-27 27 12.112 27 27 27zm0-38c6.065 0 11 4.935 11 11s-4.935 11-11 11-11-4.935-11-11 4.934-11 11-11z"/><path d="m182.023 286.045c0-14.888-12.112-27-27-27s-27 12.112-27 27 12.112 27 27 27 27-12.112 27-27zm-38 0c0-6.065 4.935-11 11-11s11 4.935 11 11-4.935 11-11 11-11-4.934-11-11z"/><path d="m459.634 436.237c-.017-.18 1.176 9.133-37.889-296.237-1.528-11.946-11.763-20.955-23.807-20.955h-16.916v-35c0-54.094-50.854-94.608-104.027-81.596-4.292 1.05-6.92 5.38-5.869 9.672 1.05 4.292 5.377 6.92 9.672 5.869 43.056-10.533 84.225 22.259 84.225 66.055v35c-4.883 0-8.204 3.772-8.204 8 0 4.418 3.582 8 8 8h33.12c4.015 0 7.427 3.003 7.936 6.985l37.844 295.85c1.277 14.062-9.761 26.166-23.902 26.166h-359.587c-14.062 0-25.252-12.066-23.891-26.285l28.263-295.477c.395-4.126 3.818-7.238 7.964-7.238h38.457v47c0 4.418 3.582 8 8 8s8-3.582 8-8v-47h136v47c0 4.418 3.582 8 8 8s8-3.582 8-8v-47h38.457c4.146 0 7.569 3.112 7.964 7.238l28.263 295.477c.421 4.399 4.335 7.622 8.726 7.202 4.398-.421 7.623-4.327 7.202-8.726l-28.264-295.477c-1.185-12.379-11.455-21.715-23.892-21.715h-38.457v-35c0-46.318-37.683-84-84-84s-84 37.682-84 84v35h-38.456c-12.437 0-22.707 9.335-23.892 21.715l-28.263 295.477c-2.246 23.472 16.246 43.809 39.818 43.809h359.586c23.58-.001 42.064-20.344 39.819-43.809zm-332.611-352.192c0-37.495 30.505-68 68-68s68 30.505 68 68v35h-34v-35c0-9.445 1.896-18.582 5.638-27.158 1.767-4.05-.085-8.765-4.135-10.532-4.047-1.766-8.765.084-10.531 4.134-4.626 10.606-6.972 21.896-6.972 33.555v35h-86z"/><path d="m403.013 399.046c4.795 0 8.496-4.167 7.959-8.904l-23.438-206.257c-.5-4.39-4.464-7.552-8.853-7.045-4.39.499-7.544 4.462-7.046 8.852l23.438 206.257c.465 4.083 3.926 7.097 7.94 7.097z"/></g></svg>