<svg id="Layer_1" enable-background="new 0 0 479.99 479.99" height="512" viewBox="0 0 479.99 479.99" width="512" xmlns="http://www.w3.org/2000/svg"><circle cx="328.828" cy="132.5" fill="#ffe773" r="102.5"/><path d="m351.58 32.535c10.309 2.337 8.556 17.475-2.014 17.463-54.042-.058-103.641 42.276-103.236 103.197.07 10.603-15.12 12.407-17.465 2.067-16.626-73.308 49.226-139.387 122.715-122.727z" fill="#fff0a6"/><circle cx="328.828" cy="132.5" fill="#fff0a6" r="59.5"/><path d="m347.107 75.861c8.189 2.641 6.557 14.741-2.036 15.183-29.749 1.529-56.743 25.544-56.743 59.456 0 9.487-12.039 11.228-15.089 3.259-14.774-38.602 13.734-80.008 54.483-80.748 6.773-.124 13.293.885 19.385 2.85z" fill="#fff8d6"/><path d="m302.521 185.878c-2.564-1.267-5.024-2.715-7.363-4.328 19.965-31.966 22.049-70.616 8.72-103.07 2.576-1.197 5.254-2.212 8.014-3.031 4.117-1.22 8.464 1.091 9.821 5.165 10.881 32.656 8.58 69.66-8.624 101.809-2.031 3.796-6.708 5.362-10.568 3.455z" fill="#fada86"/><path d="m310.513 75.877c-2.275.736-4.49 1.607-6.635 2.603-5.55-13.58-13.67-25.85-23.76-36.19 3.227-1.747 6.556-3.324 9.977-4.72 3.292-1.344 7.057-.343 9.298 2.418 6.163 7.592 11.491 15.896 15.831 24.767 2.138 4.368-.084 9.625-4.711 11.122z" fill="#facf5f"/><circle cx="198.828" cy="121.5" fill="#ffe773" r="113.5"/><path d="m102.414 181.411c-10.829-17.389-17.086-37.921-17.086-59.911 0-63 53.295-115.234 116.742-113.455 8.935.251 9.821 13.121 1.017 14.671-67.097 11.811-110.808 88.243-87.45 152.285 3.048 8.355-8.522 13.958-13.223 6.41z" fill="#fff0a6"/><circle cx="198.828" cy="121.5" fill="#fff0a6" r="73.5"/><path d="m132.758 153.739c-23.321-47.699 10.764-104.177 63.901-105.708 11.536-.332 14.486 15.715 3.64 19.656-32.082 11.657-52.842 46.392-48.435 80.249 1.48 11.373-14.068 16.106-19.106 5.803z" fill="#fff8d6"/><path d="m416.778 242.663c19.06-2.9 33.45-28.573 15.01-46.633-26.75-26.19-80.39-70.02-163.46-77.06v-11.97c0-13.25-10.75-24-24-24-13.253 0-24 10.759-24 24v12.14c-83.6 7.65-137.15 52.32-163.69 78.9-15.27 15.29-7.45 35.71 6.72 43.51-155.24 306.97 506.4 307.183 353.42 1.113z" fill="#80aaff"/><path d="m290.944 467.741c-140.012 23.727-315.857-51.643-227.586-226.191 6.227 3.431 11.603 4.031 16.529 2.822 6.102-1.497 11.407 4.414 9.389 10.363-45.858 135.147 79.428 200.831 200.056 197.115 10.016-.309 11.492 14.217 1.612 15.891z" fill="#9cbcff"/><path d="m431.788 196.03c25.292 24.771-11.177 63.873-36.77 38.87-42.976-42.025-93.364-63.037-150.92-62.88-77.021.21-125.53 39.82-150.27 64.52-25.312 25.286-62.186-13.471-37.19-38.5 26.54-26.58 80.09-71.25 163.69-78.9v-12.14c0-13.253 10.759-24 24-24 13.25 0 24 10.75 24 24v11.97c83.07 7.04 136.71 50.87 163.46 77.06z" fill="#cbe3fa"/><path d="m227.718 89.678c10.846-10.398 27.351 4.583 17.919 16.278-3.28 4.066-5.309 9.26-5.309 15.044v1.292c0 6.104-4.54 11.231-10.591 12.032-77.553 10.265-127.697 52.276-153.099 77.716-1.888 1.892-3.424 3.862-4.637 5.877-7.763 12.89-27.641 2.399-21.414-11.299 1.347-2.963 3.333-5.857 6.051-8.578 26.54-26.58 80.09-71.25 163.69-78.9v-12.14c0-6.787 2.837-12.957 7.39-17.322z" fill="#eef7ff"/><g><path d="m429.352 271.611c-4.215 1.323-6.56 5.813-5.237 10.029 24.85 79.162-13.721 123.864-50.454 147.424-81.768 52.445-221.525 44.753-287.684-14.976-45.322-40.917-50.674-99.331-15.477-168.924 1.923-3.796.51-8.527-3.279-10.618-5.65-3.111-9.863-9.073-10.733-15.187-.803-5.638 1.206-11.055 5.808-15.665 43.673-43.742 96.72-70.91 158.761-76.589 4.119-.377 7.271-3.831 7.271-7.967v-12.138c0-8.822 7.178-16 16-16s16 7.178 16 16v11.973c0 4.156 3.183 7.621 7.325 7.972 61.96 5.249 114.815 31.979 158.533 74.8 10.806 10.584 5.179 22.104.15 27.242-5.848 5.975-16.095 9.612-25.726.193-44.216-43.239-96.484-65.162-155.353-65.162-52.059 0-100.995 17.103-143.904 54.542-3.33 2.904-3.673 7.958-.769 11.287 2.905 3.329 7.958 3.674 11.288.769 37.912-33.078 82.67-50.598 133.386-50.598 54.541 0 103.045 20.388 144.166 60.601 7.4 7.236 15.72 10.285 23.702 10.285 27.846 0 49.166-36.191 24.255-60.59-3.117-3.053-6.272-6.013-9.459-8.894 7.473-15.136 11.405-31.914 11.405-48.92 0-64.791-55.702-115.815-120.409-110.062-4.401.392-7.651 4.276-7.26 8.677s4.277 7.642 8.677 7.26c55.377-4.927 102.992 38.746 102.992 94.124 0 13.167-2.755 26.169-8.012 38.112-29.077-23.579-60.843-40.361-95.002-50.204-.115-13.007-2.281-25.532-6.195-37.266 26.628-7.938 55.354 6.578 63.895 34.04 1.066 3.428 4.226 5.626 7.637 5.626 5.374 0 9.246-5.218 7.642-10.378-11.293-36.308-49.775-55.667-85.259-44.153-19.766-40.391-61.288-68.276-109.205-68.276-67.95 0-122.186 55.776-121.495 122.635.043 4.418 3.65 8.006 8.077 7.922 4.418-.043 7.941-3.659 7.92-8.077-.296-60.861 48.646-106.48 105.498-106.48 56.435 0 102.66 44.543 105.372 100.318-9.132-2.01-18.424-3.543-27.872-4.597v-4.721c0-17.645-14.355-32-32-32s-32 14.355-32 32v4.934c-27.355 3.231-53.353 10.471-77.879 21.631-7.492-40.264 23.401-77.565 64.379-77.565 12.142 0 23.994 3.344 34.275 9.672 3.764 2.315 8.691 1.142 11.006-2.621s1.142-8.69-2.621-11.006c-12.803-7.88-27.555-12.045-42.66-12.045-52.528 0-91.739 49.363-79.176 100.869-24.517 13.079-47.459 30.267-68.679 51.521-15.82 15.844-13.109 38.457 2.215 51.742-17.833 37.374-24.68 72.214-20.337 103.641 27.415 198.429 482.938 172.482 406.529-70.925-1.323-4.215-5.811-6.561-10.028-5.237z"/><path d="m98.67 331.304c-.562-4.383-4.57-7.483-8.952-6.918-4.383.562-7.48 4.569-6.918 8.952 5.838 45.561 41.178 75.531 85.208 90.396 4.204 1.42 8.732-.853 10.139-5.021 1.414-4.186-.834-8.726-5.021-10.139-25.199-8.508-68.38-29.86-74.456-77.27z"/></g></svg>