<svg id="Layer_1" enable-background="new 0 0 480 480" height="512" viewBox="0 0 480 480" width="512" xmlns="http://www.w3.org/2000/svg"><path d="m429.031 175.147c-3.419-13.553-15.495-23.689-30.03-24.127v-44.02c0-17.67-14.33-32-32-32h-321c-20.74 0-37.605 16.61-37.995 37.26v324.74c0 17.67 14.325 32 31.995 32h358c17.67 0 32-14.33 32-32 0-276.137.434-256.284-.97-261.853z" fill="#a07765"/><path d="m363.081 84.61c7.11 3.21 10.26 11.57 7.05 18.68l-74.1 163.91-184.98-83.62 74.11-163.92c3.21-7.1 11.57-10.26 18.67-7.04z" fill="#9cbcff"/><path d="m370.131 103.29-74.1 163.91-137.6-62.2h104.57v-55.998c0-3.29 2.92-5.776 6.179-5.324 37.755 5.234 72.137-13.26 91.402-45.341 3.452-5.748 12.422-1.405 9.549 4.953z" fill="#80aaff"/><path d="m248.881 11h-174.76c-7.8 0-14.12 6.32-14.12 14.12v179.88h203v-179.88c0-7.8-6.32-14.12-14.12-14.12z" fill="#eef7ff"/><path d="m263.001 64.986v140.014h-84v-89.322c0-3.051 1.733-5.839 4.476-7.174 24.316-11.835 46.696-28.337 65.647-48.934 4.934-5.36 13.877-1.869 13.877 5.416z" fill="#cbe3fa"/><path d="m117.001 137.78v67.22h-57v-66.367c0-4.614 3.884-8.264 8.49-7.982 11.35.696 24.822.72 39.659-.821 4.727-.491 8.851 3.196 8.851 7.95z" fill="#cbe3fa"/><path d="m117.001 11h62v194h-62z" fill="#6e6f80"/><path d="m179.001 122.729v82.271h-62v-69.417c0-3.877 2.774-7.22 6.595-7.875 14.11-2.417 29.12-6.341 44.474-12.415 5.245-2.075 10.931 1.796 10.931 7.436z" fill="#585966"/><path d="m399.001 151.02c-1.026-.031-348.108-.02-352.25-.02-21.06 0-38.735-17.04-38.745-38v324c0 17.67 14.325 32 31.995 32h358c17.67 0 32-14.33 32-32v-254c0-17.34-13.79-31.46-31-31.98z" fill="#c79a83"/><path d="m399.572 237.487c-127.392-15.23-319.45 50.985-325.854 215.997-.336 8.642-7.345 15.516-15.992 15.516h-17.725c-17.673 0-31.995-14.327-31.995-32v-264.02c0 20.97 17.675 38.02 38.745 38.02 377.533 0 352.791-.249 357.001.516 16.562 3.006 12.534 27.97-4.18 25.971z" fill="#e0b7a3"/><path d="m8.006 172.98v-59.98c.01 20.96 17.685 38 38.745 38 0 0 351.92.01 352.25.02 17.21.521 31 14.64 31 31.98v60c0-17.67-14.33-32-32-32h-351.25c-21.07 0-38.745-17.05-38.745-38.02z" fill="#ebcbb7"/><path d="m471.011 337.96-13.1-35.5c-2.32-6.28-8.31-10.46-15.02-10.46h-85.37c-28.46 0-51.52 23.06-51.52 51.5 0 28.452 23.059 51.5 51.52 51.5h85.37c6.71 0 12.7-4.18 15.02-10.46l13.1-35.5c1.32-3.58 1.32-7.5 0-11.08z" fill="#e0b7a3"/><path d="m457.911 302.46c1.529 4.142-1.537 8.54-5.952 8.54h-74.438c-32.263 0-54.291 28.259-51.284 56.972.681 6.5-7.916 9.586-11.554 4.156-5.481-8.182-8.682-18.026-8.682-28.628 0-28.44 23.06-51.5 51.52-51.5h85.37c6.71 0 12.702 4.179 15.02 10.46z" fill="#ebcbb7"/><g><path d="m478.517 335.192-13.102-35.5c-3.463-9.386-12.513-15.692-22.52-15.692h-4.894v-41c0-22.056-17.944-40-40-40h-340.742c-4.418 0-8 3.582-8 8s3.582 8 8 8h340.742c13.233 0 24 10.766 24 24v41h-64.483c-32.817 0-59.517 26.691-59.517 59.5s26.699 59.5 59.517 59.5h64.483v34c0 13.234-10.766 24-24 24h-358c-13.234 0-24-10.766-24-24v-289.502c8.514 7.343 19.514 11.502 30.751 11.502h351.25c13.234 0 24 10.766 24 24v6.419c0 4.418 3.582 8 8 8s8-3.582 8-8v-6.419c0-18.961-13.265-34.871-31-38.966v-37.034c0-6.848-1.763-13.608-5.097-19.551-2.161-3.853-7.037-5.224-10.891-3.062s-5.224 7.038-3.062 10.891c1.996 3.557 3.05 7.61 3.05 11.722v36h-30.043l16.464-36.417c5.023-11.111.07-24.238-11.042-29.262l-64.828-29.308c-4.026-1.82-8.766-.032-10.585 3.994-1.82 4.026-.032 8.765 3.994 10.585l64.828 29.308c3.072 1.389 4.442 5.019 3.053 8.092l-19.443 43.008h-156.399v-91.387c0-4.418-3.582-8-8-8s-8 3.582-8 8v91.387h-103v-117.885c0-3.372 2.743-6.115 6.115-6.115h34.885v93c0 4.418 3.582 8 8 8s8-3.582 8-8v-93h123.885c3.372 0 6.115 2.743 6.115 6.115v87.401c0 4.418 3.582 8 8 8s8-3.582 8-8v-87.401c0-12.194-9.921-22.115-22.115-22.115h-174.77c-12.194 0-22.115 9.921-22.115 22.115v117.885h-5.25c-8.258 0-16.338-3.408-22.168-9.351-13.477-13.737-10.419-35.304 4.599-45.496 3.656-2.481 4.608-7.456 2.127-11.112-2.481-3.655-7.456-4.607-11.112-2.127-12.363 8.391-20.105 22.452-20.183 37.837-.02.63-.013 320.854-.013 324.249 0 22.056 17.944 40 40 40h358c22.056 0 40-17.944 40-40v-42c0-4.418-3.582-8-8-8h-72.483c-23.995 0-43.517-19.514-43.517-43.5s19.521-43.5 43.517-43.5h85.377c3.337 0 6.355 2.103 7.51 5.232l13.102 35.5c.659 1.785.659 3.752 0 5.537l-9.369 25.385c-1.53 4.145.59 8.746 4.735 10.275 4.144 1.528 8.745-.591 10.275-4.735l9.369-25.385c1.977-5.359 1.977-11.259 0-16.617z"/><circle cx="361.001" cy="343" r="16"/></g></svg>