<svg id="Layer_1" enable-background="new 0 0 480.002 480.002" height="512" viewBox="0 0 480.002 480.002" width="512" xmlns="http://www.w3.org/2000/svg"><path d="m357.591 408.62h-.01c-1.23-.44-40.79-14.06-43.09-14.86-11.441-3.944-21.258-11.61-27.86-21.87-8.867-13.751-8.315-26.025-8.98-30.18 36.01-14.81 61.35-50.24 61.35-91.58v-3.13c14.651 0 25-11.473 25-24.54v-50.46c0-68.476-55.515-123.998-123.997-124-68.697-.002-124.003 56.604-124.003 125.3v49.16c0 13.244 10.715 24.54 25 24.54v3.13c0 41.34 25.34 76.77 61.35 91.58-.773 4.832-.207 16.575-8.98 30.18-6.601 10.258-16.417 17.926-27.86 21.87-11.191 3.893-43.019 14.772-43.12 14.87-21.78 7.55-36.39 28.08-36.39 51.14v4.23c0 4.42 3.58 8 8 8h292c4.42 0 8-3.58 8-8v-4.23c0-23.07-14.62-43.6-36.41-51.15z" fill="#ffebd2"/><path d="m243.841 325.695c13.278 3.773 10.756 23.323-3.046 23.432-54.892.433-99.794-43.916-99.794-98.997v-50.451c0-4.69 4.02-8.389 8.69-7.969 3.079.279 6.404.513 9.95.667 6.362.276 11.36 5.553 11.36 11.92v25.833c0 47.856 32.795 84.186 72.84 95.565z" fill="#fff3e4"/><path d="m273.453 359.341c-21.411 7.717-45.489 7.718-66.903.001-3.561-1.283-5.706-4.922-5.159-8.668.344-2.358.583-5.011.96-8.964 23.395 9.661 50.767 10.131 75.3 0 .371 3.89.609 6.559.962 8.97.55 3.742-1.601 7.378-5.16 8.661z" fill="#ffd9ad"/><path d="m364.001 222.46c0 12.909-10.186 24.54-25 24.54v-43.175c0-3.248-1.973-6.155-4.974-7.398-19.56-8.098-36.574-20.163-50.32-34.886-2.611-2.797-6.84-3.292-10.085-1.264-37.812 23.625-81.144 33.871-124.225 31.413-4.567-.26-8.397 3.415-8.397 7.989 0 50.971.111 47.321-.2 47.321-13.7 0-24.8-10.99-24.8-24.54v-49.16c0-68.697 55.306-125.302 124.003-125.3 68.476.002 123.997 55.518 123.997 124v50.46z" fill="#585966"/><path d="m269.948 67.89c-64.73.232-123.359 52.523-123.938 124.36-2.93 1.17-5.01 4.049-5.01 7.429 0 50.971.111 47.321-.2 47.321-13.7 0-24.8-10.99-24.8-24.54v-49.16c0-81.48 76.582-142.326 156.052-121.117 8.986 2.398 7.197 15.674-2.104 15.707z" fill="#6e6f80"/><path d="m394.001 459.77v4.23c0 4.42-3.58 8-8 8h-292c-4.42 0-8-3.58-8-8v-4.23c0-23.06 14.61-43.59 36.39-51.14.1-.098 32.1-11.037 43.12-14.87 11.441-3.944 21.258-11.61 27.86-21.87l40.67 45.449c3.18 3.55 8.741 3.55 11.921 0l40.669-45.449c4.17 6.48 9.71 12.06 16.33 16.29 9.313 5.982 14.96 6.248 54.62 20.44h.01c21.79 7.55 36.41 28.08 36.41 51.15z" fill="#b5d5f5"/><path d="m180.947 405.909c.874 3.968-1.361 7.959-5.202 9.283-10.502 3.62-27.254 9.34-27.354 9.437-18.509 6.419-31.839 22.203-35.419 40.946-.715 3.742-4.027 6.424-7.837 6.424h-11.134c-4.418 0-8-3.582-8-8v-4.23c0-23.06 14.61-43.59 36.39-51.14 0 0 .01-.01.03-.01 39.533-14.147 45.279-14.441 54.62-20.44z" fill="#cbe3fa"/><path d="m223.531 405.59-23.075 28.498c-4.218 5.209-12.585 3.23-14.028-3.315l-9.387-42.593c6.62-4.23 12.16-9.81 16.33-16.29z" fill="#cbe3fa"/><path d="m192.051 403.31 5.517 25.004c1.537 6.965-8.812 9.982-10.945 3.176-.184-.587.587 2.823-9.581-43.31 6.62-4.23 12.16-9.81 16.33-16.29l6.441 7.196c2.324 2.596 1.846 6.721-1.107 8.571-4.974 3.114-8.099 9.074-6.655 15.653z" fill="#eef7ff"/><path d="m302.961 388.18-9.385 42.595c-1.442 6.546-9.815 8.523-14.032 3.314l-23.072-28.499 30.16-33.7c4.169 6.48 9.709 12.06 16.329 16.29z" fill="#cbe3fa"/><path d="m289.722 426.34c4.782 6.506-4.439 14.836-10.179 7.749l-23.072-28.499 30.16-33.7c2.009 3.129 4.34 6.043 6.959 8.699 2.352 2.385 2.386 6.21.152 8.705l-4.061 4.536c-9.004 10.055-7.022 22.9.041 32.51z" fill="#eef7ff"/><path d="m256.011 406.11 10.443 61.217c.417 2.443-1.465 4.673-3.943 4.673h-45.02c-2.478 0-4.36-2.23-3.943-4.673l10.443-61.221 10.05 11.233c3.18 3.553 8.741 3.553 11.921 0z" fill="#ff6d7a"/><path d="m236.782 424.929-6.896 40.417c-.656 3.843-3.987 6.654-7.886 6.654h-4.509c-2.478 0-4.36-2.23-3.943-4.673l10.443-61.221 10.05 11.233c.611.684 3.531 2.957 2.741 7.59z" fill="#ff8c95"/><path d="m116.001 186.18c3.828-1.452 6.477-1.18 13-1.18 6.63 0 12 5.37 12 12v57c0 6.63-5.37 12-12 12h-6.39c-30.83 0-33.05-69.84-6.61-79.82z" fill="#cbe3fa"/><path d="m138.03 189.089c2.019 2.302 1.004 5.942-2.029 7.091-23.965 9.074-19.92 46.272-15.839 62.554.946 3.773-3.065 6.883-6.479 5.019-23.962-13.083-20.97-78.753 8.928-78.753h6.39c3.602 0 6.83 1.582 9.029 4.089z" fill="#eef7ff"/><path d="m364.001 186.18c26.447 9.987 24.209 79.82-6.61 79.82h-6.39c-6.63 0-12-5.37-12-12v-57c0-6.63 5.37-12 12-12 6.221 0 9.119-.292 13 1.18z" fill="#cbe3fa"/><path d="m366.782 187.506c4.415 2.57 2.879 9.578-2.781 9.494-6.629-.099-12 5.37-12 12v45.173c0 8.345-13 9.1-13-.173v-57c0-6.63 5.371-12.124 12-12 5.211.097 9.985-.868 15.781 2.506z" fill="#eef7ff"/><g><path d="m360.207 401.056-43.104-14.862c-17.305-5.967-29.322-21.554-30.916-39.54 30.16-14.416 51.443-41.738 58.367-73.739 3.958 1.353 6.381 1.086 12.833 1.086 2.517 0 4.937-.337 7.252-.979-4.404 26.6-18.868 51.094-40.496 67.622-6.036 4.613-2.794 14.357 4.863 14.357 1.694 0 3.402-.536 4.852-1.644 29.907-22.856 47.917-58.953 48.202-96.585.155-7.13-8.443-10.927-13.565-5.935-1.389 1.344-4.293 7.164-11.108 7.164h-6.387c-2.206 0-4-1.794-4-4v-57c0-2.206 1.794-4 4-4h6.387c10.908 0 14.832 15.675 15.774 20.479.851 4.336 5.052 7.159 9.392 6.31 4.335-.851 7.16-5.055 6.31-9.391-2.689-13.703-8.669-23.787-16.862-29.112v-9.287c0-72.785-59.215-132-132-132-31.383 0-61.796 11.204-85.637 31.547-3.361 2.868-3.761 7.917-.893 11.278 2.867 3.361 7.917 3.761 11.278.893 20.948-17.874 47.672-27.718 75.252-27.718 63.963 0 116 52.038 116 116v5h-5c-7.573 0-14.175 4.231-17.569 10.452-18.425-8.283-34.904-20.617-48.043-36.039-2.637-3.094-7.173-3.72-10.546-1.456-29.407 19.725-63.843 31.363-99.586 33.659-4.409.283-7.754 4.087-7.471 8.496s4.082 7.753 8.496 7.471c36.21-2.325 71.192-13.549 101.614-32.544 14.857 15.884 33.021 28.472 53.105 36.796v46.291c0 36.893-22.01 69.888-56.073 84.059-3.249 1.352-5.128 4.599-4.903 7.925-.009.153-.023.305-.023.461 0 10.066 2.434 19.712 6.819 28.282l-36.819 41.151c-43.7-48.841-40.862-45.764-41.737-46.44-3.236-2.505-7.894-2.145-10.702.837-1.393 1.47-7.992 14.045-24.663 19.794l-43.11 14.864c-24.998 8.667-41.788 32.25-41.788 58.715v12.226c0 4.418 3.582 8 8 8s8-3.582 8-8v-12.227c0-19.664 12.481-37.184 31.062-43.61 1.744-.601 45.295-15.668 46.399-16.123l10.726 48.681c.955 4.336 5.242 7.038 9.534 6.091 4.315-.951 7.042-5.219 6.091-9.534l-11.825-53.665c2.807-2.183 5.43-4.6 7.829-7.232l21.634 24.179-10.59 62.094c-.743 4.355 2.186 8.489 6.541 9.231 4.384.747 8.493-2.213 9.231-6.542l8.45-49.547c5.081 5.653 5.436 6.261 6.877 7.105 2.932 1.722 6.867 1.441 9.543-1.109.428-.406-.09.151 5.413-5.997l8.45 49.548c.665 3.9 4.049 6.657 7.876 6.657 4.947 0 8.732-4.444 7.896-9.346l-6.331-37.12 14.975 18.498c4.209 5.199 12.59 3.225 14.03-3.313l5.067-23c.951-4.315-1.776-8.583-6.091-9.534s-8.585 1.777-9.534 6.091l-1.492 6.772-18.785-23.205 19.204-21.464c6.861 7.547 15.615 13.458 25.705 16.937 0 0 43 14.826 43.011 14.83 18.604 6.415 31.103 23.945 31.103 43.624v12.23c0 4.418 3.582 8 8 8s8-3.582 8-8v-12.227c0-26.469-16.789-50.056-41.794-58.717z"/><path d="m215.044 206.984c-4.416-.001-8.004 3.579-8.007 7.995v14c-.003 4.418 3.575 8.003 7.993 8.005 4.416.001 8.004-3.579 8.007-7.995v-14c.003-4.418-3.575-8.003-7.993-8.005z"/><path d="m265.031 237.016c4.416.001 8.004-3.579 8.007-7.995v-14c.003-4.418-3.575-8.003-7.993-8.005-4.416-.001-8.004 3.579-8.007 7.995v14c-.003 4.418 3.575 8.003 7.993 8.005z"/><path d="m122.614 274c6.299 0 8.867.27 12.832-1.085 11.033 50.658 57.945 87.777 112.203 83.941 4.407-.312 7.728-4.137 7.416-8.544-.313-4.407-4.131-7.738-8.545-7.416-52.968 3.747-97.519-38.331-97.519-90.771v-53.125c0-11.028-8.972-20-20-20h-5v-45c0-63.962 52.038-116 116-116 42.245 0 81.186 22.999 101.624 60.021 2.136 3.869 7.003 5.272 10.87 3.137 3.868-2.135 5.272-7.002 3.138-10.87-23.255-42.122-67.563-68.288-115.632-68.288-72.785 0-132 59.215-132 132v49.337c-28.688 18.758-23.68 92.663 14.613 92.663zm-11.663-72.509c3.081-5.634 7.005-8.491 11.663-8.491h6.387c2.206 0 4 1.794 4 4v57c0 2.206-1.794 4-4 4h-6.387c-16.441 0-22.006-37.594-11.663-56.509z"/><path d="m227.679 278.364c-3.124-3.124-8.189-3.124-11.313 0-3.125 3.124-3.125 8.189 0 11.313 13.063 13.063 34.208 13.065 47.272 0 3.124-3.124 3.124-8.189 0-11.313-3.125-3.124-8.189-3.124-11.314 0-6.81 6.81-17.834 6.812-24.645 0z"/></g></svg>