<svg id="Layer_1" enable-background="new 0 0 480 480" height="512" viewBox="0 0 480 480" width="512" xmlns="http://www.w3.org/2000/svg"><path d="m455.04 348.55-7.26-89.98c-1-12.47-11.41-22.07-23.92-22.07h-17.86l-16.9-78.08c-2.39-11.04-12.16-18.92-23.46-18.92h-83.64c-13.25 0-24 10.75-24 24v-100c0-13.25-10.75-24-24-24h-183c-13.25 0-24 10.75-24 24v284.53c-10.986 2.33-19 12.06-19 23.47 0 13.25 10.75 24 24 24h416c13.253 0 24-10.759 24-24 0-10.8-7.14-19.94-16.96-22.95z" fill="#ff6d7a"/><path d="m297.431 166.168c.181 1.099-.199 2.211-1.004 2.98-4.575 4.369-7.427 10.529-7.427 17.352v161h-31v-184c0-13.255 10.745-24 24-24h11.05z" fill="#ff8c95"/><path d="m389.1 158.42 16.9 78.08h-76.63c-11.75 0-21.77-8.51-23.68-20.1l-12.64-76.9h72.59c11.3 0 21.07 7.88 23.46 18.92z" fill="#cbe3fa"/><path d="m389.1 158.42c.453 2.099-1.147 4.08-3.294 4.08h-72.806c-4.066 0-7.897 1.013-11.253 2.8-2.017 1.074-4.49-.194-4.861-2.448l-3.836-23.352h72.59c11.3 0 21.074 7.879 23.46 18.92z" fill="#eef7ff"/><path d="m234 39.5h-183c-13.25 0-24 10.75-24 24v284.53c3.756-.817-9.822-.53 231-.53v-284c0-13.25-10.75-24-24-24z" fill="#c79a83"/><path d="m258 63.5c0 3.314-2.686 6-6 6h-60c-3.314 0-6-2.686-6-6v-24h48c13.255 0 24 10.745 24 24z" fill="#e0b7a3"/><path d="m100 39.5v24c0 3.314-2.686 6-6 6h-3c-13.255 0-24 10.745-24 24v254c-37.47 0-36.66-.196-40 .53v-284.53c0-13.255 10.745-24 24-24z" fill="#e0b7a3"/><path d="m186 39.5v100.06c0 11.13-11.08 18.86-21.53 15.01l-21.93-8.07-20.91 7.86c-10.46 3.94-21.63-3.79-21.63-14.97v-99.89z" fill="#cbe3fa"/><path d="m186 39.5v24c0 3.314-2.686 6-6 6h-74c-3.314 0-6-2.686-6-6v-24z" fill="#eef7ff"/><path d="m455.04 348.55c17.263 5.291 22.715 27.105 9.93 39.92-4.35 4.34-10.35 7.03-16.97 7.03h-416c-13.25 0-24-10.75-24-24 0-13.282 10.786-24 24-24 444.721 0 417.838-.536 423.04 1.05z" fill="#cbe3fa"/><path d="m449.19 347.529c8.984.441 8.483 13.981-.512 13.975-85.019-.053-397.431-.18-400.678.526-11.381 2.414-18.896 12.44-19.015 23.24-.062 5.655-6.442 9.002-11.026 5.689-6.032-4.36-9.959-11.454-9.959-19.459 0-13.274 10.777-24 24-24 0 0 416.795.01 417.19.029z" fill="#eef7ff"/><circle cx="367" cy="372" fill="#42434d" r="68.5"/><path d="m312.255 413.179c-8.655-11.488-13.778-25.788-13.754-41.283.056-37.266 30.462-68.131 68.01-68.394 7.133-.05 8.596 10.101 1.73 12.034-37.848 10.656-59.754 55.094-45.404 91.699 2.575 6.572-6.335 11.582-10.582 5.944z" fill="#585966"/><circle cx="367" cy="371.5" fill="#585966" r="24"/><path d="m369.322 360.492c-6.201 3.55-10.668 9.827-11.978 16.871-1.317 7.086-11.33 7.843-13.368.93-4.417-14.981 6.446-29.684 21.283-30.732 8.005-.565 10.307 9.357 4.063 12.931z" fill="#6e6f80"/><circle cx="113" cy="372" fill="#42434d" r="68.5"/><path d="m58.255 413.179c-8.655-11.488-13.778-25.788-13.754-41.283.056-37.266 30.462-68.131 68.01-68.394 7.133-.05 8.596 10.101 1.73 12.034-37.848 10.656-59.754 55.094-45.404 91.699 2.575 6.572-6.335 11.582-10.582 5.944z" fill="#585966"/><circle cx="113" cy="371.5" fill="#585966" r="24"/><path d="m115.322 360.492c-6.201 3.55-10.668 9.827-11.978 16.871-1.317 7.086-11.33 7.843-13.368.93-4.417-14.981 6.446-29.684 21.283-30.732 8.005-.565 10.307 9.357 4.063 12.931z" fill="#6e6f80"/><g><path d="m113 387.5c-8.822 0-16-7.178-16-16 0-4.418-3.582-8-8-8s-8 3.582-8 8c0 17.645 14.355 32 32 32s32-14.355 32-32-14.355-32-32-32c-4.418 0-8 3.582-8 8s3.582 8 8 8c8.822 0 16 7.178 16 16s-7.178 16-16 16z"/><path d="m367 355.5c8.822 0 16 7.178 16 16 0 4.418 3.582 8 8 8s8-3.582 8-8c0-17.645-14.355-32-32-32s-32 14.355-32 32 14.355 32 32 32c4.418 0 8-3.582 8-8s-3.582-8-8-8c-8.822 0-16-7.178-16-16s7.178-16 16-16z"/><path d="m270.419 355.5c4.418 0 8-3.582 8-8s-3.582-8-8-8h-4.419v-176c0-8.822 7.178-16 16-16h83.64c7.479 0 14.056 5.305 15.638 12.615l8.335 38.501c.936 4.317 5.193 7.06 9.512 6.126 4.318-.935 7.062-5.193 6.127-9.512l-8.335-38.501c-3.165-14.619-16.319-25.229-31.276-25.229h-83.641c-5.826 0-11.289 1.573-16 4.305v-72.305c0-17.645-14.355-32-32-32h-183c-17.645 0-32 14.355-32 32v244.025c0 4.418 3.582 8 8 8s8-3.582 8-8v-244.025c0-8.822 7.178-16 16-16h41v91.888c0 16.751 16.774 28.363 32.449 22.464l18.123-6.816c20.035 7.376 21.769 8.521 27.422 8.521 13.343 0 24.006-10.838 24.006-23.999v-66.155c0-4.418-3.582-8-8-8s-8 3.582-8 8v66.156c0 5.553-5.516 9.437-10.765 7.507l-21.929-8.074c-1.802-.664-3.782-.657-5.58.02l-20.909 7.864c-5.254 1.976-10.817-1.905-10.817-7.488v-91.888h126c8.822 0 16 7.178 16 16v276c-78.169 0-73.582-.153-75.213.314-4.534 1.297-6.931 6.222-5.269 10.548 15.109 39.429-14.101 82.138-56.518 82.138-33.359 0-60.5-27.14-60.5-60.5s27.141-60.5 60.5-60.5c13.825 0 26.838 4.538 37.631 13.124 3.457 2.749 8.49 2.178 11.241-1.28s2.177-8.491-1.28-11.241c-38.612-30.714-95.79-17.232-116.825 27.397h-11.767c-17.645 0-32 14.355-32 32 0 7.278 2.51 14.402 7.067 20.061 2.775 3.446 7.81 3.98 11.249 1.212 3.44-2.771 3.983-7.808 1.212-11.249-8.313-10.319-1.043-26.024 12.472-26.024h6.312c-10.589 47.964 26.14 93 74.688 93 48.542 0 85.262-45.018 74.702-93z"/><path d="m462.627 343.053-6.872-85.128c-1.331-16.5-15.342-29.425-31.896-29.425h-94.484c-7.871 0-14.511-5.637-15.788-13.403l-5.046-30.675c-.717-4.36-4.833-7.31-9.192-6.596-4.359.717-7.313 4.833-6.595 9.192l5.046 30.675c2.555 15.533 15.834 26.806 31.575 26.806h94.484c8.277 0 15.282 6.462 15.948 14.712l.75 9.288h-33.557c-4.418 0-8 3.582-8 8s3.582 8 8 8h34.849l4.44 55h-15.301c-5.616 0-9.462 5.676-7.471 10.862 15.11 39.43-14.1 82.139-56.517 82.139-33.359 0-60.5-27.14-60.5-60.5s27.141-60.5 60.5-60.5c10.491 0 20.824 2.725 29.882 7.88 3.841 2.186 8.725.844 10.909-2.995 2.187-3.84.845-8.725-2.995-10.91-11.464-6.526-24.534-9.975-37.796-9.975-48.198 0-84.757 44.392-74.919 92h-77.791c-4.418 0-8 3.582-8 8s3.582 8 8 8h83.024c12.031 26.508 38.73 45 69.686 45 48.542 0 85.262-45.018 74.702-93h6.298c13.528 0 20.857 15.788 12.387 26.128-4.311 5.264-.469 13.069 6.185 13.069 2.315 0 4.612-1 6.194-2.931 12.836-15.674 8.062-39.316-10.139-48.713z"/></g></svg>