<svg id="Layer_1" enable-background="new 0 0 490.087 490.087" height="512" viewBox="0 0 490.087 490.087" width="512" xmlns="http://www.w3.org/2000/svg"><path d="m433.043 133.087h-45.09c22.77-34.56-2.56-113.77-46.91-124-27.72-6.39-69.75 15.84-82.16 56.02-1.056-.038-27.58-.004-27.68 0-12.41-40.18-54.44-62.41-82.16-56.02-44.35 10.23-69.68 89.44-46.91 124h-45.09c-13.25 0-24 10.75-24 24v36c0 13.25 10.75 24 24 24h7v241c0 13.25 10.75 24 24 24h314c13.25 0 24-10.75 24-24v-241h7c13.25 0 24-10.75 24-24v-36c0-13.25-10.75-24-24-24z" fill="#befa91"/><g fill="#daffbf"><path d="m91.059 482.087h-3.016c-13.255 0-24-10.745-24-24v-241h34c8.837 0 16 7.163 16 16 0 0 .001 225.264.003 225.396.219 12.939-10.046 23.604-22.987 23.604z"/><path d="m434.303 133.119c19.223.994 18.088 29.968-1.16 29.968h-113.1c-4.418 0-8-3.582-8-8v-22s121.843.011 122.26.032z"/><path d="m178.043 133.087v22c0 4.418-3.582 8-8 8h-73c-13.255 0-24 10.745-24 24v14c0 8.837-7.163 16-16 16-13.255 0-24-10.745-24-24v-36c0-13.255 10.745-24 24-24z"/></g><path d="m207.043 217.087v14c0 4.418-3.582 8-8 8h-127c-4.418 0-8-3.582-8-8v-14z" fill="#9ceb63"/><path d="m426.043 217.087v14c0 4.418-3.582 8-8 8h-127c-4.418 0-8-3.582-8-8v-14z" fill="#9ceb63"/><path d="m207.043 217.087h76v265h-76z" fill="#ff6d7a"/><path d="m238.043 225.087v249c0 4.418-3.582 8-8 8h-23v-265h23c4.419 0 8 3.582 8 8z" fill="#ff8c95"/><path d="m283.043 217.087v14c0 4.418-3.582 8-8 8h-60c-4.418 0-8-3.582-8-8v-14z" fill="#e84857"/><path d="m178.043 133.087h134v84h-134z" fill="#ff6d7a"/><path d="m312.043 133.087v22c0 4.418-3.582 8-8 8h-118c-4.418 0-8-3.582-8-8v-22z" fill="#ff8c95"/><path d="m341.043 9.087c-27.72-6.39-69.75 15.84-82.16 56.02-1.056-.038-27.58-.004-27.68 0-12.41-40.18-54.44-62.41-82.16-56.02-44.35 10.23-69.68 89.44-46.91 124h285.82c22.77-34.56-2.559-113.77-46.91-124z" fill="#ff6d7a"/><path d="m182.43 28.842c-39.318 6.22-60.591 59.307-58.633 95.839.245 4.573-3.405 8.406-7.984 8.406h-13.679c-22.77-34.56 2.56-113.77 46.91-124 10.49-2.421 23.034-.738 35.246 4.466 7.432 3.167 6.121 14.027-1.86 15.289z" fill="#ff8c95"/><path d="m352.206 31.642c-28.049-7.338-57.702 11.715-73.302 34.643-2.539 3.732-7.686 4.666-11.305 1.967-2.457-1.832-5.458-2.976-8.716-3.146 12.41-40.18 54.44-62.41 82.16-56.02 6.367 1.47 12.342 4.361 17.839 8.336 7.072 5.115 1.766 16.429-6.676 14.22z" fill="#ff8c95"/><path d="m274.043 133.087h-58v-52c0-8.56 6.707-15.609 15.16-15.98.91-.04 27.58-.004 27.68 0 8.453.371 15.16 7.42 15.16 15.98z" fill="#ff8c95"/><path d="m259.127 65.121c9.563.639 8.962 14.966-.622 14.966 0 0-5.021.01-5.301.02-8.45.44-15.16 7.42-15.16 15.98v29.507c0 4.138-3.355 7.493-7.493 7.493h-14.507v-52c0-8.56 6.71-15.54 15.16-15.98.861-.031 27.823.008 27.923.014z" fill="#ffa3aa"/><path d="m433.043 125.087h-32.459c14.223-42.095-12.145-113.28-57.743-123.795-21.771-5.018-49.662 4.956-69.417 24.82-3.115 3.133-3.101 8.199.032 11.314s8.198 3.101 11.313-.032c15.753-15.842 38.161-24.276 54.476-20.512 36.766 8.478 60.261 75.694 44.08 108.205h-159.282v-44c0-4.411 3.589-8 8-8h26c4.411 0 8 3.589 8 8v18c0 4.418 3.582 8 8 8 3.211 0 5.973-1.896 7.246-4.626 18.784-.5 37.605 2.092 56.254 8.226 4.215 1.386 8.725-.922 10.1-5.1 1.38-4.197-.903-8.719-5.1-10.099-9.63-3.167-19.563-5.526-29.552-7.042 8.48-6.958 13.944-15.954 16.767-26.241 1.169-4.261-1.338-8.663-5.599-9.832-4.254-1.168-8.662 1.337-9.831 5.598-4.303 15.684-16.218 24.153-32.285 27.069v-3.952c0-13.233-10.767-24-24-24h-21.191c-15.651-40.546-59.008-62.85-89.606-55.795-35.786 8.252-59.359 53.593-61.475 92.66-.248 4.582 3.397 8.433 7.995 8.433 4.22 0 7.751-3.303 7.981-7.567.918-16.96 6.544-35.095 15.436-49.754 9.284-15.308 21.237-25.316 33.658-28.18 22.84-5.265 56.383 12.27 69.885 43.047-7.542 4.051-12.683 12.014-12.683 21.157v3.952c-16.067-2.916-27.983-11.384-32.285-27.069-1.169-4.262-5.572-6.766-9.831-5.598-4.261 1.169-6.768 5.571-5.599 9.832 2.822 10.288 8.285 19.282 16.767 26.241-9.986 1.516-19.919 3.875-29.551 7.042-4.197 1.38-6.48 5.902-5.101 10.099 1.383 4.207 5.914 6.478 10.099 5.101 17.3-5.689 35.824-8.682 55.501-8.247v22.647h-151c-17.645 0-32 14.355-32 32v36c0 17.31 13.817 31.443 31 31.975v233.025c0 17.645 14.355 32 32 32h314c17.645 0 32-14.355 32-32v-198.099c0-4.418-3.582-8-8-8s-8 3.582-8 8v198.097c0 8.822-7.178 16-16 16h-111v-249h142c17.645 0 32-14.355 32-32v-36c0-17.645-14.355-32-32-32zm16 68c0 8.822-7.178 16-16 16h-113v-38.516c0-4.418-3.582-8-8-8s-8 3.582-8 8v38.516h-51.484c-4.418 0-8 3.582-8 8s3.582 8 8 8h22.484v249h-187c-8.822 0-16-7.178-16-16v-233h127v218.936c0 4.418 3.582 8 8 8s8-3.582 8-8v-226.936c0-4.418-3.582-8-8-8h-150c-8.822 0-16-7.178-16-16v-36c0-8.822 7.178-16 16-16h113v38c0 4.418 3.582 8 8 8s8-3.582 8-8v-38h247c8.822 0 16 7.178 16 16z"/></svg>