<svg id="Layer_1" enable-background="new 0 0 480 480" height="512" viewBox="0 0 480 480" width="512" xmlns="http://www.w3.org/2000/svg"><path d="m449 8c-12.7 0-23 10.3-23 23v389h-45v-282c0-8.84-7.16-16-16-16h-50c-8.84 0-16 7.16-16 16v282h-48v-218c0-8.84-7.16-16-16-16h-50c-8.84 0-16 7.16-16 16v218h-50v-151c0-8.84-7.16-16-16-16h-50c-8.84 0-16 7.16-16 16v151h-13c-8.84 0-16 7.16-16 16v20c0 8.84 7.16 16 16 16h432c8.84 0 16-7.16 16-16v-425c0-12.686-10.299-23-23-23z" fill="#befa91"/><g fill="#daffbf"><path d="m103.084 273c-19.929 0-36.084 16.155-36.084 36.084v102.916c0 4.418-3.582 8-8 8h-22v-151c0-8.837 7.163-16 16-16h50c13.923 0 13.007 20 .084 20z"/><path d="m235.084 206c-19.929 0-36.084 16.155-36.084 36.084v169.916c0 4.418-3.582 8-8 8h-22v-218c0-8.837 7.163-16 16-16h50c13.923 0 13.007 20 .084 20z"/><path d="m365.084 142c-19.929 0-36.084 16.155-36.084 36.084v233.916c0 4.418-3.582 8-8 8h-22v-282c0-8.837 7.163-16 16-16h50c13.923 0 13.007 20 .084 20z"/></g><path d="m472 31v405c0-8.84-7.16-16-16-16h-30v-389c0-12.7 10.3-23 23-23 12.687 0 23 10.3 23 23z" fill="#80aaff"/><path d="m448.153 8.015c8.664-.314 12.996 10.692 6.287 16.182-5.152 4.218-8.44 10.628-8.44 17.803v368.792c0 5.086-4.123 9.208-9.208 9.208h-10.792v-388.468c0-12.281 9.427-23.055 22.153-23.517z" fill="#9cbcff"/><path d="m472 456c0 8.84-7.16 16-16 16h-432c-8.84 0-16-7.16-16-16v-20c0-8.84 7.16-16 16-16h432c8.84 0 16 7.16 16 16z" fill="#cbe3fa"/><path d="m456.216 437h-409.217c-8.836 0-15.999 7.163-15.999 16v12c0 3.866-3.134 7-7 7-8.837 0-16-7.163-16-16v-20c0-8.837 7.163-16 16-16h432c12.035 0 11.185 17 .216 17z" fill="#eef7ff"/><g><path d="m32.007 194.001c1.55 0 3.118-.45 4.496-1.389l138.31-94.194 34.32 37.021c2.782 3.003 7.381 3.419 10.659.968l116.841-87.408-1.608 20.372c-.366 4.635 3.288 8.63 7.984 8.63 4.132 0 7.636-3.18 7.966-7.37 3.258-41.29 3.165-38.559 2.885-40.079-.558-3.036-2.819-5.458-5.726-6.253-1.004-.278 2.059.077-40.318-4.256-4.398-.45-8.324 2.746-8.774 7.142-.451 4.396 2.747 8.324 7.142 8.774l18.617 1.91-108.828 81.414-34.106-36.789c-2.691-2.903-7.099-3.4-10.37-1.174l-144 98.069c-6.496 4.423-3.344 14.612 4.51 14.612z"/><path d="m472 375.451c4.418 0 8-3.582 8-8v-336.451c0-17.094-13.907-31-31-31s-31 13.906-31 31v381h-111v-274c0-4.411 3.589-8 8-8h50c4.411 0 8 3.589 8 8v244.936c0 4.418 3.582 8 8 8s8-3.582 8-8v-244.936c0-13.233-10.766-24-24-24h-50c-13.234 0-24 10.767-24 24v274h-114v-210c0-4.411 3.589-8 8-8h50c4.411 0 8 3.589 8 8v176.29c0 4.418 3.582 8 8 8s8-3.582 8-8v-176.29c0-13.233-10.766-24-24-24h-50c-13.234 0-24 10.767-24 24v210h-116v-143c0-4.411 3.589-8 8-8h50c4.411 0 8 3.589 8 8v114.968c0 4.418 3.582 8 8 8s8-3.582 8-8v-114.968c0-13.233-10.767-24-24-24h-50c-13.233 0-24 10.767-24 24v151c0 4.418 3.582 8 8 8h419c4.411 0 8 3.589 8 8v20c0 4.411-3.589 8-8 8h-432c-4.411 0-8-3.589-8-8v-10c0-4.418-3.582-8-8-8s-8 3.582-8 8v10c0 13.233 10.767 24 24 24h432c13.233 0 24-10.767 24-24v-20c0-13.233-10.767-24-24-24h-22v-381c0-8.271 6.729-15 15-15s15 6.729 15 15v336.451c0 4.418 3.582 8 8 8z"/></g></svg>