<svg id="Layer_1" enable-background="new 0 0 479.993 479.993" height="512" viewBox="0 0 479.993 479.993" width="512" xmlns="http://www.w3.org/2000/svg"><path d="m448.12 378.772-102.66-293.029c-1.97-5.62-6.93-9.66-12.85-10.48l-126.91-17.44c-5.12-.7-10.27 1.1-13.83 4.85l-14.35 15.08-9.21-4.72c-4.6-2.36-10.06-2.36-14.66 0l-114 58.42c-5.32 2.73-8.67 8.19-8.67 14.14v310.49c0 8.79 7.16 15.91 16 15.91h228c8.84 0 16-7.12 16-15.91v-5.4l147.3-51.61c8.34-2.92 12.75-12.011 9.84-20.301zm-287.14-185.779c-18.78 0-34-15.22-34-34 0-11.35 5.56-21.4 14.11-27.58 22.149-16.008 53.89-.38 53.89 27.58 0 18.779-15.22 34-34 34z" fill="#befa91"/><path d="m178.363 201.99c-6.872.076-9.043-9.309-2.837-12.261 13.583-6.461 21.348-20.95 19.062-35.911-1.044-6.832 7.885-10.393 11.715-4.64 14.899 22.379-1.154 52.518-27.94 52.812z" fill="#daffbf"/><path d="m168.661 73.213c11.223 5.752 11.223 21.784.002 27.539l-91.013 46.701c-5.321 2.728-8.67 8.19-8.67 14.14v294.923c0 8.548-6.929 15.477-15.477 15.477h-6.523c-8.84 0-16-7.12-16-15.91v-310.49c0-5.95 3.349-11.412 8.67-14.14l114-58.42c4.372-2.242 9.715-2.534 15.011.18z" fill="#daffbf"/><path d="m210.08 265.993h-98.2c-17.62 0-31.9 14.28-31.9 31.9v97.2c0 17.62 14.28 31.9 31.9 31.9h98.2c17.62 0 31.9-14.28 31.9-31.9v-97.2c0-17.621-14.28-31.9-31.9-31.9z" fill="#e9ffd9"/><path d="m448.12 378.772-102.66-293.029c-1.97-5.62-6.93-9.66-12.85-10.48l-126.91-17.44c-5.12-.7-10.27 1.1-13.83 4.85l-14.35 15.08 104.79 53.7c5.32 2.73 8.67 8.19 8.67 14.14v305.09l147.3-51.61c8.34-2.92 12.75-12.011 9.84-20.301z" fill="#80aaff"/><path d="m345.46 85.743c4.22 12.042-5.782 24.287-18.423 22.549l-91.147-12.529c-5.11-.701-10.25 1.09-13.81 4.83l-44.56-22.84 14.35-15.08c3.56-3.75 8.71-5.552 13.83-4.85l126.91 17.44c5.92.816 10.881 4.859 12.85 10.48z" fill="#9cbcff"/><path d="m306.98 408.675v30.725c0 3.398-2.147 6.425-5.353 7.549l-10.647 3.733v-47.68l5.353-1.877c5.202-1.823 10.647 2.037 10.647 7.55z" fill="#719efa"/><path d="m306.98 145.593v75.534c0 3.4-2.148 6.428-5.357 7.551l-10.643 3.725v-86.81c0-5.95-3.35-11.41-8.67-14.14l-104.79-53.7 7.378-7.756c2.444-2.57 6.289-3.223 9.445-1.606l95.267 48.822c10.72 5.499 17.37 16.369 17.37 28.38z" fill="#719efa"/><path d="m381.71 337.413c5.83 16.62-2.93 34.83-19.56 40.65l-71.17 24.94v-170.6l17.94-6.28c16.63-5.83 34.83 2.93 40.66 19.56z" fill="#c2d6ff"/><path d="m306.98 238.079v153.641c0 3.398-2.147 6.425-5.353 7.549l-10.647 3.733v-170.6l5.357-1.875c5.202-1.82 10.643 2.041 10.643 7.552z" fill="#9cbcff"/><g><path d="m241.98 289.894c-4.418 0-8 3.582-8 8v97.197c0 13.18-10.722 23.901-23.901 23.901h-98.198c-13.179 0-23.901-10.722-23.901-23.901v-97.197c0-13.18 10.722-23.901 23.901-23.901h78.099c4.418 0 8-3.582 8-8s-3.582-8-8-8h-78.099c-22.001 0-39.901 17.899-39.901 39.901v97.197c0 22.002 17.899 39.901 39.901 39.901h98.198c22.001 0 39.901-17.899 39.901-39.901v-97.197c0-4.418-3.582-8-8-8z"/><path d="m134.276 386.646c3.725 2.409 8.672 1.322 11.062-2.374l43.072-66.622c2.399-3.711 1.335-8.663-2.375-11.062s-8.663-1.336-11.062 2.374l-43.072 66.622c-2.399 3.711-1.336 8.663 2.375 11.062z"/><path d="m455.67 376.122-102.66-293.02c-2.97-8.49-10.37-14.53-19.32-15.76l-123.3-16.95c-4.38-.6-8.42 2.46-9.02 6.84-.6 4.37 2.46 8.41 6.84 9.01l123.31 16.95c2.96.41 5.41 2.4 6.39 5.2l102.66 293.02c1.45 4.12-.77 8.65-4.93 10.11l-136.66 47.88v-201.32l12.59-4.41c12.341-4.326 26.029 2.068 30.46 14.65l32.13 91.73c4.36 12.44-2.21 26.11-14.65 30.46l-24.91 8.73c-4.17 1.46-6.36 6.02-4.9 10.19 1.427 4.094 5.913 6.384 10.19 4.91l24.91-8.73c20.76-7.27 31.74-30.08 24.46-50.85l-32.13-91.73c-7.312-20.839-30.084-31.751-50.86-24.46l-7.29 2.55v-75.52c0-9-4.99-17.15-13.02-21.27l-114-58.42c-6.88-3.52-15.08-3.52-21.96 0l-12.19 6.25c5.391-47.515 42.888-73.603 70.5-43.03 2.96 3.28 8.02 3.54 11.3.58s3.54-8.02.58-11.3c-23.356-25.883-59.432-25.341-82.13 7.13-10.42 14.91-16.35 34.4-16.85 55.13l-85.21 43.66c-8.03 4.12-13.02 12.27-13.02 21.27v310.48c0 13.18 10.77 23.91 24 23.91h228c13.14 0 23.84-10.58 23.99-23.63l141.96-49.74c12.49-4.37 19.1-18.06 14.74-30.5zm-172.69 79.96c0 4.36-3.59 7.91-8 7.91h-228c-4.41 0-8-3.55-8-7.91v-310.48c0-2.97 1.65-5.66 4.32-7.03l78.79-40.38c1.45 11.29 4.54 21.92 9.01 31.31-7.68 7.8-12.12 18.4-12.12 29.49 0 23.16 18.84 42 42 42s42-18.84 42-42c0-11.48-4.55-22.21-12.8-30.19-3.18-3.07-8.24-2.99-11.31.19-3.08 3.17-2.99 8.24.18 11.31 5.12 4.94 7.93 11.58 7.93 18.69 0 14.34-11.66 26-26 26-21.09 0-33.363-23.886-21.17-41.05 5 6.62 10.87 12.12 17.45 16.1 3.878 2.328 8.729 1.013 10.99-2.7 2.29-3.78 1.08-8.7-2.7-10.99-15.57-9.42-26.44-31.4-28.15-56l19.9-10.2c2.304-1.182 5.04-1.19 7.36 0l114 58.42c2.67 1.37 4.32 4.06 4.32 7.03z"/><circle cx="132.98" cy="322.993" r="12"/><circle cx="189.98" cy="367.993" r="12"/></g></svg>