<svg id="Layer_1" enable-background="new 0 0 480 480" height="512" viewBox="0 0 480 480" width="512" xmlns="http://www.w3.org/2000/svg"><path d="m316.5 8h-204c-13.25 0-24 10.75-24 24v416c0 13.25 10.75 24 24 24h204c13.253 0 24-10.759 24-24v-416c0-13.25-10.75-24-24-24z" fill="#eef7ff"/><path d="m327.647 191.773c5.288-3.99 12.853-.27 12.853 6.354v249.873c0 13.252-10.759 24-24 24h-204c-13.255 0-24-10.745-24-24v-222.473c0-5.491 5.407-9.347 10.599-7.557 83.268 28.7 169.196 18.587 228.548-26.197z" fill="#cbe3fa"/><path d="m288.5 8v18.6c0 8.84-7.16 16-16 16h-116c-8.84 0-16-7.16-16-16v-18.6z" fill="#6e6f80"/><path d="m391.5 144.76v109.48c0 14.227-11.533 25.76-25.76 25.76h-83.09c-9.888 20.441-29.082 32.808-51.102 35.678-7.205.939-11.794-7.573-7.076-13.099 5.634-6.599 9.814-14.281 12.298-22.579h-30.509c-14.227 0-25.761-11.533-25.761-25.76v-109.48c0-14.227 11.533-25.76 25.76-25.76h159.48c14.227 0 25.76 11.533 25.76 25.76z" fill="#80aaff"/><path d="m366.112 144h-24.604c-68.48 0-126.016 55.023-126.01 126.764 0 5.102-4.136 9.236-9.238 9.236-14.227 0-25.761-11.533-25.761-25.76v-109.48c0-14.227 11.533-25.76 25.76-25.76h159.48c17.716 0 16.557 25 .373 25z" fill="#9cbcff"/><g><path d="m340.5 313c-4.418 0-8 3.582-8 8v127c0 8.822-7.178 16-16 16h-204c-8.822 0-16-7.178-16-16v-416c0-8.822 7.178-16 16-16h20v10.6c0 13.233 10.766 24 24 24h116c4.418 0 8-3.582 8-8s-3.582-8-8-8h-116c-4.411 0-8-3.589-8-8v-18.6c0-4.418-3.582-8-8-8h-28c-17.645 0-32 14.355-32 32v416c0 17.645 14.355 32 32 32h204c17.645 0 32-14.355 32-32v-127c0-4.418-3.582-8-8-8z"/><path d="m235.5 444c4.418 0 8-3.582 8-8s-3.582-8-8-8h-42c-4.418 0-8 3.582-8 8s3.582 8 8 8z"/><path d="m391.4 122.822c-2.874-3.357-7.923-3.751-11.28-.878-3.356 2.873-3.75 7.923-.878 11.28 2.746 3.209 4.258 7.307 4.258 11.538v109.475c0 9.794-7.969 17.763-17.763 17.763h-83.091c-3.068 0-5.865 1.755-7.201 4.517-8.432 17.429-25.051 28.634-44.881 31.232 6.302-7.387 11.048-16.031 13.868-25.455 1.534-5.126-2.308-10.294-7.664-10.294h-30.506c-9.794 0-17.763-7.969-17.763-17.763v-109.474c0-9.794 7.968-17.763 17.763-17.763h134.238c4.418 0 8-3.582 8-8v-87c0-17.645-14.355-32-32-32h-129.903c-4.418 0-8 3.582-8 8s3.582 8 8 8h129.903c8.822 0 16 7.178 16 16v79h-126.237c-18.617 0-33.763 15.146-33.763 33.763v109.475c0 18.617 15.146 33.763 33.763 33.763h18.562c-4.547 8.377-11.271 15.496-19.59 20.602-6.348 3.896-4.364 13.632 3.006 14.731 33.892 5.047 64.184-9.141 79.224-35.333h78.273c18.617 0 33.763-15.146 33.763-33.763v-109.475c-.001-8.043-2.878-15.835-8.101-21.941z"/><path d="m285.532 252c4.418 0 8-3.582 8-8v-5.458c12.277-2.918 21.298-12.369 21.298-23.554 0-18.654-16.665-22.067-27.693-24.325-13.047-2.672-14.902-4.245-14.902-8.651 0-4.016 5.461-8.489 13.298-8.489 4.993 0 9.705 1.956 12.003 4.983 2.673 3.52 7.691 4.206 11.209 1.535 3.52-2.672 4.206-7.69 1.535-11.209-3.914-5.156-9.886-8.789-16.747-10.389v-5.443c0-4.418-3.582-8-8-8s-8 3.582-8 8v5.458c-12.277 2.918-21.298 12.369-21.298 23.554 0 18.654 16.665 22.067 27.693 24.325 13.047 2.672 14.902 4.245 14.902 8.651 0 4.016-5.461 8.489-13.298 8.489-4.993 0-9.705-1.956-12.003-4.983-2.672-3.52-7.692-4.206-11.209-1.535-3.52 2.672-4.206 7.69-1.535 11.209 3.914 5.156 9.886 8.788 16.747 10.389v5.443c0 4.418 3.582 8 8 8z"/></g></svg>