<svg id="Layer_1" enable-background="new 0 0 480 480" height="512" viewBox="0 0 480 480" width="512" xmlns="http://www.w3.org/2000/svg"><path d="m440.36 191.4-29.36-24.21v-135.19c0-13.25-10.75-24-24-24h-294c-13.25 0-24 10.75-24 24v135.19l-29.36 24.21c-7.37 6.08-11.64 15.13-11.64 24.69v231.91c0 13.25 10.75 24 24 24h376c13.25 0 24-10.75 24-24v-231.91c0-9.56-4.27-18.61-11.64-24.69z" fill="#befa91"/><path d="m452 227.58v40.804c0 2.396-1.074 4.667-2.927 6.186l-99.933 81.93-14.57-11.02c-5.56-4.21-12.34-6.48-19.31-6.48h-90.521c-6.97 0-13.75 2.275-19.309 6.48-8.547 6.465-20.411 6.234-28.7-.559l-1.652-1.354c-5.763-4.723-5.59-13.592.352-18.087 5.559-4.205 12.34-6.48 19.309-6.48h90.521c6.97 0 13.75 2.27 19.31 6.48l14.57 11.02z" fill="#daffbf"/><path d="m49.268 471.846c-11.969-1.356-21.268-11.515-21.268-23.846v-220.42l27.073 22.191c1.853 1.519 2.927 3.794 2.929 6.189.072 148.213-.083 193.295-.011 207.879.023 4.721-4.033 8.539-8.723 8.007z" fill="#daffbf"/><path d="m69 167.19v94l-41-33.61v-11.49c0-9.56 4.27-18.61 11.64-24.69z" fill="#9ceb63"/><path d="m452 216.09v11.49l-41 33.61v-94l29.36 24.21c7.37 6.08 11.64 15.13 11.64 24.69z" fill="#9ceb63"/><path d="m387 8h-294c-13.25 0-24 10.75-24 24v229.19l91.86 75.31 14.57-11.02c5.56-4.21 12.339-6.48 19.309-6.48h90.521c6.97 0 13.75 2.27 19.31 6.48l14.57 11.02 91.86-75.31v-229.19c0-13.25-10.75-24-24-24z" fill="#cbe3fa"/><path d="m387.487 28h-264.487c-13.255 0-24 10.745-24 24v212.661c0 8.44-9.812 13.084-16.339 7.732l-13.661-11.203v-229.19c0-13.255 10.745-24 24-24 0 0 294.846.011 295.265.033 12.805.666 12.044 19.967-.778 19.967z" fill="#eef7ff"/><path d="m320.88 167.79 6.25-12.79c5.03-10.29.99-22.71-9.12-28.07l-12.58-6.68-2.46-14.02c-1.98-11.28-12.54-18.96-23.88-17.35l-14.1 1.99-10.23-9.9c-8.23-7.96-21.29-7.96-29.52 0l-10.23 9.9-14.1-1.99c-11.34-1.61-21.9 6.07-23.88 17.35l-2.46 14.02-12.58 6.68c-10.11 5.36-14.15 17.78-9.12 28.07l6.25 12.79-6.25 12.79c-5.03 10.29-.99 22.71 9.12 28.07l12.58 6.68 2.46 14.02c1.98 11.28 12.54 18.96 23.88 17.35l14.1-1.99 10.23 9.9c8.23 7.96 21.29 7.96 29.52 0l10.23-9.9 14.1 1.99c11.34 1.61 21.9-6.07 23.88-17.35l2.46-14.02 12.58-6.68c10.11-5.36 14.15-17.78 9.12-28.07z" fill="#fff0a6"/><g><path d="m63.855 267.48 84.073 68.773-63.643 48.141c-3.523 2.665-4.22 7.683-1.554 11.206 2.664 3.524 7.681 4.221 11.206 1.554l86.323-65.296c4.142-3.133 9.284-4.858 14.479-4.858h90.521c5.194 0 10.337 1.726 14.479 4.858l86.323 65.296c1.444 1.093 3.139 1.62 4.82 1.62 7.621 0 10.962-9.743 4.832-14.38l-86.323-65.296c-6.903-5.223-15.474-8.099-24.131-8.099h-90.521c-8.657 0-17.228 2.876-24.131 8.099l-9.55 7.224-84.058-68.761v-225.561c0-8.822 7.178-16 16-16h294c8.822 0 16 7.178 16 16v180.097c0 4.418 3.582 8 8 8s8-3.582 8-8v-180.097c0-17.645-14.355-32-32-32h-294c-17.645 0-32 14.355-32 32v228.225c-.354 2.658.627 5.432 2.855 7.255z"/><path d="m448.235 187.601c-3.423-2.795-8.463-2.283-11.256 1.139-2.794 3.423-2.284 8.463 1.139 11.256 3.738 3.052 5.882 7.568 5.882 12.395v11.632l-96.031 78.556c-3.42 2.798-3.924 7.838-1.127 11.258 2.789 3.409 7.829 3.932 11.258 1.127l85.9-70.268v203.304c0 8.822-7.178 16-16 16h-376c-8.822 0-16-7.178-16-16v-235.61c0-4.826 2.144-9.343 5.882-12.395 3.423-2.793 3.933-7.833 1.139-11.256-2.793-3.422-7.832-3.935-11.256-1.139-7.477 6.102-11.765 15.138-11.765 24.79v235.61c0 17.645 14.355 32 32 32h376c17.645 0 32-14.355 32-32v-235.61c0-9.652-4.288-18.688-11.765-24.789z"/><path d="m321.76 119.858-9.124-4.841-1.785-10.174c-2.738-15.614-17.177-26.107-32.879-23.888l-10.228 1.446-7.424-7.183c-11.395-11.021-29.246-11.021-40.641 0l-7.424 7.183-10.228-1.446c-15.708-2.226-30.14 8.272-32.879 23.887l-1.785 10.175-9.125 4.842c-14.004 7.431-19.52 24.408-12.558 38.651l4.537 9.279-4.537 9.28c-6.963 14.243-1.447 31.221 12.558 38.65l9.125 4.843 1.785 10.173c2.739 15.615 17.174 26.107 32.879 23.888l10.228-1.446 7.424 7.183c11.395 11.022 29.246 11.022 40.641 0l7.424-7.183 10.228 1.446c15.699 2.219 30.14-8.273 32.879-23.887l2.461-14.025c.764-4.352-2.146-8.499-6.497-9.263-4.352-.766-8.5 2.146-9.263 6.497l-2.461 14.026c-1.238 7.067-7.773 11.813-14.879 10.81l-14.1-1.994c-2.445-.345-4.909.455-6.683 2.171l-10.234 9.901c-5.156 4.988-13.234 4.988-18.391 0l-10.234-9.901c-1.773-1.716-4.235-2.517-6.683-2.171l-14.1 1.994c-7.108 1-13.64-3.744-14.879-10.811l-2.461-14.025c-.427-2.43-1.95-4.527-4.13-5.684l-12.58-6.676c-6.337-3.361-8.833-11.044-5.682-17.489l6.254-12.794c1.083-2.218 1.083-4.811 0-7.027l-6.254-12.793c-3.151-6.445-.655-14.128 5.682-17.49l12.579-6.674c2.18-1.157 3.704-3.255 4.131-5.685l2.461-14.027c1.239-7.066 7.773-11.81 14.879-10.81l14.1 1.994c2.448.345 4.909-.455 6.683-2.171l10.234-9.901c5.156-4.988 13.234-4.988 18.391 0l10.234 9.901c1.772 1.716 4.236 2.515 6.683 2.171l14.1-1.994c7.101-1.005 13.64 3.743 14.879 10.811l2.461 14.026c.427 2.43 1.951 4.527 4.131 5.685l12.578 6.673c6.338 3.363 8.834 11.046 5.683 17.491l-6.254 12.793c-1.083 2.217-1.083 4.81 0 7.027l6.254 12.794c1.94 3.968 6.729 5.615 10.701 3.674 3.969-1.94 5.614-6.731 3.674-10.701l-4.537-9.28 4.537-9.279c6.961-14.242 1.446-31.22-12.559-38.652z"/><path d="m213.645 208.499c3.706 2.407 8.66 1.351 11.065-2.354l44-67.789c2.406-3.706 1.352-8.66-2.354-11.065-3.707-2.408-8.66-1.351-11.065 2.354l-44 67.789c-2.407 3.706-1.353 8.66 2.354 11.065z"/><circle cx="269.152" cy="192.674" r="12"/><circle cx="210.848" cy="143.115" r="12"/></g></svg>