<svg id="Layer_1" enable-background="new 0 0 480 480" height="512" viewBox="0 0 480 480" width="512" xmlns="http://www.w3.org/2000/svg"><path d="m467.07 188.25-89.62-85.79c-2.99-2.86-6.97-4.46-11.12-4.46h-27.33c-7.4 0-13.83 5.06-15.55 12.26-10.172 42.302-38.385 70.556-83.45 70.76-44.947-.203-73.246-28.325-83.45-70.76-1.72-7.2-8.15-12.26-15.55-12.26h-27.33c-4.15 0-8.13 1.6-11.12 4.46l-89.62 85.79c-6.01 5.76-6.6 15.16-1.35 21.62l29.39 36.14c5.41 6.64 15.1 7.88 22.01 2.8l35.02-25.81v233c0 8.84 7.16 16 16 16h252c8.84 0 16-7.16 16-16v-233l35.02 25.81c6.91 5.08 16.6 3.84 22.01-2.8l29.39-36.14c5.25-6.46 4.66-15.86-1.35-21.62z" fill="#ff6d7a"/><g fill="#ff8c95"><path d="m144.97 98.497c5.455 1.392 4.33 9.503-1.3 9.503-4.15 0-8.13 1.6-11.12 4.46l-89.62 85.79c-6.01 5.76-6.6 15.16-1.35 21.62l12.053 16.299c6.109 8.261-5.885 17.9-12.499 10.038-.055-.065-29.553-36.337-29.553-36.337-5.25-6.46-4.66-15.86 1.35-21.62l89.62-85.79c2.99-2.86 6.97-4.46 11.12-4.46 29.978 0 28.683-.17 31.299.497z"/><path d="m122.253 472h-8.253c-8.837 0-16-7.163-16-16v-213.311c0-19.477 30-19.741 30 0v223.375c.013 3.249-2.498 5.936-5.747 5.936z"/><path d="m363.749 108.883c-5.039 1.748-9.004 5.956-10.299 11.377-11.438 47.574-43.88 71.129-83.978 70.757-8.033-.075-9.806-11.45-2.158-13.909 30.591-9.832 48.734-36.067 56.136-66.848 1.72-7.2 8.15-12.26 15.55-12.26h23.048c6.299 0 7.783 8.772 1.701 10.883z"/></g><path d="m320.88 337.79 6.25-12.79c5.03-10.29.99-22.71-9.12-28.07l-12.58-6.68-2.46-14.02c-1.98-11.28-12.54-18.96-23.88-17.35l-14.1 1.99-10.23-9.9c-8.23-7.96-21.29-7.96-29.52 0l-10.23 9.9-14.1-1.99c-11.34-1.61-21.9 6.07-23.88 17.35l-2.46 14.02-12.58 6.68c-10.11 5.36-14.15 17.78-9.12 28.07l6.25 12.79-6.25 12.79c-5.03 10.29-.99 22.71 9.12 28.07l12.58 6.68 2.46 14.02c1.98 11.28 12.54 18.96 23.88 17.35l14.1-1.99 10.23 9.9c8.23 7.96 21.29 7.96 29.52 0l10.23-9.9 14.1 1.99c11.34 1.61 21.9-6.07 23.88-17.35l2.46-14.02 12.58-6.68c10.11-5.36 14.15-17.78 9.12-28.07z" fill="#fff0a6"/><g><path d="m472.6 182.476-89.612-85.793c-4.502-4.31-10.416-6.683-16.654-6.683h-27.332c-11.143 0-20.738 7.563-23.334 18.392-5.764 24.035-23.262 64.393-75.633 64.626-43.086-.191-62.901-26.974-72.004-52.265l71.969-20.436 36.071 10.242c4.251 1.209 8.674-1.26 9.881-5.51 1.207-4.251-1.26-8.675-5.51-9.881l-30.598-8.688c1.002-1.224 2.352-2.201 3.964-2.747 18.472-6.261 30.433-24.258 29.087-43.766-1.467-21.259-18.604-38.396-39.862-39.862-25.514-1.743-46.033 18.534-46.033 42.895 0 4.418 3.582 8 8 8s8-3.582 8-8c0-15.465 13.017-28.022 28.932-26.933 13.334.919 24.082 11.667 25.001 25.001.847 12.267-6.662 23.58-18.26 27.511-8.073 2.736-13.998 9.295-15.964 17.175-81.985 23.298-77.632 22.004-78.525 22.469-3.062 1.592-5.095 5.141-3.995 9.293 11.478 43.321 42.883 71.293 89.846 71.502 65.734-.293 85.671-53.873 91.191-76.896.864-3.604 4.062-6.122 7.775-6.122h27.332c2.095 0 4.079.795 5.588 2.239l89.613 85.793c3.028 2.9 3.319 7.538.676 10.788l-29.391 36.141c-2.721 3.344-7.576 3.963-11.053 1.404l-35.022-25.806c-5.257-3.874-12.744-.131-12.744 6.441v233c0 4.411-3.589 8-8 8h-252c-4.411 0-8-3.589-8-8v-233c0-6.545-7.469-10.332-12.745-6.44l-35.019 25.803c-3.479 2.56-8.336 1.944-11.057-1.402l-29.391-36.139c-2.644-3.251-2.353-7.889.676-10.789l89.614-85.793c1.508-1.444 3.492-2.239 5.587-2.239 4.418 0 8-3.582 8-8s-3.582-8-8-8c-6.238 0-12.152 2.373-16.652 6.683l-89.613 85.792c-8.955 8.574-9.845 22.823-2.025 32.44l29.391 36.139c8.114 9.979 22.591 11.821 32.957 4.191l22.277-16.414v217.168c0 13.233 10.767 24 24 24h252c13.233 0 24-10.767 24-24v-217.168l22.281 16.417c10.362 7.624 24.837 5.785 32.953-4.193l29.391-36.141c7.819-9.616 6.93-23.865-2.025-32.439z"/><path d="m158.239 385.721 9.125 4.843 1.785 10.173c2.738 15.615 17.18 26.113 32.879 23.888l10.228-1.446 7.424 7.183c11.395 11.022 29.246 11.022 40.641 0l7.424-7.183c10.811 1.529 11.653 1.743 14.415 1.743 14.008-.002 26.198-9.971 28.691-24.184l1.785-10.174 9.124-4.842c14.006-7.431 19.521-24.408 12.559-38.651l-4.537-9.28 4.537-9.279c6.962-14.243 1.446-31.221-12.559-38.652l-9.124-4.841-1.785-10.175c-.764-4.352-4.907-7.258-9.263-6.497-4.352.764-7.261 4.91-6.497 9.263l2.461 14.026c.427 2.43 1.951 4.527 4.131 5.685l12.578 6.673c6.338 3.363 8.834 11.046 5.683 17.491l-6.254 12.793c-1.083 2.217-1.083 4.81 0 7.027l6.254 12.794c3.151 6.445.655 14.128-5.683 17.49l-12.579 6.675c-2.18 1.156-3.703 3.254-4.13 5.684l-2.461 14.026c-1.239 7.066-7.767 11.809-14.879 10.81l-14.1-1.994c-2.442-.345-4.909.456-6.683 2.171l-10.234 9.901c-5.156 4.988-13.234 4.988-18.391 0l-10.234-9.901c-1.773-1.716-4.238-2.517-6.683-2.171l-14.1 1.994c-7.104 1-13.641-3.744-14.879-10.811l-2.461-14.025c-.427-2.43-1.95-4.527-4.13-5.684l-12.58-6.676c-6.337-3.361-8.833-11.044-5.682-17.489l6.254-12.794c1.083-2.218 1.083-4.811 0-7.027l-6.254-12.793c-3.151-6.445-.655-14.128 5.682-17.49l12.579-6.674c2.18-1.157 3.704-3.255 4.131-5.685l2.461-14.027c1.239-7.066 7.769-11.808 14.879-10.81l14.1 1.994c2.445.346 4.91-.455 6.683-2.171l10.234-9.901c5.156-4.988 13.234-4.988 18.391 0l10.234 9.901c3.176 3.072 8.24 2.988 11.313-.188 3.071-3.176 2.988-8.24-.188-11.313l-10.234-9.901c-11.395-11.021-29.246-11.021-40.641 0l-7.424 7.183-10.228-1.446c-15.708-2.221-30.14 8.272-32.879 23.887l-1.785 10.175-9.125 4.842c-14.004 7.431-19.52 24.408-12.558 38.651l4.537 9.279-4.537 9.28c-6.961 14.243-1.446 31.22 12.559 38.65z"/><path d="m213.645 378.499c3.706 2.407 8.66 1.351 11.065-2.354l44-67.789c2.406-3.706 1.352-8.66-2.354-11.065-3.708-2.408-8.66-1.351-11.065 2.354l-44 67.789c-2.407 3.706-1.352 8.66 2.354 11.065z"/><circle cx="269.152" cy="362.674" r="12"/><circle cx="210.848" cy="313.115" r="12"/></g></svg>