<svg id="Layer_1" enable-background="new 0 0 480 480" height="512" viewBox="0 0 480 480" width="512" xmlns="http://www.w3.org/2000/svg"><path d="m357.56 377.846c-.1 0-43.001-14.828-43.1-14.86-22.808-7.44-36.369-28.695-36.48-50.89 34.14-14.44 58.44-47.73 59.91-86.91 14.71.545 26.08-11.095 26.08-24.96 0-49.16.107-57.506-.07-58.216 3.722-7.802 3.879-16.216 1.07-23.784.1 0 .03 11.983.03-42.69 0-37.73-30.58-68.31-68.31-68.31h-113.38c-37.73 0-68.31 30.58-68.31 68.31v42.69c-.147 0-4.253 10.173-.03 21.31 0 .267 2.156 4.833 1 2.38v58.77c0 13.55 11.231 25.097 26.02 24.49 1.53 39.18 25.82 72.52 59.97 86.97-.1 16.06-7.37 31.35-19.61 41.36-4.69 3.95-10.8 7.23-13.7 8.27-2.33 1.09-46.09 15.88-46.29 16.08-21.78 7.55-36.39 28.08-36.39 51.14v34.23c0 4.42 3.58 8 8 8h292c4.42 0 8-3.58 8-8v-34.23c0-23.07-14.62-43.6-36.41-51.15z" fill="#ffebd2"/><path d="m205.147 275.16c16.321 14.48-3.752 39.589-21.507 26.907-26.234-18.738-41.67-48.551-41.67-80.711v-61.91l15.466 2.464c8.372 1.334 14.534 8.555 14.534 17.033v21.413c0 30.632 13.367 57.228 33.177 74.804z" fill="#fff3e4"/><path d="m273.66 330.31c-20.58 7.55-45.68 7.95-67.22.07-3.63-1.33-5.86-5.01-5.22-8.82 0-.296.75-3.654.75-8.99 23.6 9.82 51.15 10.34 76 0 0 5.292.75 8.797.75 8.99.63 3.75-1.49 7.44-5.06 8.75z" fill="#ffdfba"/><path d="m363.97 142.69v58.31c0 13.836-11.342 25.506-26.08 24.96.114-2.34.08 1.758.08-65.58l3.13-.5c10.51-1.68 18.74-8.43 22.87-17.19z" fill="#585966"/><path d="m141.99 225.95c-14.781.606-26.02-10.931-26.02-24.49v-58.77c4.13 8.76 12.36 15.51 22.87 17.19l3.12.5s-.02 64.28.03 65.57z" fill="#6e6f80"/><path d="m394 429.77v34.23c0 4.418-3.582 8-8 8h-292c-4.418 0-8-3.582-8-8v-34.23c0-23.06 14.61-43.59 36.39-51.14.1-.098 32.245-11.086 43.12-14.87 11.593-3.995 21.323-11.711 27.86-21.87l46.63 52.11 46.63-52.11c6.536 10.157 16.325 17.894 27.86 21.87.1.035 43 14.86 43.1 14.86 21.79 7.55 36.41 28.08 36.41 51.15z" fill="#80aaff"/><g fill="#9cbcff"><path d="m180.946 375.909c.874 3.968-1.361 7.959-5.202 9.283-25.083 8.647-59.647 21.867-62.773 80.384-.203 3.805-4.027 6.424-7.837 6.424h-11.134c-4.418 0-8-3.582-8-8v-34.23c0-23.06 14.61-43.59 36.39-51.14 0 0 .01-.01.03-.01 39.533-14.147 45.279-14.441 54.62-20.44z"/><path d="m223.53 375.59-23.075 28.498c-4.218 5.209-12.585 3.23-14.027-3.315-9.476-42.992-9.387-42.493-9.387-42.593 6.61-4.23 12.16-9.81 16.33-16.29z"/><path d="m286.63 341.89c4.17 6.48 9.72 12.06 16.33 16.29l-9.385 42.595c-1.442 6.546-9.815 8.523-14.032 3.314l-23.073-28.499z"/></g><path d="m289.721 396.34c4.782 6.506-4.439 14.836-10.179 7.749l-23.072-28.499 30.16-33.7c2.009 3.129 4.34 6.043 6.959 8.699 2.352 2.385 2.386 6.21.152 8.705l-4.061 4.536c-9.003 10.055-7.022 22.9.041 32.51z" fill="#c2d6ff"/><path d="m192.05 373.31 5.517 25.004c1.537 6.965-8.812 9.982-10.945 3.176-.179-.571.482 2.348-9.581-43.31 6.62-4.23 12.16-9.81 16.33-16.29l6.441 7.196c2.324 2.596 1.846 6.721-1.107 8.571-4.974 3.114-8.099 9.074-6.655 15.653z" fill="#c2d6ff"/><path d="m296.69 8h-113.38c-37.73 0-68.31 30.58-68.31 68.31v42.69h250v-42.69c0-37.73-30.58-68.31-68.31-68.31z" fill="#80aaff"/><path d="m298.885 8.035c12.93.408 12.559 19.831-.377 19.946-18.224.162-44.725.211-85.198.019-37.729-.178-68.31 30.58-68.31 68.31v14.69c0 4.418-3.582 8-8 8h-22v-42.69c0-37.727 30.583-68.31 68.31-68.31 0 0 114.846.012 115.575.035z" fill="#9cbcff"/><path d="m365 119c6.726 18.103-4.804 37.83-23.87 40.88l-63.48 10.12c-24.94 3.97-50.36 3.97-75.3 0l-63.48-10.12c-18.995-3.036-30.606-22.678-23.87-40.88z" fill="#c2d6ff"/><path d="m341.13 159.88-63.48 10.12c-22.76 3.623-42.387 3.416-57.555 2.141-7.432-.625-10.07-10.281-3.922-14.504 11.229-7.713 19.1-19.158 22.567-32.714.896-3.505 4.105-5.924 7.723-5.924h118.537c6.726 18.104-4.804 37.831-23.87 40.881z" fill="#9cbcff"/><g><path d="m360.117 371.024-43.015-14.83c-11.055-3.813-20.174-11.597-25.678-21.918-2.079-3.898-6.925-5.373-10.823-3.295-3.57 1.904-5.099 6.126-3.736 9.819l-36.865 41.203-18.287-20.438c-2.945-3.292-8.002-3.574-11.296-.628-3.292 2.946-3.574 8.004-.627 11.296l3.234 3.614-18.785 23.206-8.249-37.438c11.897-9.268 20.146-22.658 22.949-37.667 63.637 19.564 129.54-24.355 136.478-90.578 15.133-2.995 26.583-16.369 26.583-32.37v-12.129c0-4.418-3.582-8-8-8s-8 3.582-8 8v12.129c0 6.877-4.112 12.8-10 15.474v-49.46c22.054-5.695 34.494-29.276 26.5-50.799-1.165-3.135-4.156-5.215-7.5-5.215h-205.291c-4.418 0-8 3.582-8 8s3.582 8 8 8h199.055c1.418 11.868-6.764 23.044-18.894 24.978l-63.476 10.119c-24.149 3.85-48.64 3.85-72.789 0l-63.475-10.119c-13.134-2.093-22.745-15.496-17.582-30.346.642-1.845.452 1.204.452-45.325 0-33.253 27.053-60.307 60.307-60.307h113.387c33.253 0 60.306 27.054 60.306 60.307v3.403c0 4.418 3.582 8 8 8s8-3.582 8-8v-3.403c0-42.076-34.231-76.307-76.307-76.307h-113.386c-42.076 0-76.307 34.231-76.307 76.307v41.379c-2.874 8.792-2.494 18.2 1 26.659v55.365c0 4.418 3.582 8 8 8s8-3.582 8-8v-36.843c3.09 1.83 6.421 3.227 9.959 4.142v55.059c.018 26.278 9.613 51.521 27.059 71.077 1.581 1.772 3.771 2.675 5.973 2.675 6.854 0 10.566-8.171 5.967-13.325-14.831-16.625-22.984-38.089-23-60.426v-52.319c52.659 8.391 65.347 11.234 90.042 11.234 23.897 0 33.459-2.217 90-11.231v52.496c-.042 61.063-61.281 108.744-124.931 83.285-3.099-1.292-6.613-.486-8.855 1.87-2.448 2.571-2.218 5.649-2.217 5.523-.15 19.52-12.641 36.902-31.1 43.267 0 0-42.995 14.824-43.011 14.829-25.212 8.164-41.886 32.248-41.886 58.75v42.227c0 4.418 3.582 8 8 8s8-3.582 8-8v-42.227c0-19.679 12.5-37.21 31.104-43.625-.035-.101 44.143-15.196 46.358-16.106l10.726 48.679c1.438 6.526 9.815 8.52 14.03 3.312l27.612-34.108 8.17 9.131v50.344c0 4.418 3.582 8 8 8s8-3.582 8-8v-50.344l8.171-9.132 27.612 34.108c4.195 5.185 12.587 3.24 14.03-3.312l5.961-27.057c.951-4.315-1.776-8.584-6.091-9.534-4.311-.954-8.583 1.777-9.534 6.091l-2.386 10.829-18.785-23.204 19.201-21.46c6.951 7.652 15.741 13.496 25.709 16.934 0 0 42.898 14.789 43.01 14.828 18.565 6.526 31.102 23.948 31.102 43.626v42.227c0 4.418 3.582 8 8 8s8-3.582 8-8v-42.227c0-26.5-16.831-50.109-41.883-58.749z"/><path d="m215 198c-4.418 0-8 3.582-8 8v14c0 4.418 3.582 8 8 8s8-3.582 8-8v-14c0-4.418-3.582-8-8-8z"/><path d="m265 228c4.418 0 8-3.582 8-8v-14c0-4.418-3.582-8-8-8s-8 3.582-8 8v14c0 4.418 3.582 8 8 8z"/><path d="m227.678 258.363c-3.124-3.123-8.189-3.123-11.313 0-3.125 3.125-3.125 8.189 0 11.314 13.062 13.062 34.207 13.065 47.271 0 3.125-3.125 3.125-8.189 0-11.314-3.124-3.123-8.189-3.123-11.313 0-6.796 6.795-17.85 6.795-24.645 0z"/><path d="m335 444h-42c-4.418 0-8 3.582-8 8s3.582 8 8 8h42c4.418 0 8-3.582 8-8s-3.582-8-8-8z"/></g></svg>