<svg id="Layer_1" enable-background="new 0 0 480.47 480.47" height="512" viewBox="0 0 480.47 480.47" width="512" xmlns="http://www.w3.org/2000/svg"><path d="m414.366 169.133c-3.94-8.48-14.28-11.78-22.41-7.17l-170.83 96.86v-196.35c0-9.32-7.93-16.71-17.22-15.96-109.669 8.767-195.78 100.567-195.78 212.31 0 117.767 95.581 213.189 213.32 213 117.842-.154 213.184-95.226 212.68-213.93-.14-31.7-7.2-61.77-19.76-88.76z" fill="#cbe3fa"/><path d="m414.429 169.269c3.53 7.608.533 16.658-6.763 20.794l-132.503 75.131c-18.459 10.467-34.243-17.593-15.879-28.006l132.672-75.225c7.959-4.513 18.369-1.538 22.473 7.306z" fill="#eef7ff"/><path d="m221.126 258.823 104.99 185.56c-44.581 25.18-95.001 32.326-141.34 24.35z" fill="#fff0a6"/><path d="m221.126 258.823-36.35 209.91c-123.633-21.259-203.498-145.848-168.5-268.44z" fill="#befa91"/><path d="m86.559 424.004c-64.505-52.582-94.18-140.005-70.283-223.711l46.563 13.304c4.336 1.239 6.806 5.82 5.422 10.111-20.637 63.964-9.584 134.623 29.897 189.476 5.46 7.585-4.356 16.725-11.599 10.82z" fill="#daffbf"/><path d="m221.126 62.473v196.35l-204.85-58.53c23.91-83.87 97.94-146.61 187.63-153.78 9.29-.75 17.22 6.64 17.22 15.96z" fill="#80aaff"/><path d="m221.126 62.473v13.058c0 3.617-2.432 6.77-5.922 7.717-64.564 17.514-116.947 64.637-141.662 125.898-1.54 3.817-5.679 5.886-9.637 4.756l-47.63-13.608c23.91-83.87 97.94-146.61 187.63-153.78 9.291-.751 17.221 6.639 17.221 15.959z" fill="#9cbcff"/><path d="m408.266 83.423c5.92 8.18 3.47 19.69-5.27 24.73l-123.73 71.43c-8.51 4.91-19.135-1.23-19.135-11.05v-142.87c0-10.1 8.755-17.96 18.795-16.93 51.74 5.35 98.84 32.54 129.34 74.69z" fill="#ff6d7a"/><path d="m321.706 18.454c6.817 2.44 4.182 12.695-2.969 11.562-3.25-.515-6.521-.943-9.811-1.282-10.04-1.03-18.795 6.83-18.795 16.93v124.186c0 2.143-1.149 4.124-3.005 5.196l-7.86 4.538c-8.51 4.91-19.135-1.23-19.135-11.05v-142.871c0-10.1 8.755-17.96 18.795-16.93 14.726 1.524 29.079 4.817 42.78 9.721z" fill="#ff8c95"/><path d="m466.806 275.873c7.57 5.24 7.56 16.55-.01 21.78-10.01 6.92-18.69 15.61-25.62 25.64-5.23 7.56-16.53 7.54-21.76-.02-6.91-10-15.58-18.69-25.62-25.63-7.57-5.23-7.55-16.54.02-21.78 10-6.92 18.68-15.6 25.62-25.63 5.22-7.56 16.52-7.55 21.75.01 6.91 10 15.59 18.69 25.62 25.63z" fill="#fff8d6"/><path d="m123.736 72.823c8.53 5.9 8.51 18.64-.01 24.54-11.27 7.79-21.05 17.57-28.86 28.86-5.89 8.52-18.61 8.5-24.49-.01-7.79-11.26-17.56-21.05-28.86-28.87-8.53-5.89-8.51-18.63.01-24.53 11.27-7.79 21.05-17.57 28.86-28.87 5.89-8.51 18.61-8.5 24.49.02 7.79 11.26 17.56 21.05 28.86 28.86z" fill="#fff0a6"/><g><path d="m471.358 269.295c-9.255-6.4-17.194-14.341-23.595-23.599-8.398-12.145-26.506-12.175-34.912-.014-6.399 9.258-14.337 17.198-23.593 23.603-12.151 8.406-12.178 26.528-.013 34.941 15.341 10.608 22.33 22.114 24.601 24.913-16.042 44.273-46.386 80.485-84.811 104.167l-73.735-130.326c-2.175-3.844-7.056-5.198-10.902-3.023-3.845 2.176-5.199 7.057-3.023 10.902l73.724 130.305c-28.313 14.535-60.256 22.635-93.669 22.659-133.083.096-230.928-124.137-199.453-253.579 148.79 42.511 139.649 40.074 141.38 40.074 3.481 0 6.685-2.29 7.688-5.805 1.213-4.248-1.247-8.676-5.495-9.89l-139.211-39.773c4.08-12.459 9.351-24.523 15.767-35.988 2.158-3.855.782-8.73-3.074-10.889-3.857-2.156-8.73-.781-10.888 3.074-8.239 14.721-14.952 30.883-19.568 47.048-39.986 139.937 64.739 281.728 212.547 281.728 39.24 0 76.232-10.257 108.178-28.112.572-.25.922-.426 1.539-.877 46.075-26.238 82.254-68.786 99.867-121.434 1.03-3.07.091-6.546-2.468-8.679-.801-.667-1.468-.885-2.237-1.996-7.504-10.854-16.809-20.159-27.654-27.658-2.974-2.057-2.955-6.569.016-8.625 10.847-7.505 20.15-16.812 27.651-27.662 2.048-2.962 6.543-2.944 8.589.016 7.502 10.851 16.806 20.156 27.654 27.658 2.974 2.057 2.955 6.569-.016 8.625-4.355 3.013-8.526 6.374-12.397 9.99-3.228 3.017-3.4 8.079-.383 11.308s8.079 3.399 11.307.384c3.302-3.086 6.86-5.953 10.577-8.523 12.147-8.408 12.18-26.527.012-34.943z"/><path d="m36.961 103.927c10.523 7.277 19.55 16.306 26.83 26.834 9.055 13.097 28.59 13.132 37.657.016 6.652-9.625 14.802-18.028 24.223-24.977 3.556-2.623 4.312-7.632 1.689-11.188s-7.632-4.312-11.187-1.689c-10.845 8-20.228 17.675-27.887 28.756-2.704 3.912-8.616 3.914-11.334-.018-8.382-12.121-18.775-22.516-30.889-30.894-3.925-2.713-3.926-8.646.018-11.373 12.118-8.385 22.509-18.78 30.885-30.898 2.704-3.912 8.616-3.914 11.334.018 7.669 11.091 17.166 20.863 27.876 28.743 2.371 1.758 5.718 2.106 8.518.618 24.845-13.27 51.711-21.14 79.853-23.391 4.6-.378 8.578 3.306 8.578 7.985v195.666l-28.25 163.16c-.754 4.354 2.165 8.494 6.518 9.248 4.344.753 8.493-2.157 9.248-6.518l27.722-160.109 167.539-94.996c4.064-2.304 9.231-.666 11.209 3.585 4.494 9.661 8.253 19.749 11.174 29.982 1.212 4.249 5.638 6.706 9.888 5.498 4.249-1.213 6.71-5.64 5.498-9.889-3.15-11.039-7.205-21.92-12.053-32.34-5.906-12.696-21.425-17.663-33.608-10.755l-158.885 90.089v-182.621c0-13.962-11.912-25.043-25.853-23.935-28.607 2.289-55.991 9.966-81.482 22.827-7.781-6.315-14.61-13.676-20.33-21.948-9.055-13.097-28.59-13.132-37.657-.016-7.275 10.526-16.301 19.556-26.827 26.838-13.105 9.069-13.136 28.616-.015 37.692z"/><path d="m283.26 186.511 113.976-65.791c3.826-2.209 5.138-7.102 2.929-10.928-2.209-3.827-7.103-5.138-10.928-2.93l-113.976 65.791c-3.165 1.829-7.131-.445-7.13-4.121v-142.869c.001-5.31 4.583-9.515 9.97-8.967 49.458 5.104 94.537 31.137 123.679 71.419.391.54.72 1.116.979 1.712 1.765 4.049 6.478 5.903 10.529 4.139 4.051-1.765 5.904-6.479 4.14-10.529-.718-1.646-1.62-3.227-2.684-4.698-31.811-43.971-81.017-72.386-135-77.958-14.808-1.518-27.613 10.111-27.614 24.881v142.868c0 15.982 17.28 25.974 31.13 17.981z"/><path d="m96.77 358.322c3.704 2.407 8.66 1.352 11.066-2.354l44-67.789c2.405-3.706 1.351-8.66-2.355-11.065-3.705-2.407-8.66-1.351-11.066 2.354l-44 67.789c-2.405 3.706-1.351 8.66 2.355 11.065z"/><circle cx="152.278" cy="342.497" r="12"/><circle cx="93.973" cy="292.938" r="12"/></g></svg>