<svg id="Layer_1" enable-background="new 0 0 480 480" height="512" viewBox="0 0 480 480" width="512" xmlns="http://www.w3.org/2000/svg"><path d="m370.76 55.43h-337.52c-13.94 0-25.24 11.3-25.24 25.24v318.66c0 13.939 11.3 25.24 25.24 25.24h337.52c13.94 0 25.24-11.3 25.24-25.24v-318.66c0-13.94-11.3-25.24-25.24-25.24z" fill="#c79a83"/><path d="m277.65 85.43h-66.65c-4.418 0-8-3.582-8-8v-22h74.18c21.256 0 19.941 30 .47 30z" fill="#e0b7a3"/><path d="m106.48 55.43v22c0 4.418-3.582 8-8 8h-25.24c-13.94 0-25.24 11.3-25.24 25.24v299.14c0 8.152-6.608 14.76-14.76 14.76-13.94 0-25.24-11.3-25.24-25.24v-318.66c0-13.94 11.3-25.24 25.24-25.24z" fill="#e0b7a3"/><path d="m396 399.33c0 13.94-11.3 25.24-25.24 25.24h-93.58c13.94 0 25.24-11.3 25.24-25.24v-318.66c0-13.94-11.3-25.24-25.24-25.24h93.58c13.94 0 25.24 11.3 25.24 25.24z" fill="#a07765"/><path d="m203 55.43v74.65c0 9.73-10.96 15.41-18.91 9.81l-4.96-3.49-15.3 10.55c-5.47 3.77-12.71 3.77-18.18 0l-15.3-10.55-4.96 3.49c-7.95 5.6-18.91-.08-18.91-9.81v-74.65z" fill="#cbe3fa"/><path d="m203 55.43v22c0 4.418-3.582 8-8 8h-80.52c-4.418 0-8-3.582-8-8v-22z" fill="#eef7ff"/><path d="m108.94 343.6v24.19c0 9.29-7.53 16.82-16.82 16.82h-24.19c-9.29 0-16.82-7.53-16.82-16.82v-24.19c0-9.29 7.53-16.82 16.82-16.82h24.19c9.29 0 16.82 7.53 16.82 16.82z" fill="#a07765"/><g><path d="m472 198.667h-68v-50.667h42c4.418 0 8-3.582 8-8s-3.582-8-8-8h-42v-51.333c0-18.326-14.909-33.236-33.235-33.236h-29.636c-4.418 0-8 3.582-8 8s3.582 8 8 8h29.636c9.504 0 17.235 7.732 17.235 17.236v318.666c0 9.504-7.731 17.236-17.235 17.236h-337.529c-9.504 0-17.236-7.732-17.236-17.236v-318.666c0-9.504 7.732-17.236 17.236-17.236h161.764v66.652c0 3.246-3.649 5.14-6.304 3.27l-4.96-3.496c-2.739-1.93-6.393-1.948-9.152-.046l-15.301 10.556c-2.718 1.876-6.369 1.875-9.085 0l-15.301-10.556c-2.759-1.904-6.413-1.886-9.152.046l-4.959 3.496c-2.654 1.869-6.304-.022-6.304-3.27v-39.244c0-4.418-3.582-8-8-8s-8 3.582-8 8v39.244c0 15.832 17.828 26 31.922 16.065l10.708 7.388c8.149 5.623 19.104 5.625 27.257 0l10.708-7.388c14.103 9.929 31.922-.231 31.922-16.065v-66.652h66.182c9.504 0 17.235 7.732 17.235 17.236v291.979c0 4.418 3.582 8 8 8s8-3.582 8-8v-291.979c0-18.326-14.909-33.236-33.235-33.236h-243.945c-18.326 0-33.236 14.91-33.236 33.236v318.666c0 18.326 14.91 33.236 33.236 33.236h337.529c18.103 0 32.861-14.551 33.219-32.569h68.016c4.418 0 8-3.582 8-8s-3.582-8-8-8h-68v-102.667h24c4.418 0 8-3.582 8-8s-3.582-8-8-8h-24v-50.666h68c4.418 0 8-3.582 8-8s-3.582-8-8-8z"/><path d="m433 94h39c4.418 0 8-3.582 8-8s-3.582-8-8-8h-39c-4.418 0-8 3.582-8 8s3.582 8 8 8z"/><path d="m472 332h-38c-4.418 0-8 3.582-8 8s3.582 8 8 8h38c4.418 0 8-3.582 8-8s-3.582-8-8-8z"/><path d="m472 265.333h-11c-4.418 0-8 3.582-8 8s3.582 8 8 8h11c4.418 0 8-3.582 8-8s-3.582-8-8-8z"/><path d="m67.935 334.78h24.184c4.418 0 8-3.582 8-8s-3.582-8-8-8h-24.184c-13.688 0-24.824 11.136-24.824 24.824v24.185c0 13.688 11.136 24.823 24.824 24.823h24.184c13.688 0 24.824-11.136 24.824-24.823 0-4.418-3.582-8-8-8s-8 3.582-8 8c0 4.865-3.958 8.823-8.824 8.823h-24.184c-4.865 0-8.824-3.958-8.824-8.823v-24.185c0-4.865 3.959-8.824 8.824-8.824z"/></g></svg>