<svg id="Layer_1" enable-background="new 0 0 480 480" height="512" viewBox="0 0 480 480" width="512" xmlns="http://www.w3.org/2000/svg"><path d="m461.28 130.45c-17.57-6.23-31.5-20.16-37.73-37.73-2.27-6.41-8.29-10.72-15.09-10.72h-68.46c-4.418 0-8 3.582-8 8v1.5c0 16.416-13.344 29.5-29.5 29.5-16.191 0-29.5-13.118-29.5-29.5v-1.5c0-4.418-3.582-8-8-8h-193.46c-6.8 0-12.82 4.31-15.09 10.72-6.23 17.57-20.16 31.5-37.73 37.73-6.41 2.27-10.72 8.29-10.72 15.09v188.92c0 6.8 4.31 12.82 10.72 15.09 17.57 6.23 31.5 20.16 37.73 37.73 2.27 6.41 8.29 10.72 15.09 10.72h193.46c4.418 0 8-3.582 8-8v-1.5c0-16.385 13.312-29.5 29.5-29.5 16.167 0 29.5 13.094 29.5 29.5v1.5c0 4.418 3.582 8 8 8h68.46c6.8 0 12.82-4.31 15.09-10.72 6.23-17.57 20.16-31.5 37.73-37.73 6.41-2.27 10.72-8.29 10.72-15.09v-188.92c0-6.8-4.31-12.82-10.72-15.09z" fill="#daffbf"/><path d="m472 145.54v188.92c0 6.8-4.31 12.82-10.72 15.09-17.57 6.23-31.5 20.16-37.73 37.73-2.27 6.41-8.29 10.72-15.09 10.72h-68.46c-4.418 0-8-3.582-8-8v-1.5c0-16.41-13.33-29.5-29.5-29.5-16.19 0-29.5 13.12-29.5 29.5v1.5c0 4.418-3.582 8-8 8h-46.903c-6.81 0-10.548-8.002-6.108-13.166 69.937-81.338 76.636-188.081 43.667-289.986-2.054-6.346 2.674-12.848 9.344-12.848 4.418 0 8 3.582 8 8v1.5c0 16.38 13.31 29.5 29.5 29.5 16.16 0 29.5-13.08 29.5-29.5v-1.5c0-4.418 3.582-8 8-8h68.46c6.8 0 12.82 4.31 15.09 10.72 6.23 17.57 20.16 31.5 37.73 37.73 6.41 2.27 10.72 8.29 10.72 15.09z" fill="#befa91"/><path d="m231.67 199.04c10.16 5.38 14.21 17.83 9.16 28.14l-6.28 12.82 6.28 12.82c5.05 10.31 1 22.76-9.16 28.14l-12.63 6.69-2.47 14.05c-1.98 11.31-12.59 19-23.97 17.39l-14.15-2-10.28 9.93c-8.26 7.97-21.37 7.97-29.63 0l-10.28-9.93-14.15 2c-11.38 1.61-21.99-6.08-23.98-17.39l-2.47-14.05-12.63-6.69c-10.15-5.38-14.2-17.83-9.15-28.14l6.28-12.82-6.28-12.82c-5.05-10.31-1-22.76 9.15-28.14l12.63-6.69 2.47-14.05c1.99-11.31 12.6-19 23.98-17.39l14.15 2 10.28-9.93c8.26-7.97 21.37-7.97 29.63 0l10.28 9.93 14.15-2c11.38-1.61 21.99 6.08 23.97 17.39l2.47 14.05z" fill="#f8fff2"/><g><path d="m235.419 191.974-9.172-4.858-1.793-10.204c-2.748-15.638-17.221-26.165-32.972-23.924l-10.288 1.452-7.467-7.211c-11.424-11.031-29.323-11.029-40.747 0l-7.466 7.211-10.289-1.452c-15.734-2.233-30.225 8.285-32.971 23.924l-1.794 10.204-9.171 4.858c-14.053 7.442-19.586 24.452-12.598 38.723l4.557 9.303-4.556 9.304c-6.988 14.271-1.455 31.28 12.597 38.723l9.172 4.858 1.794 10.203c2.747 15.64 17.238 26.145 32.97 23.926l10.29-1.453 7.466 7.211c11.426 11.033 29.322 11.032 40.748 0l7.466-7.211 10.288 1.452c15.749 2.23 30.223-8.286 32.972-23.924l2.47-14.058c.765-4.353-2.143-8.5-6.495-9.264-4.342-.768-8.498 2.143-9.263 6.494l-2.47 14.058c-1.248 7.095-7.82 11.859-14.976 10.851l-14.155-1.999c-2.451-.346-4.904.455-6.677 2.167l-10.274 9.924c-5.193 5.016-13.327 5.014-18.519 0l-10.275-9.924c-1.772-1.712-4.233-2.506-6.676-2.167l-14.157 1.999c-7.148 1.011-13.729-3.755-14.975-10.851l-2.471-14.058c-.427-2.432-1.953-4.529-4.134-5.685l-12.63-6.689c-6.371-3.375-8.882-11.082-5.717-17.547l6.279-12.822c1.087-2.22 1.087-4.817 0-7.037l-6.279-12.822c-3.165-6.465-.654-14.172 5.718-17.547l12.629-6.689c2.181-1.155 3.707-3.253 4.134-5.685l2.471-14.059c1.247-7.093 7.82-11.855 14.976-10.85l14.156 1.999c2.441.342 4.902-.456 6.676-2.167l10.275-9.924c5.191-5.014 13.326-5.014 18.518 0l10.275 9.924c1.772 1.711 4.227 2.512 6.677 2.167l14.155-1.999c7.149-1.014 13.729 3.756 14.976 10.851l2.47 14.058c.427 2.431 1.952 4.529 4.134 5.685l12.63 6.689c6.371 3.375 8.882 11.082 5.717 17.548l-6.278 12.822c-1.087 2.219-1.087 4.816 0 7.035l6.278 12.822c1.942 3.969 6.734 5.611 10.702 3.667 3.969-1.942 5.61-6.734 3.667-10.702l-4.557-9.304 4.556-9.304c6.988-14.27 1.455-31.28-12.597-38.722z"/><path d="m126.645 280.499c3.706 2.407 8.66 1.351 11.065-2.354l44-67.789c2.406-3.706 1.352-8.66-2.354-11.065-3.708-2.408-8.66-1.351-11.065 2.354l-44 67.789c-2.407 3.706-1.353 8.66 2.354 11.065z"/><circle cx="182.152" cy="264.674" r="12"/><circle cx="123.848" cy="215.115" r="12"/><path d="m463.951 122.906c-15.19-5.384-27.474-17.667-32.856-32.856-3.403-9.6-12.499-16.05-22.638-16.05h-76.457c-4.418 0-8 3.582-8 8s3.582 8 8 8h76.457c3.376 0 6.413 2.168 7.557 5.395 7.083 19.984 22.607 35.509 42.593 42.593 3.226 1.143 5.394 4.18 5.394 7.556v188.914c0 3.376-2.168 6.413-5.395 7.557-19.984 7.083-35.509 22.607-42.593 42.593-1.143 3.226-4.18 5.394-7.556 5.394h-68.457v-1.5c0-18.11-12.904-33.261-30-36.745v-13.757c0-4.418-3.582-8-8-8s-8 3.582-8 8v13.983c-16.595 3.862-29 18.763-29 36.517v1.5h-193.457c-3.376 0-6.413-2.168-7.557-5.395-7.083-19.984-22.607-35.509-42.593-42.593-3.226-1.143-5.394-4.18-5.394-7.556v-188.913c0-3.376 2.168-6.413 5.395-7.557 19.984-7.083 35.509-22.607 42.593-42.593 1.143-3.225 4.18-5.393 7.556-5.393h193.457v1.5c0 17.637 12.438 32.628 29 36.519v13.981c0 4.418 3.582 8 8 8s8-3.582 8-8v-21.004c0-4.366-3.501-7.926-7.867-7.999-11.653-.194-21.133-9.838-21.133-21.497v-9.5c0-4.418-3.582-8-8-8h-201.457c-10.139 0-19.235 6.45-22.637 16.049-5.384 15.19-17.667 27.474-32.856 32.856-9.6 3.403-16.05 12.499-16.05 22.638v188.914c0 10.139 6.45 19.235 16.049 22.637 15.19 5.384 27.474 17.667 32.856 32.856 3.402 9.6 12.499 16.05 22.638 16.05h201.457c4.418 0 8-3.582 8-8v-9.5c0-11.855 9.645-21.5 21.5-21.5s21.5 9.645 21.5 21.5v9.5c0 4.418 3.582 8 8 8h76.457c10.139 0 19.235-6.45 22.637-16.049 5.384-15.19 17.667-27.474 32.856-32.856 9.6-3.402 16.05-12.499 16.05-22.638v-188.914c0-10.139-6.45-19.235-16.049-22.637z"/><path d="m310 183c0-4.418-3.582-8-8-8s-8 3.582-8 8v35c0 4.418 3.582 8 8 8s8-3.582 8-8z"/><path d="m302 254c-4.418 0-8 3.582-8 8v35c0 4.418 3.582 8 8 8s8-3.582 8-8v-35c0-4.418-3.582-8-8-8z"/><path d="m362 198h53c4.418 0 8-3.582 8-8s-3.582-8-8-8h-53c-4.418 0-8 3.582-8 8s3.582 8 8 8z"/><path d="m362 298h33c4.418 0 8-3.582 8-8s-3.582-8-8-8h-33c-4.418 0-8 3.582-8 8s3.582 8 8 8z"/><path d="m362 248h53c4.418 0 8-3.582 8-8s-3.582-8-8-8h-53c-4.418 0-8 3.582-8 8s3.582 8 8 8z"/></g></svg>