<svg id="Layer_1" enable-background="new 0 0 480.008 480.008" height="512" viewBox="0 0 480.008 480.008" width="512" xmlns="http://www.w3.org/2000/svg"><path d="m340.999 297.055-.01-.01c50.6-71.53 43.87-171.19-20.18-235.24-71.57-71.57-187.6-71.57-259.17 0-71.57 71.57-71.57 187.6 0 259.17 64.09 64.09 163.84 70.79 235.38 20.08l.01.01c44.01 74.68 119.88 162.68 161.06 119.54l2.48-2.48c43.139-41.18-44.88-117.05-119.57-161.07z" fill="#befa91"/><path d="m46.274 275.079c3.738 9.289-9.434 15.712-14.361 6.995-38.596-68.29-31.757-158.787 29.725-220.27 37.059-37.059 86.04-54.93 134.597-53.61 9.972.271 10.559 14.904.638 15.952-120.047 12.673-196.399 137.113-150.599 250.933z" fill="#daffbf"/><path d="m340.999 297.055c74.69 44.02 162.71 119.89 119.57 161.07l-2.48 2.48c-41.18 43.14-117.05-44.86-161.06-119.54-.392-.399 22.628-13.802 43.96-44.02z" fill="#585966"/><path d="m451.093 444.997c7.738.065 12.388 8.961 6.996 15.607-41.18 43.14-117.05-44.86-161.06-119.54-.116-.118 5.947-3.879 15.293-12.12 4.298-3.79 10.981-2.835 14.062 1.996 35.832 56.173 86.401 113.737 124.709 114.057z" fill="#6e6f80"/><path d="m292.038 90.575c55.72 55.72 55.72 145.9 0 201.63-55.72 55.72-145.9 55.72-201.63 0-55.72-55.72-55.73-145.91 0-201.63 55.72-55.72 145.9-55.73 201.63 0z" fill="#cbe3fa"/><path d="m86.294 262.6c3.664 8.944-8.769 15.512-14.077 7.434-35.319-53.749-32.354-128.923 18.192-179.46 32.814-32.813 77.58-46.308 120.224-40.472 9.562 1.309 9.049 15.362-.587 15.913-96.771 5.528-161.246 105.059-123.752 196.585z" fill="#eef7ff"/><path d="m269.628 150.065c10.16 5.38 14.21 17.83 9.16 28.14l-6.28 12.82 6.28 12.82c5.05 10.31 1 22.76-9.16 28.14l-12.63 6.69-2.47 14.05c-1.98 11.31-12.59 19-23.97 17.39l-14.15-2-10.28 9.93c-8.26 7.97-21.37 7.97-29.63 0l-10.28-9.93-14.15 2c-11.38 1.61-21.99-6.08-23.98-17.39l-2.47-14.05-12.63-6.69c-10.15-5.38-14.2-17.83-9.15-28.14l6.28-12.82-6.28-12.82c-5.05-10.31-1-22.76 9.15-28.14l12.63-6.69 2.47-14.05c1.99-11.31 12.6-19 23.98-17.39l14.15 2 10.28-9.93c8.26-7.97 21.37-7.97 29.63 0l10.28 9.93 14.15-2c11.38-1.61 21.99 6.08 23.97 17.39l2.47 14.05z" fill="#fff0a6"/><path d="m141.658 372.215c9.24 6.4 9.22 20.2-.02 26.6-12.21 8.45-22.82 19.05-31.28 31.29-6.39 9.24-20.18 9.22-26.56-.01-8.44-12.21-19.03-22.82-31.29-31.3-9.24-6.39-9.22-20.2.02-26.59 12.21-8.45 22.82-19.05 31.28-31.3 6.39-9.23 20.18-9.21 26.56.02 8.44 12.21 19.03 22.82 31.29 31.29z" fill="#fff0a6"/><path d="m380.268 39.305c7.57 5.23 7.56 16.54-.01 21.78-10.01 6.92-18.69 15.6-25.62 25.63-5.23 7.56-16.53 7.55-21.75-.01-6.92-10-15.59-18.69-25.63-25.63-7.57-5.24-7.55-16.55.02-21.79 10-6.92 18.68-15.6 25.62-25.63 5.22-7.56 16.52-7.54 21.75.02 6.91 9.99 15.59 18.69 25.62 25.63z" fill="#fff8d6"/><g><path d="m53.129 227.931c-4.202 1.366-6.5 5.88-5.134 10.082 7.381 22.702 19.748 42.838 36.757 59.848 58.883 58.883 154.047 58.896 212.942 0 58.882-58.883 58.898-154.046 0-212.943-58.883-58.883-154.047-58.896-212.942 0-28.329 28.329-44.002 65.965-44.133 105.976-.015 4.418 3.556 8.019 7.974 8.026 4.484.007 8.012-3.605 8.026-7.974.243-74.135 60.413-134.16 134.602-134.162 74.332-.002 134.605 60.258 134.608 134.603.002 74.332-60.259 134.606-134.603 134.608-60.021.002-110.543-39.19-128.015-92.929-1.365-4.201-5.878-6.497-10.082-5.135z"/><path d="m109.248 239.051 9.172 4.858 1.792 10.204c2.749 15.639 17.236 26.161 32.972 23.924l10.289-1.452 7.467 7.211c11.426 11.033 29.322 11.032 40.747 0l7.466-7.211 10.289 1.452c15.738 2.232 30.223-8.284 32.971-23.924l1.793-10.204 9.171-4.858c14.052-7.442 19.585-24.451 12.598-38.723l-4.556-9.304 4.556-9.304c6.988-14.271 1.454-31.28-12.598-38.723l-9.171-4.858-1.793-10.204c-.765-4.351-4.913-7.263-9.264-6.494-4.352.765-7.259 4.912-6.495 9.264l2.47 14.058c.427 2.432 1.953 4.529 4.135 5.685l12.629 6.689c6.371 3.375 8.882 11.082 5.716 17.547l-6.279 12.822c-1.086 2.22-1.086 4.817 0 7.037l6.279 12.822c3.166 6.465.655 14.172-5.717 17.547l-12.629 6.689c-2.182 1.155-3.708 3.253-4.135 5.685l-2.47 14.058c-1.247 7.095-7.825 11.858-14.975 10.851l-14.156-1.999c-2.44-.344-4.903.454-6.676 2.167l-10.275 9.924c-5.192 5.015-13.326 5.015-18.518 0l-10.275-9.924c-1.772-1.711-4.233-2.51-6.676-2.167l-14.156 1.999c-7.16 1.014-13.729-3.757-14.976-10.851l-2.47-14.058c-.427-2.431-1.953-4.529-4.135-5.685l-12.629-6.689c-6.371-3.375-8.882-11.082-5.716-17.548l6.278-12.822c1.086-2.219 1.086-4.816 0-7.035l-6.278-12.823c-3.166-6.465-.655-14.172 5.716-17.547l12.629-6.689c2.182-1.155 3.708-3.254 4.135-5.685l2.47-14.058c1.247-7.095 7.826-11.863 14.976-10.851l14.156 1.999c2.442.343 4.904-.455 6.676-2.167l10.275-9.924c5.193-5.015 13.327-5.014 18.518 0l10.275 9.924c3.179 3.068 8.243 2.98 11.312-.197 3.069-3.178 2.981-8.243-.197-11.313l-10.276-9.924c-11.424-11.03-29.323-11.03-40.747 0l-7.466 7.211-10.289-1.452c-15.732-2.229-30.223 8.285-32.972 23.924l-1.792 10.204-9.172 4.858c-14.052 7.442-19.585 24.451-12.597 38.722l4.556 9.305-4.556 9.304c-6.987 14.272-1.454 31.281 12.598 38.723z"/><path d="m164.603 231.524c3.704 2.407 8.66 1.352 11.066-2.354l44-67.789c2.405-3.706 1.351-8.66-2.355-11.065-3.705-2.406-8.66-1.352-11.066 2.354l-44 67.789c-2.405 3.705-1.351 8.66 2.355 11.065z"/><circle cx="220.111" cy="215.699" r="12"/><circle cx="161.806" cy="166.14" r="12"/><path d="m146.206 365.638c-11.475-7.936-21.318-17.78-29.257-29.262-7.709-11.151-22.519-13.353-33.109-6.448-83.932-65.263-90.49-188.528-16.548-262.47 52.174-52.173 132.039-66.087 198.734-34.624 3.996 1.885 8.763.174 10.648-3.822s.174-8.764-3.822-10.648c-72.784-34.335-159.94-19.152-216.874 37.78-83.386 83.387-71.925 221.778 23.634 290.604 3.511 2.525 8.395 1.808 11.026-1.627 3.319-4.336 10.044-4.136 13.15.355 9.04 13.073 20.249 24.285 33.316 33.321 4.652 3.219 4.634 10.218-.019 13.438-13.069 9.042-24.276 20.254-33.312 33.325-3.206 4.641-10.186 4.621-13.395-.019-9.04-13.073-20.249-24.285-33.316-33.322-4.645-3.212-4.64-10.213.018-13.436 3.005-2.078 5.961-4.313 8.785-6.64 3.41-2.81 3.896-7.852 1.086-11.262-2.81-3.408-7.852-3.896-11.261-1.086-2.479 2.043-5.074 4.004-7.713 5.829-13.82 9.563-13.856 30.183-.016 39.754 11.475 7.936 21.318 17.78 29.257 29.262 9.55 13.812 30.155 13.85 39.716.017 7.935-11.479 17.777-21.324 29.254-29.265 13.823-9.565 13.857-30.182.018-39.754z"/><path d="m479.826 428.928c-3.136-42.289-61.314-89.294-95.714-113.549-3.612-2.548-8.602-1.682-11.148 1.928-2.546 3.611-1.683 8.603 1.928 11.148 53.809 37.939 87.071 75.941 88.978 101.655.643 8.674-2.245 15.946-8.83 22.231-4.266 4.081-11.147 13.185-26.375 11.439-35.805-4.129-85.795-62.533-121.042-120.588 79.908-61.492 97.611-172.83 44.523-255.247-1.568-2.427-4.458-3.948-7.571-3.617-2.319.234-4.032-.617-5.112-2.179-7.502-10.851-16.806-20.156-27.654-27.658-2.974-2.057-2.955-6.57.017-8.624 10.849-7.508 20.151-16.814 27.65-27.663 2.048-2.962 6.543-2.944 8.589.016 7.504 10.854 16.809 20.159 27.654 27.658 2.974 2.057 2.955 6.569-.016 8.625-3.295 2.28-6.5 4.771-9.529 7.405-3.333 2.9-3.685 7.953-.785 11.287 2.899 3.333 7.952 3.685 11.286.785 2.584-2.249 5.32-4.375 8.132-6.319 12.149-8.407 12.181-26.527.013-34.942-9.253-6.398-17.191-14.338-23.595-23.599-8.398-12.145-26.506-12.175-34.912-.014-6.397 9.257-14.335 17.197-23.592 23.603-12.152 8.407-12.178 26.526-.014 34.941 9.255 6.4 17.194 14.341 23.595 23.599 3.446 4.984 8.775 8.161 14.631 8.938 41.707 68.367 31.167 158.184-25.78 215.131-34.471 34.471-80.286 52.59-128.714 51.27-4.42-.128-8.094 3.364-8.214 7.78-.12 4.417 3.364 8.094 7.78 8.214 39.034 1.052 76.658-9.699 108.505-30.168 26.057 42.746 82.883 121.56 132.321 127.261 14.394 1.654 26.822-2.878 36.971-13.473l2.355-2.355c10.074-9.647 14.672-21.395 13.669-34.919z"/></g></svg>