<svg id="Layer_1" enable-background="new 0 0 480 480" height="512" viewBox="0 0 480 480" width="512" xmlns="http://www.w3.org/2000/svg"><path d="m302 265.091c0 75.46-68.62 136.72-152.52 133.89-6.53 12.53-17.24 21.09-29.56 25.15-10.01 3.31-19.87-5.87-17.16-16.04 1.47-5.52 1.8-11.4.81-17.45-55.82-19-95.57-68.04-95.57-125.55 0-73.99 65.81-133.98 147-133.98s147 59.99 147 133.98z" fill="#b5d5f5"/><path d="m220.329 162.51c-105.206-23.085-205.874 73.564-174.532 168.416 2.861 8.658-8.837 14.513-14.132 7.089-14.968-20.984-23.665-46.028-23.665-72.924 0-73.99 65.81-133.98 147-133.98 25.571 0 49.616 5.95 70.56 16.415 8.369 4.181 3.907 16.989-5.231 14.984z" fill="#cbe3fa"/><path d="m472 214.671c0-88.09-78.35-159.5-175-159.5s-175 71.41-175 159.5c0 89.049 80.836 162.784 181.58 159.39 7.77 14.91 20.52 25.1 35.19 29.94 11.91 3.93 23.65-6.98 20.42-19.1-1.75-6.57-2.14-13.57-.96-20.76 66.45-22.63 113.77-81.01 113.77-149.47z" fill="#cbe3fa"/><path d="m155.112 264.473c2.532 13.632-16.612 19.248-21.912 6.436-43.054-104.066 41.766-216.615 165.201-215.733 14.071.101 15.597 20.553 1.709 22.81-92.055 14.96-160.735 101.769-144.998 186.487z" fill="#eef7ff"/><circle cx="297" cy="220.171" fill="#fff0a6" r="99"/><g><path d="m297 47.171c-100.907 0-183 75.141-183 167.5 0 72.362 49.552 132.133 116.623 156.137-23.863 14.048-52.016 21.149-80.877 20.18-3.081-.104-5.94 1.567-7.363 4.297-5.282 10.134-14.151 17.682-24.975 21.254-4.003 1.315-7.985-2.378-6.916-6.392 1.798-6.746 2.125-13.741.971-20.793-.477-2.914-2.521-5.329-5.317-6.281-53.919-18.357-90.146-65.769-90.146-117.978 0-51.7 34.195-97.59 87.116-116.909 4.15-1.515 6.287-6.107 4.771-10.258-1.515-4.149-6.109-6.289-10.258-4.771-56.703 20.698-97.629 71.588-97.629 131.938 0 59.56 39.922 110.264 96.118 131.38.104 3.247-.258 6.444-1.086 9.551-4.345 16.3 11.361 30.997 27.391 25.706 13.192-4.354 24.259-13.021 31.621-24.659 36.377.232 71.84-11.334 99.794-32.59 5.279-4.02 3.636-12.418-2.831-14.115-71.247-18.469-121.007-78.383-121.007-145.697 0-83.537 74.916-151.5 167-151.5s167 67.963 167 151.5c0 62.807-43.542 119.829-108.35 141.892-2.796.952-4.84 3.367-5.317 6.282-1.338 8.181-.96 16.294 1.125 24.114 1.586 5.953-4.275 11.401-10.184 9.449-13.264-4.378-24.133-13.628-30.605-26.045-2.042-3.917-6.872-5.438-10.792-3.397-3.918 2.042-5.439 6.874-3.397 10.792 8.408 16.133 22.535 28.152 39.779 33.844 17.929 5.918 35.518-10.527 30.658-28.764-1.111-4.17-1.545-8.472-1.298-12.838 67.061-24.803 114.381-84.963 114.381-155.329 0-92.359-82.093-167.5-183-167.5z"/><path d="m297.032 146.171c-4.418 0-8 3.582-8 8v10.829c-17.604 3.036-30.863 15.875-30.863 31.212 0 24.102 21.535 28.512 37.258 31.731 18.659 3.821 24.468 6.534 24.468 16.058 0 8.615-10.47 15.894-22.863 15.894-8.448 0-16.209-3.312-20.256-8.642-2.672-3.52-7.689-4.206-11.209-1.535-3.519 2.672-4.206 7.69-1.535 11.209 5.682 7.485 14.699 12.551 25 14.292v10.824c0 4.418 3.582 8 8 8s8-3.582 8-8v-10.83c17.604-3.036 30.863-15.875 30.863-31.211 0-24.102-21.535-28.512-37.258-31.731-18.659-3.821-24.468-6.534-24.468-16.058 0-8.615 10.47-15.895 22.863-15.895 8.447 0 16.209 3.312 20.256 8.643 2.671 3.521 7.69 4.207 11.209 1.535s4.206-7.69 1.535-11.209c-5.683-7.485-14.7-12.551-25-14.292v-10.823c0-4.419-3.581-8.001-8-8.001z"/><path d="m252.251 140.913c3.845-2.176 5.198-7.057 3.022-10.902s-7.058-5.199-10.903-3.021c-33.537 18.98-54.37 54.685-54.37 93.181 0 59 48 107 107 107s107-48 107-107c0-62.277-53.283-111.732-115.79-106.644-4.403.358-7.683 4.22-7.324 8.623.358 4.403 4.208 7.669 8.624 7.324 53.346-4.34 98.49 37.9 98.49 90.696 0 50.178-40.822 91-91 91s-91-40.822-91-91c0-32.741 17.722-63.11 46.251-79.257z"/><path d="m62 268.171c0 4.418 3.582 8 8 8h24.099c4.418 0 8-3.582 8-8s-3.582-8-8-8h-24.099c-4.418 0-8 3.582-8 8z"/><path d="m92.021 220.171c4.418 0 8-3.582 8-8s-3.582-8-8-8h-5.021c-4.418 0-8 3.582-8 8s3.582 8 8 8z"/><path d="m87 332.171h35.759c4.418 0 8-3.582 8-8s-3.582-8-8-8h-35.759c-4.418 0-8 3.582-8 8s3.582 8 8 8z"/></g></svg>