<svg id="Layer_1" enable-background="new 0 0 480 480" height="512" viewBox="0 0 480 480" width="512" xmlns="http://www.w3.org/2000/svg"><path d="m342 8h-204c-13.25 0-24 10.75-24 24v416c0 13.25 10.75 24 24 24h204c13.253 0 24-10.759 24-24v-416c0-13.25-10.75-24-24-24z" fill="#eef7ff"/><path d="m353.147 191.773c5.288-3.99 12.853-.27 12.853 6.354v249.873c0 13.252-10.759 24-24 24h-204c-13.255 0-24-10.745-24-24v-222.473c0-5.491 5.407-9.347 10.599-7.557 83.268 28.7 169.196 18.587 228.548-26.197z" fill="#cbe3fa"/><path d="m314 8v18.6c0 8.84-7.16 16-16 16h-116c-8.84 0-16-7.16-16-16v-18.6z" fill="#6e6f80"/><path d="m158 129h48v48h-48z" fill="#585966"/><path d="m274 129h48v48h-48z" fill="#585966"/><path d="m274 255h48v48h-48z" fill="#42434d"/><g><path d="m342 0h-132.484c-4.418 0-8 3.582-8 8s3.582 8 8 8h132.484c8.822 0 16 7.178 16 16v416c0 8.822-7.178 16-16 16h-204c-8.822 0-16-7.178-16-16v-416c0-8.822 7.178-16 16-16h20v10.6c0 13.233 10.766 24 24 24h116c4.418 0 8-3.582 8-8s-3.582-8-8-8h-116c-4.411 0-8-3.589-8-8v-18.6c0-4.418-3.582-8-8-8h-28c-17.645 0-32 14.355-32 32v416c0 17.645 14.355 32 32 32h204c17.645 0 32-14.355 32-32v-416c0-17.645-14.355-32-32-32z"/><path d="m219 444h42c4.418 0 8-3.582 8-8s-3.582-8-8-8h-42c-4.418 0-8 3.582-8 8s3.582 8 8 8z"/><path d="m330 129c0-4.418-3.582-8-8-8h-48c-4.418 0-8 3.582-8 8v48c0 4.418 3.582 8 8 8h48c4.418 0 8-3.582 8-8zm-16 40h-32v-32h32z"/><path d="m158 185h48c4.418 0 8-3.582 8-8v-48c0-4.418-3.582-8-8-8h-48c-4.418 0-8 3.582-8 8v48c0 4.418 3.582 8 8 8zm8-48h32v32h-32z"/><path d="m322 311c4.418 0 8-3.582 8-8v-48c0-4.418-3.582-8-8-8h-48c-4.418 0-8 3.582-8 8v48c0 4.418 3.582 8 8 8zm-40-48h32v32h-32z"/><path d="m150 255v48c0 4.418 3.582 8 8 8s8-3.582 8-8v-48c0-4.418-3.582-8-8-8s-8 3.582-8 8z"/><path d="m190 247c-4.418 0-8 3.582-8 8v16c0 4.418 3.582 8 8 8h16c4.418 0 8-3.582 8-8v-16c0-4.418-3.582-8-8-8z"/><path d="m190 311h16c4.418 0 8-3.582 8-8s-3.582-8-8-8h-16c-4.418 0-8 3.582-8 8s3.582 8 8 8z"/><path d="m248 177v-45c0-4.418-3.582-8-8-8s-8 3.582-8 8v45c0 4.418 3.582 8 8 8s8-3.582 8-8z"/><path d="m240 267c-4.418 0-8 3.582-8 8v28c0 4.418 3.582 8 8 8s8-3.582 8-8v-28c0-4.418-3.582-8-8-8z"/><path d="m232 239c0 4.418 3.582 8 8 8s8-3.582 8-8v-25c0-4.418-3.582-8-8-8h-82c-4.418 0-8 3.582-8 8s3.582 8 8 8h74z"/><path d="m322 206h-38c-4.418 0-8 3.582-8 8s3.582 8 8 8h38c4.418 0 8-3.582 8-8s-3.582-8-8-8z"/></g></svg>