<svg id="Layer_1" enable-background="new 0 0 478.238 478.238" height="512" viewBox="0 0 478.238 478.238" width="512" xmlns="http://www.w3.org/2000/svg"><path d="m468.241 33.679c-1.46-12.41-11.27-22.22-23.68-23.68-116.47-13.72-224.65 44.02-287.61 144.46-61.27-11.91-112.51 28.57-144.07 81.1-8 13.32 3.43 29.81 18.72 27.06 18.94-3.4 38.61-4.01 58.37-1.5-48.05 37.51-86.08 87.31-78.88 95.92 2.63 3.15 35.76-17.12 45.08-5.98 22.19 26.52-68.16 90.89-44.02 115.03 24.16 24.16 88.44-66.27 115.03-44.02 11.14 9.32-9.14 42.45-5.98 45.08 8.67 7.25 58.64-31.2 95.92-78.89 2.51 19.77 1.9 39.44-1.5 58.38-2.75 15.29 13.74 26.72 27.06 18.72 52.53-31.56 93.01-82.8 81.1-144.07 100.44-62.96 158.18-171.14 144.46-287.61z" fill="#befa91"/><path d="m459.386 48.489c-70.196-13.85-235.832 24.997-308.132 195.178-2.468 5.808-10.43 6.553-13.966 1.326-5.332-7.88-9.861-15.544-13.357-22.755 51.063-140.294 179.188-228.901 320.63-212.239 12.41 1.46 22.22 11.27 23.68 23.68.245 2.073.466 4.146.664 6.215.509 5.328-4.268 9.631-9.519 8.595z" fill="#daffbf"/><path d="m255.991 354.319c-12.9 4.7-26.264 8.745-40.02 12.13-31.385 7.722-111.871-72.909-104.18-104.18 3.386-13.766 7.43-27.12 12.14-40.03 22.2 45.82 86.21 109.89 132.06 132.08z" fill="#cbe3fa"/><path d="m144.394 261.006c-2.561 7.037-6.688 19.054-9.617 29.58-1.894 6.806-11.055 8.014-14.607 1.908-5.906-10.152-10.513-21.588-8.379-30.225 3.37-13.77 7.43-27.12 12.14-40.03 4.75 9.799 11.408 20.433 19.396 31.31 1.58 2.152 1.98 4.949 1.067 7.457z" fill="#eef7ff"/><path d="m111.791 262.269c-.219.89-.375 1.82-.445 2.79-25.678-6.239-52.788-7.279-79.745-2.44-15.29 2.75-26.72-13.74-18.72-27.06 31.56-52.53 82.8-93.01 144.07-81.1-19.873 31.686-35.273 67.61-45.16 107.81z" fill="#b5d5f5"/><path d="m156.951 154.459c-2.795 4.453-5.499 8.992-8.111 13.615-2.155 3.814-5.779 6.556-10.021 7.649-48.117 12.402-84.777 58.361-95.28 78.433-2.307 4.409-6.499 7.494-11.398 8.366-16.528 2.943-27.022-14.039-19.259-26.964 31.559-52.53 82.799-93.009 144.069-81.099z" fill="#cbe3fa"/><path d="m323.781 321.289c11.91 61.27-28.57 112.51-81.1 144.07-13.32 8-29.81-3.43-27.06-18.72 4.798-26.73 3.855-53.875-2.44-79.744.97-.07 1.9-.227 2.79-.446 39.229-9.653 75.233-24.73 107.81-45.16z" fill="#b5d5f5"/><path d="m243.852 451.769c4.117 3.406 4.519 10.167-1.172 13.59-13.315 8.008-29.81-3.43-27.06-18.72 7.784-43.357-1.789-74.98-2.44-79.744 2.247-.163 8.987-1.952 14.775-3.585 4.677-1.319 9.467 1.729 10.24 6.526 3.361 20.859 3.387 42.736-.575 64.803-1.265 7.031 1.538 13.246 6.232 17.13z" fill="#cbe3fa"/><path d="m213.181 366.894c1.73 7.11 3.04 14.244 3.94 21.364-37.28 47.69-87.25 86.14-95.92 78.89-3.16-2.63 17.12-35.76 5.98-45.08-26.59-22.25-90.87 68.18-115.03 44.02-24.14-24.14 66.21-88.51 44.02-115.03-9.32-11.14-42.45 9.13-45.08 5.98-7.2-8.61 30.83-58.41 78.88-95.92 7.12.9 14.255 2.21 21.375 3.94-2.67 32.181 69.585 104.526 101.835 101.836z" fill="#ff6d7a"/><g fill="#ff8c95"><path d="m159.369 442.639c-.962 4.017-3.294 7.587-6.588 10.079-15.567 11.779-27.707 17.676-31.581 14.43-2.152-1.793 6.565-17.72 8.829-30.647 2.355-13.454 17.717-19.32 27.151-11.433 4.158 3.484 3.936 10.282 2.189 17.571z"/><path d="m38.223 456.007c-1.905 13.833-17.736 18.418-26.072 10.082-20.727-20.727 42.948-71.108 47.325-101.731.988-6.911 6.576-12.347 13.485-13.346 5.558-.803 10.439-.269 13.21 3.047 18.909 22.599-43.919 72.697-47.948 101.948z"/><path d="m111.591 270.869c-22.861 18.961-42.83 40.104-55.79 57.181-9.944 13.104-23.543 23.034-39.141 28.257-2.943.985-4.991 1.423-5.569.732-7.2-8.61 30.83-58.41 78.88-95.92 7.12.9 14.255 2.21 21.375 3.94-.15 1.82-.055 3.76.245 5.81z"/></g><g><path d="m476.183 32.742c-1.903-16.163-14.521-28.781-30.687-30.687-155.781-18.357-297.483 87.885-340.245 253.476-24.821-5-50.033-5.279-75.068-.784-8.586 1.53-14.903-7.646-10.443-15.067 26.021-43.313 60.701-70.896 97.653-77.667 4.346-.797 7.223-4.965 6.427-9.312-.796-4.345-4.958-7.22-9.312-6.427-41.535 7.611-80.063 37.857-108.483 85.165-11.53 19.193 4.917 43.026 26.986 39.056 43.226-7.765 74.136 2.252 77.67 2.54 4.49.358 8.281-2.994 8.633-7.313.268-3.257 5.449-20.685 6.423-23.815 19.191 30.877 51.981 66.646 86.457 93.598 1.462 1.144 3.198 1.697 4.921 1.697 7.56 0 10.938-9.608 4.933-14.303-37.122-29.021-73.341-70.081-89.393-101.111 51.069-135.682 175.927-219.754 310.97-203.842 8.78 1.034 15.635 7.888 16.668 16.667 17.506 148.599-86.048 284.889-246.227 324.069-5.817 1.422-18.869-2.228-38.065-16.737-16.479-12.456-32.905-29.503-43.939-45.599-2.5-3.646-7.479-4.572-11.122-2.075-3.645 2.498-4.573 7.478-2.075 11.122 11.956 17.44 29.709 35.876 47.488 49.315 11.427 8.638 26.618 18.062 40.365 19.923.792 3.769 1.46 7.547 2.014 11.333-15.002 18.803-33.396 37.789-50.883 52.468-11.612 9.748-20.058 15.319-25.638 18.354 5.124-13.664 11.264-31.517.1-40.857-18.147-15.182-43.652 3.941-68.32 22.438-17.378 13.03-39.008 29.244-46.183 22.065-7.181-7.181 9.042-28.837 22.077-46.238 18.472-24.66 37.573-50.159 22.426-68.265-9.352-11.177-27.232-5.016-40.909.115 5.122-9.326 16.641-25.296 36.193-45.231 3.094-3.154 3.045-8.219-.109-11.313-3.151-3.094-8.218-3.048-11.313.109-13.926 14.197-25.935 28.596-33.817 40.544-10.423 15.8-12.707 25.675-7.405 32.019 4.552 5.451 10.875 3.068 20.444-.535 5.277-1.988 11.846-4.464 17.375-5.485 5.799-1.068 7.26.033 7.27.045 7.017 8.387-9.604 30.575-22.96 48.404-15.269 20.383-38.491 49.239-20.586 67.146 17.883 17.879 46.611-5.218 67.096-20.579 17.835-13.371 39.888-29.84 48.454-22.967.012.01 1.113 1.47.044 7.259-1.021 5.526-3.494 12.092-5.481 17.368-3.608 9.577-5.992 15.904-.537 20.463 1.789 1.494 4.961 3.166 9.896 2.643 16.671-1.767 53.649-31.621 84.66-67.25.253 12.176-.696 24.384-2.879 36.545-3.956 22.031 19.841 38.528 39.055 26.987 43.875-26.359 73.476-61.956 83.347-100.233 1.104-4.278-1.47-8.642-5.748-9.744-4.277-1.103-8.641 1.47-9.744 5.748-8.817 34.186-35.841 66.331-76.095 90.515-7.431 4.466-16.604-1.881-15.066-10.444 4.393-24.467 4.326-49.71-.784-75.068 166.307-42.952 271.746-185.114 253.471-340.248z"/><path d="m246.523 231.767c3.126 3.124 8.189 3.123 11.314 0l9.263-9.263c15.277 11.177 36.229 13.021 48.907.344 18.638-18.638 5.241-38.935-4.541-53.755-11.359-17.211-15.136-25.071-6.58-33.626 3.304-3.304 8.284-4.724 14.026-3.989 15.972 2.032 29.872 19.121 27.908 33.473-.6 4.377 2.463 8.412 6.841 9.011 4.377.604 8.411-2.463 9.011-6.841 1.438-10.504-1.833-21.773-8.867-31.322l9.25-9.251c3.124-3.124 3.124-8.189-.001-11.313-3.123-3.123-8.188-3.124-11.313.001l-9.25 9.25c-15.094-11.097-35.983-13.269-48.92-.333-18.638 18.638-5.24 38.935 4.541 53.755 11.36 17.21 15.137 25.07 6.58 33.626-3.304 3.303-8.285 4.723-14.026 3.989-15.975-2.032-29.872-19.124-27.907-33.473.6-4.377-2.463-8.412-6.84-9.012-4.387-.611-8.413 2.463-9.012 6.84-1.439 10.505 1.832 21.775 8.865 31.324l-9.25 9.25c-3.123 3.126-3.123 8.19.001 11.315z"/></g></svg>