<svg id="Layer_1" enable-background="new 0 0 480 480" height="512" viewBox="0 0 480 480" width="512" xmlns="http://www.w3.org/2000/svg"><path d="m440 48h-400c-17.67 0-32 14.33-32 32v360c0 17.67 14.33 32 32 32h400c17.67 0 32-14.33 32-32v-360c0-17.67-14.33-32-32-32z" fill="#cbe3fa"/><path d="m472 390v50c0 17.67-14.33 32-32 32h-400c-17.67 0-32-14.33-32-32v-50c0 17.67 14.33 32 32 32h400c17.67 0 32-14.33 32-32z" fill="#b5d5f5"/><path d="m8 390v-249h31.999c4.423 0 7.998 3.595 7.998 8.018v241.106c.002 26.071-39.997 27.371-39.997-.124z" fill="#eef7ff"/><path d="m440 48c17.67 0 32 14.33 32 32v61h-464v-61c0-17.67 14.33-32 32-32z" fill="#befa91"/><path d="m440.436 78h-360.436c-17.673 0-32 14.327-32 32v23c0 4.418-3.582 8-8.001 8h-31.999v-61c0-17.673 14.327-32 32-32 0 0 400.942.01 401.409.03 19.344.839 18.389 29.97-.973 29.97z" fill="#daffbf"/><path d="m320.61 279 6.24-12.73c5.01-10.23.99-22.59-9.09-27.93l-12.54-6.64-2.45-13.96c-1.98-11.22-12.51-18.86-23.81-17.26l-14.05 1.98-10.2-9.85c-8.2-7.92-21.22-7.92-29.42 0l-10.2 9.85-14.05-1.98c-11.3-1.6-21.83 6.04-23.81 17.26l-2.45 13.96-12.54 6.64c-10.08 5.34-14.1 17.7-9.09 27.93l6.24 12.73-6.24 12.73c-5.01 10.23-.99 22.59 9.09 27.93l12.54 6.64 2.45 13.96c1.98 11.22 12.51 18.86 23.81 17.26l14.05-1.98 10.2 9.85c8.2 7.92 21.22 7.92 29.42 0l10.2-9.85 14.05 1.98c11.3 1.6 21.83-6.04 23.81-17.26l2.45-13.96 12.54-6.64c10.08-5.34 14.1-17.7 9.09-27.93z" fill="#daffbf"/><g><path d="m47.193 422c0 4.418 3.582 8 8 8h384.807c22.056 0 40-17.944 40-40v-310c0-22.056-17.944-40-40-40h-63v-8c0-17.645-14.355-32-32-32h-10c-17.645 0-32 14.355-32 32v8h-126v-8c0-17.645-14.355-32-32-32h-10c-17.645 0-32 14.355-32 32v8h-63c-22.056 0-40 17.944-40 40v360c0 22.056 17.944 40 40 40h400c12.545 0 24.526-6.006 32.048-16.064 2.646-3.538 1.923-8.552-1.616-11.197-3.539-2.647-8.552-1.923-11.198 1.615-4.584 6.13-11.594 9.646-19.234 9.646h-400c-13.234 0-24-10.767-24-24v-291h405.774c4.418 0 8-3.582 8-8s-3.582-8-8-8h-405.774v-53c0-13.233 10.766-24 24-24h63v18c0 14.883 10.214 27.426 24 30.987v1.013c0 4.418 3.582 8 8 8s8-3.582 8-8v-16c0-4.418-3.582-8-8-8-3.725 0-6.846 2.549-7.737 5.995-4.921-2.731-8.263-7.978-8.263-13.995v-42c0-8.822 7.178-16 16-16h10c8.822 0 16 7.178 16 16v8h-14.064c-4.418 0-8 3.582-8 8s3.582 8 8 8h156.064v18c0 14.883 10.214 27.426 24 30.987v1.013c0 4.418 3.582 8 8 8s8-3.582 8-8v-16c0-4.418-3.582-8-8-8-3.725 0-6.846 2.549-7.737 5.995-4.921-2.731-8.263-7.978-8.263-13.995v-42c0-8.822 7.178-16 16-16h10c8.822 0 16 7.178 16 16v8h-13.936c-4.418 0-8 3.582-8 8s3.582 8 8 8h92.936c13.234 0 24 10.767 24 24v310c0 13.233-10.766 24-24 24h-384.807c-4.418 0-8 3.582-8 8z"/><path d="m158.5 326.731 9.08 4.81 1.775 10.103c2.734 15.557 17.136 26.014 32.799 23.8l10.187-1.438 7.392 7.14c11.366 10.975 29.17 10.976 40.534-.001l7.392-7.139 10.187 1.438c15.661 2.222 30.065-8.242 32.799-23.799l1.775-10.103 9.081-4.81c13.978-7.404 19.482-24.324 12.532-38.521l-4.512-9.211 4.511-9.211c1.943-3.969.301-8.761-3.667-10.703-3.966-1.942-8.76-.303-10.703 3.666l-6.233 12.729c-1.087 2.22-1.087 4.817 0 7.037l6.233 12.729c3.129 6.391.646 14.01-5.65 17.346l-12.538 6.641c-2.182 1.155-3.708 3.253-4.135 5.685l-2.452 13.956c-1.232 7.014-7.741 11.726-14.803 10.726l-14.054-1.984c-2.438-.344-4.903.455-6.676 2.168l-10.201 9.852c-5.132 4.956-13.172 4.957-18.304.001l-10.201-9.853c-1.772-1.714-4.236-2.511-6.676-2.168l-14.054 1.984c-7.067.998-13.57-3.712-14.803-10.726l-2.452-13.956c-.427-2.432-1.953-4.529-4.135-5.685l-12.538-6.641c-6.297-3.336-8.78-10.955-5.651-17.345l6.233-12.729c1.087-2.22 1.087-4.817 0-7.037l-6.233-12.729c-3.129-6.391-.646-14.01 5.65-17.346l12.538-6.641c2.182-1.155 3.708-3.253 4.135-5.685l2.452-13.956c1.232-7.014 7.737-11.724 14.803-10.726l14.054 1.984c2.439.349 4.904-.455 6.676-2.168l10.201-9.852c5.132-4.956 13.172-4.957 18.304-.001l10.201 9.853c1.773 1.714 4.239 2.518 6.676 2.168l14.054-1.984c7.068-.996 13.571 3.712 14.803 10.726l2.452 13.956c.765 4.351 4.911 7.268 9.264 6.494 4.352-.765 7.26-4.912 6.495-9.264l-2.452-13.956c-2.734-15.557-17.13-26.009-32.799-23.8l-10.187 1.438-7.392-7.14c-11.365-10.975-29.17-10.976-40.534.001l-7.392 7.139-10.187-1.438c-15.66-2.22-30.065 8.242-32.799 23.799l-1.775 10.103-9.081 4.81c-13.978 7.404-19.482 24.324-12.532 38.521l4.511 9.211-4.511 9.212c-6.949 14.196-1.445 31.116 12.533 38.52z"/><path d="m213.645 319.499c3.704 2.407 8.66 1.352 11.066-2.354l44-67.789c2.405-3.706 1.351-8.66-2.355-11.065-3.705-2.406-8.66-1.351-11.066 2.354l-44 67.789c-2.406 3.706-1.352 8.66 2.355 11.065z"/><circle cx="269" cy="304" r="12"/><circle cx="211" cy="254" r="12"/></g></svg>