<svg id="Layer_1" enable-background="new 0 0 480.003 480.003" height="512" viewBox="0 0 480.003 480.003" width="512" xmlns="http://www.w3.org/2000/svg"><path d="m472.003 253.009c0 120.626-101.762 215.963-221.84 208.61-67.407-4.103-126.772-40.266-161.92-93.95-45.632-69.394-45.72-159.793 0-229.32 78.511-119.915 252.279-126.786 340.18-13.08 28.307 36.548 43.58 81.251 43.58 127.74z" fill="#cbe3fa"/><path d="m116.113 363.259c-8.54 3.39-16.36 7.07-23.35 11.01-24.68-34.551-38.76-76.542-38.76-121.26h53.83c-6.888 35.495-4.711 73.88 8.28 110.25z" fill="#eef7ff"/><path d="m263.003 44.009c-25.68 0-48.66 28.67-64.06 73.84-16 10.44-30.48 23.01-43.03 37.31-24.87-5.97-46.38-13.96-63.15-23.41 37.889-53.201 100.187-87.74 170.24-87.74z" fill="#eef7ff"/><path d="m369.963 91.865c-18.396-5.187-37.657-7.855-57.531-7.855-13.65-24.77-30.42-39.53-48.56-39.99 40.034.102 79.09 11.744 112.582 33.427 7.674 4.966 2.306 16.898-6.491 14.418z" fill="#eef7ff"/><path d="m187.493 161.359c-5.44 27.67-8.49 58.77-8.49 91.65h-125c0-45.21 14.35-87.06 38.76-121.26 23.52 13.251 56.38 23.64 94.73 29.61z" fill="#b5d5f5"/><path d="m155.913 155.159c-24.182 27.544-40.978 61.152-48.08 97.85h-53.83c0-42.354 12.629-84.635 38.76-121.26 16.77 9.45 38.28 17.441 63.15 23.41z" fill="#cbe3fa"/><path d="m187.493 344.659c13.65 69.49 42.33 117.35 75.51 117.35-70.22 0-132.35-34.63-170.24-87.74 23.52-13.25 56.38-23.64 94.73-29.61z" fill="#b5d5f5"/><path d="m116.572 402.115c-8.679-8.522-16.744-17.881-23.809-27.846 6.99-3.94 14.81-7.62 23.35-11.01 3.603 10.105 7.982 19.899 13.08 29.296 4.393 8.097-6.048 16.014-12.621 9.56z" fill="#cbe3fa"/><g fill="#b5d5f5"><path d="m472.003 253.009h-125c0-32.88-3.05-63.98-8.49-91.65 38.35-5.97 71.21-16.36 94.73-29.61 24.41 34.2 38.76 76.05 38.76 121.26z"/><path d="m179.003 253.009h168c0 32.88-3.05 63.98-8.49 91.65-48.329-7.535-102.668-7.539-151.02 0-5.44-27.67-8.49-58.77-8.49-91.65z"/><path d="m433.243 374.269c-37.89 53.11-100.02 87.74-170.24 87.74 33.18 0 61.86-47.86 75.51-117.35 38.35 5.97 71.21 16.36 94.73 29.61z"/><path d="m263.003 44.009c33.18 0 61.86 47.86 75.51 117.35-48.329 7.535-102.668 7.539-151.02 0 13.65-69.49 42.33-117.35 75.51-117.35z"/></g><path d="m312.433 84.009c-40.402.096-79.65 11.757-113.49 33.84 15.4-45.17 38.38-73.84 64.06-73.84 21.953 0 38.77 20.657 49.43 40z" fill="#cbe3fa"/><path d="m99.483 18.129c-50.07-2.63-91.48 37.19-91.48 86.68 0 41.11 28.58 75.54 66.95 84.51l6.84 9.55c6.39 8.9 19.63 8.9 26.01 0l6.84-9.55c38.71-9.04 67.45-44 66.95-85.58-.55-45.48-36.69-83.22-82.11-85.61z" fill="#ff6d7a"/><path d="m101.191 34.288c-47.728 10.435-78.658 63.355-65.05 110.252 2.625 9.046-9.638 14.658-14.685 6.704-8.52-13.427-13.454-29.355-13.454-46.435 0-49.962 42.043-89.637 92.069-86.647 9.467.566 10.385 14.101 1.12 16.126z" fill="#ff8c95"/><g><path d="m416.445 99.567c-67.701-67.7-169.293-81.072-248.228-41.809-3.983 2.024-5.509 6.818-3.544 10.733 24.196 47.892-3.88 101.831-51.845 113.038-1.888.441-3.552 1.553-4.682 3.13l-6.843 9.546c-3.197 4.459-9.81 4.458-13.005-.001l-6.843-9.546c-1.13-1.576-2.793-2.688-4.682-3.129-61.405-14.348-81.329-91.073-36.201-133.894 24.434-23.184 59.279-27.364 87.222-14.368 4.007 1.863 8.765.126 10.627-3.881 1.863-4.006.125-8.764-3.881-10.627-33.398-15.531-75.383-10.812-104.982 17.27-37.023 35.131-38.508 90.992-8.707 128.099 12.595 15.683 30.013 27.047 49.308 32.234l5.135 7.163c9.562 13.342 29.45 13.344 39.014 0l5.135-7.163c55.097-14.811 84.748-74.799 63.01-127.547 13.351-5.858 27.157-10.209 41.336-13.007-8.445 9.084-16.244 21.166-23.109 36.004-1.855 4.01-.108 8.765 3.902 10.62 4.009 1.855 8.764.108 10.62-3.901 13.879-30 30.855-46.521 47.802-46.521 18.676 0 37.62 20.483 51.974 56.198 5.603 13.94 10.29 29.57 13.997 46.43-35.549 4.842-72.578 5.524-106.954 2.732-4.394-.345-8.263 2.923-8.621 7.326s2.922 8.264 7.326 8.621c35.698 2.9 74.106 2.187 111.357-2.989 9.203 52.109 9.256 112.783.011 165.365-36.019-5.007-73.394-5.876-108.653-3.204-4.405.334-7.706 4.177-7.372 8.582s4.164 7.718 8.582 7.373c34.391-2.609 70.422-1.684 104.361 2.942-6.446 29.451-15.819 54.821-27.552 73.513-3.375 5.378.579 12.254 6.768 12.254 2.662 0 5.264-1.327 6.783-3.748 12.763-20.332 22.897-47.828 29.774-79.568 29.445 5.133 55.732 13.012 76.351 23.118-36.83 46.886-94.024 77.055-158.132 77.055-18.676 0-37.62-20.483-51.974-56.198-16.564-41.213-23.28-92.228-23.959-136.802h107.094c4.418 0 8-3.582 8-8s-3.582-8-8-8h-107.096c.312-20.311 1.805-40.228 4.462-59.314.609-4.376-2.445-8.417-6.821-9.026-4.371-.611-8.417 2.445-9.026 6.821-2.757 19.81-4.301 40.47-4.614 61.52h-108.895c.157-4.005.416-8.004.806-11.958.433-4.397-2.78-8.313-7.177-8.746-4.402-.423-8.313 2.781-8.746 7.178-12.561 127.596 87.19 238.526 215.945 238.526 119.93 0 217-97.054 217-217 0-57.965-22.572-112.458-63.558-153.444zm-238.327 238.541c-32.322 5.664-60.617 14.464-82.728 25.707-19.704-29.707-31.724-64.924-33.215-102.806h108.892c.401 26.905 2.809 52.958 7.051 77.099zm-73.248 38.846c20.44-10.035 46.503-17.946 76.322-23.144 6.98 32.167 20.139 72.168 42.447 96.318-47.875-9.543-89.677-36.139-118.769-73.174zm197.496-321.064c47.876 9.544 89.677 36.139 118.769 73.174-20.614 10.104-46.893 17.98-76.329 23.114-6.957-32.052-20.101-72.104-42.44-96.288zm128.251 86.317c19.703 29.706 31.722 64.922 33.213 102.803h-108.893c-.4-26.93-2.812-53.008-7.062-77.167 31.971-5.618 60.526-14.367 82.742-25.636zm-82.759 195.967c4.234-24.084 6.674-50.181 7.078-77.165h108.894c-1.491 37.88-13.51 73.097-33.213 102.803-22.22-11.271-50.781-20.021-82.759-25.638z"/><path d="m68.647 147.508c3.704 2.407 8.66 1.352 11.066-2.354l44-67.789c2.405-3.706 1.351-8.66-2.355-11.065-3.704-2.406-8.66-1.351-11.066 2.354l-44 67.789c-2.405 3.706-1.351 8.66 2.355 11.065z"/><circle cx="124.153" cy="131.679" r="12"/><circle cx="65.853" cy="82.129" r="12"/></g></svg>