<svg id="Layer_1" enable-background="new 0 0 479.918 479.918" height="512" viewBox="0 0 479.918 479.918" width="512" xmlns="http://www.w3.org/2000/svg"><path d="m413.971 241.927v-95.44c0-13.25-10.75-24-24-24h-300c-13.25 0-24 10.75-24 24v95.44c0 9.73 5.84 18.27 14.42 22l-11.5 104.95c-1.56 14.2 9.56 26.61 23.85 26.61h294.46c14.29 0 25.41-12.41 23.85-26.61l-11.5-104.95c8.58-3.73 14.42-12.27 14.42-22z" fill="#ffa4b8"/><path d="m391.29 122.523c15.977.876 14.976 24.964-1.024 24.964h-263.295c-13.25 0-24.002 10.75-24.001 24v82.168c-.001 7.647-6.813 13.5-14.374 12.355-3.72-.564-5.627-.968-8.205-2.083-8.58-3.73-14.42-12.27-14.42-22v-95.44c0-13.255 10.745-24 24-24 0 0 300.88.012 301.319.036z" fill="#ffbfcb"/><path d="m109.11 375.983c1.889 10.161-6.034 19.504-16.369 19.504-14.29 0-25.408-12.41-23.85-26.61 13.397-122.107 11.27-102.853 11.5-104.95 3.813 1.649 3.52 1.34 31.692 5.716 4.228.657 7.191 4.524 6.724 8.777-10.776 98.303-10.573 92.852-9.697 97.563z" fill="#ffbfcb"/><path d="m400.546 273.005c.464 4.234-2.469 8.086-6.672 8.768-11.629 1.886-45.19 6.913-147.772 22.954-4.057.634-8.2.637-12.28 0-102.743-16.027-136.182-21.075-147.763-22.956-4.201-.682-7.126-4.536-6.662-8.767l.994-9.078c4.096 1.772-8.495-.565 155.9 24.99 2.44.379 4.92.379 7.36 0 163.921-25.481 151.812-23.222 155.9-24.99z" fill="#ff8ca5"/><path d="m336.021 155.557c.267.22-1.548-1.578 31.52 31.49 6.25 6.25 6.25 16.38 0 22.63l-19.8 19.8c-6.24 6.25-16.37 6.25-22.62 0l-31.04-31.03c-4.05-4.05-5.62-9.96-4.13-15.49l4.21-15.59c1.49-5.49 5.78-9.78 11.28-11.27l15.58-4.21c5.31-1.44 10.97-.04 15 3.67z" fill="#cbe3fa"/><path d="m335.37 219.73c6.4 6.398-2.939 17.057-10.249 9.747l-31.04-31.03c-4.05-4.05-5.62-9.96-4.13-15.49l4.21-15.59c1.49-5.49 5.78-9.78 11.28-11.27l15.58-4.21c2.683-.728 5.082-.72 7.16-.32 4.018.775 4.21 6.461.26 7.529-13.022 3.521-20.897 32.814-11.36 42.35z" fill="#eef7ff"/><g><path d="m247.971 229.487v-17c0-4.418-3.582-8-8-8s-8 3.582-8 8v17c0 4.418 3.582 8 8 8s8-3.582 8-8z"/><path d="m158.971 342.487c-4.418 0-8 3.582-8 8s3.582 8 8 8h162c4.418 0 8-3.582 8-8s-3.582-8-8-8z"/><path d="m455.901 208.693c-2.095-3.891-6.946-5.345-10.836-3.254-3.891 2.094-5.348 6.945-3.254 10.836 22.151 41.162 28.063 78.956 15.813 101.098-7.373 13.326-21.332 21.433-41.515 24.184l-3.571-32.58c-.48-4.393-4.434-7.568-8.823-7.081-4.393.481-7.563 4.432-7.081 8.823l6.469 59.024c1.031 9.41-6.297 17.743-15.904 17.743h-294.454c-9.444 0-16.954-8.171-15.905-17.743 12.115-110.599 11.557-105.313 11.549-105.776-.057-3.195-1.919-6.126-4.823-7.378-5.829-2.544-9.595-8.297-9.595-14.665v-95.437c0-8.822 7.178-16 16-16h199.427c4.418 0 8-3.582 8-8s-3.582-8-8-8h-199.427c-17.645 0-32 14.355-32 32v12.135c-18.107 21.826-33.056 45.739-43.304 69.34-16.834 38.766-24.958 87.837 8.036 114.182 3.452 2.756 8.487 2.193 11.243-1.261 2.757-3.452 2.193-8.486-1.26-11.243-9.472-7.563-14.978-18.586-16.365-32.764-2.965-30.297 13.069-72.692 41.649-112.169v57.217c0 10.675 5.308 20.474 13.892 26.366l-10.928 99.712c-2.072 18.895 12.738 35.485 31.81 35.485h294.453c19.01 0 33.886-16.528 31.809-35.485l-1.152-10.515c25.676-3.381 43.744-14.247 53.77-32.369 15.119-27.327 9.387-69.762-15.723-116.425z"/><path d="m282.185 94.443c27.199-10.117 52.712 20.683 48.543 49.521-3.815-.903-7.854-.867-11.792.199l-15.587 4.213c-8.209 2.218-14.688 8.695-16.907 16.907l-4.212 15.585c-2.236 8.272.139 17.174 6.197 23.233l31.034 31.034c9.381 9.379 24.561 9.38 33.941-.001l19.798-19.799c9.379-9.377 9.383-24.56.001-33.941l-5.021-5.021c-3.125-3.123-8.189-3.123-11.314 0-3.124 3.125-3.124 8.189 0 11.314l5.021 5.021c3.125 3.125 3.127 8.185-.001 11.313l-19.799 19.799c-3.119 3.119-8.193 3.119-11.313 0l-31.034-31.034c-2.02-2.02-2.812-4.986-2.066-7.744l4.212-15.585c.74-2.737 2.899-4.897 5.636-5.637 16.722-4.519 16.27-4.544 18.015-4.472-3.002 5.461-7.177 10.542-12.475 15.041-3.367 2.859-3.779 7.908-.919 11.276 2.859 3.367 7.907 3.779 11.276.919 16.138-13.704 25.776-33.53 23.257-56.098h43.294c8.822 0 16 7.178 16 16v95.437c0 7.943-5.697 14.594-13.547 15.812l-150 23.275c-3.492.546 5.167 1.588-112.59-16.71-4.368-.679-8.455 2.313-9.132 6.679-.678 4.366 2.312 8.454 6.679 9.132 117.751 18.275 109.079 17.09 112.593 17.09 3.61 0-8.324 1.67 154.906-23.655 15.699-2.436 27.094-15.734 27.094-31.622v-95.437c0-17.645-14.355-32-32-32h-47.183c-10.568-27.588-38.108-45.489-66.187-35.038-4.141 1.541-6.248 6.147-4.706 10.288 1.54 4.14 6.147 6.249 10.288 4.706z"/></g></svg>