<svg id="Layer_1" enable-background="new 0 0 479.987 479.987" height="512" viewBox="0 0 479.987 479.987" width="512" xmlns="http://www.w3.org/2000/svg"><path d="m348.144 243.09h-216.24c-12.09-.01-21.9 9.7-21.9 21.79v189.28c0 8.61 9.49 13.85 16.78 9.25l20.71-13.07c3.57-2.25 8.12-2.25 11.68 0l31.66 19.97c3.56 2.26 8.11 2.26 11.68 0l31.65-19.97c3.57-2.25 8.11-2.25 11.68 0l31.65 19.97c3.57 2.26 8.12 2.26 11.68 0l31.66-19.97c3.56-2.25 8.11-2.25 11.68 0l20.71 13.07c7.29 4.6 16.78-.64 16.78-9.25v-189.1c0-12.08-9.79-21.96-21.86-21.97z" fill="#cbe3fa"/><path d="m348.571 270.076h-179.667c-12.09-.01-21.9 9.714-21.9 21.804v149.948c0 5.492-2.817 10.6-7.461 13.531l-12.759 8.052c-7.29 4.6-16.78-.64-16.78-9.25v-189.281c0-12.09 9.81-21.8 21.9-21.79h216.24c19.144.016 17.917 27.001.427 26.986z" fill="#eef7ff"/><g><path d="m444.603 228.252-164.838-95.11c-3.829-2.208-8.72-.895-10.928 2.932s-.896 8.719 2.932 10.928c0 0 165.137 95.28 165.228 95.328 18.447 9.725 11.415 51.671-16.79 51.671h-42.203v-28.943c0-16.463-13.394-29.955-29.856-29.969h-216.264c-17.023 0-29.88 13.673-29.88 29.793 0 4.418 3.582 8 8 8s8-3.582 8-8c0-7.364 5.786-13.793 13.881-13.793h216.249c7.648.006 13.87 6.321 13.87 13.969v189.102c0 2.301-2.523 3.737-4.508 2.486l-20.716-13.072c-6.141-3.877-14.076-3.878-20.219-.001l-31.655 19.977c-.954.601-2.187.602-3.139-.001l-31.654-19.976c-6.142-3.874-14.077-3.876-20.219 0l-31.655 19.977c-.954.601-2.187.602-3.139-.001l-31.653-19.975c-6.143-3.876-14.078-3.877-20.219-.001l-20.717 13.073c-1.957 1.235-4.508-.153-4.508-2.486v-152.16c0-4.418-3.582-8-8-8h-50.202c-28.371 0-35.127-42.004-16.79-51.671.101-.054 201.515-115.898 203.047-117.674.992-1.153 1.655-2.572 1.868-4.159.117-.879.078-.494.078-13.503 0-4.751 3.172-9.019 7.893-10.618 21.261-7.205 35.027-27.921 33.48-50.377-1.688-24.467-21.411-44.19-45.878-45.878-29.392-2.008-52.986 21.356-52.986 49.372 0 4.418 3.582 8 8 8s8-3.582 8-8c0-19.413 16.384-34.76 35.885-33.409 16.542 1.141 29.876 14.475 31.017 31.017 1.05 15.215-8.266 29.246-22.651 34.121-11.22 3.803-18.758 14.16-18.758 25.772v7.822l-196.6 113.437c-33.037 17.641-20.468 81.748 24.395 81.748h42.203v144.16c0 14.892 16.451 23.965 29.047 16.018l20.718-13.074c.954-.604 2.187-.603 3.139.001l31.653 19.975c6.142 3.877 14.077 3.876 20.219.001l31.654-19.976c.953-.602 2.188-.602 3.141 0l31.653 19.975c6.143 3.877 14.076 3.878 20.219.001l31.655-19.977c.953-.604 2.186-.603 3.139.001l20.717 13.073c12.594 7.946 29.047-1.124 29.047-16.018v-144.16h42.203c19.996 0 36.27-13.549 41.458-34.517 4.911-19.851-2.104-39.243-17.063-47.231z"/><path d="m266.359 311.29c-3.707-2.408-8.66-1.351-11.065 2.354l-44 67.789c-3.491 5.377.469 12.356 6.702 12.356 2.619 0 5.186-1.285 6.718-3.646l44-67.789c2.406-3.704 1.351-8.658-2.355-11.064z"/><circle cx="269.156" cy="376.674" r="12"/><circle cx="210.851" cy="327.116" r="12"/></g></svg>