<svg id="Layer_1" enable-background="new 0 0 480.002 480.002" height="512" viewBox="0 0 480.002 480.002" width="512" xmlns="http://www.w3.org/2000/svg"><path d="m460.033 215.03c0-70.71-57.32-128.03-128.03-128.03s-128.04 57.32-128.04 128.03c0 68.41 53.65 152.23 121.17 157.63l-9.67 12.71c-5.53 7.29-.34 17.76 8.81 17.76h15.45c9.15 0 14.35-10.47 8.81-17.76l-9.66-12.71c67.52-5.4 121.16-89.22 121.16-157.63z" fill="#ff6d7a"/><path d="m264.423 323.393c4.316 8.336-6.676 16.057-12.996 9.116-28.955-31.799-47.463-77.296-47.463-117.479 0-70.71 57.33-128.03 128.04-128.03 22.598 0 43.827 5.853 62.255 16.126 7.7 4.293 3.796 16.122-4.938 14.922-95.112-13.071-187.416 84.606-124.898 205.345z" fill="#ff8c95"/><path d="m348.533 385.37c5.54 7.29.34 17.76-8.81 17.76h-15.45c-9.15 0-14.34-10.47-8.81-17.76l9.67-12.71c4.559.36 9.18.36 13.74 0z" fill="#ff8c95"/><path d="m328.583 162.31c0-85.23-69.09-154.31-154.31-154.31s-154.31 69.08-154.31 154.31c0 82.44 64.66 183.46 146.03 189.96l-11.65 15.33c-6.67 8.78-.41 21.4 10.62 21.4h18.62c11.03 0 17.29-12.62 10.62-21.4l-11.65-15.33c81.37-6.5 146.03-107.52 146.03-189.96z" fill="#befa91"/><path d="m49.963 182.31c0 37.169 13.145 78.113 35.038 112.47 3.942 6.186-4.671 12.691-9.539 7.204-33.918-38.224-55.499-92.051-55.499-139.675 0-85.707 69.815-154.952 155.498-154.306 13.723.103 15.293 19.909 1.793 22.374-69.231 12.642-127.291 72.175-127.291 151.933z" fill="#daffbf"/><path d="m194.203 367.6c6.67 8.78.41 21.4-10.62 21.4h-18.62c-11.03 0-17.29-12.62-10.62-21.4l11.65-15.33c5.383.432 10.981.448 16.56 0z" fill="#daffbf"/><path d="m255.823 180 6.28-12.82c5.05-10.31 1-22.76-9.16-28.14l-12.63-6.69-2.47-14.05c-1.98-11.31-12.59-19-23.97-17.39l-14.15 2-10.28-9.93c-8.26-7.97-21.37-7.97-29.63 0l-10.28 9.93-14.15-2c-11.38-1.61-21.99 6.08-23.98 17.39l-2.47 14.05-12.63 6.69c-10.15 5.38-14.2 17.83-9.15 28.14l6.28 12.82-6.28 12.82c-5.05 10.31-1 22.76 9.15 28.14l12.63 6.69 2.47 14.05c1.99 11.31 12.6 19 23.98 17.39l14.15-2 10.28 9.93c8.26 7.97 21.37 7.97 29.63 0l10.28-9.93 14.15 2c11.38 1.61 21.99-6.08 23.97-17.39l2.47-14.05 12.63-6.69c10.16-5.38 14.21-17.83 9.16-28.14z" fill="#fff0a6"/><g><path d="m468.035 215.033c0-62.198-41.655-114.303-98.078-130.666-4.241-1.233-8.682 1.211-9.912 5.455s1.212 8.682 5.455 9.912c50.951 14.776 86.535 62.188 86.535 115.299 0 33.311-13.413 70.932-35.881 100.639-45.179 59.738-108.01 66.637-158.19 12.118 47.172-39.012 78.615-106.297 78.615-165.484 0-89.496-72.81-162.306-162.306-162.306s-162.306 72.81-162.306 162.306c0 65.31 38.66 140.995 94.23 176.965 3.708 2.403 8.662 1.341 11.063-2.369 2.401-3.709 1.341-8.662-2.369-11.063-49.555-32.077-86.924-102.381-86.924-163.533 0-80.673 65.633-146.306 146.306-146.306s146.306 65.633 146.306 146.306c0 83.413-69.784 188.423-153.636 182.014-3.123-.227-5.713.997-7.318 3.109l-11.648 15.326c-10.045 13.217-1.797 32.188 14.462 34.087-4.78 33.011 3.074 53.828 7.943 76.816.797 3.763 4.119 6.344 7.818 6.344 5.091 0 8.888-4.686 7.834-9.66-5.275-24.906-12.423-42.554-7.439-73.342h4.99c4.418 0 8-3.582 8-8s-3.582-8-8-8h-18.622c-4.42 0-6.922-5.044-4.248-8.563l9.068-11.931c27.389 1.104 52.972-7.93 75.323-23.061 19.508 21.595 42.108 35.678 65.546 41.042l-1.554 2.045c-8.602 11.318-2.214 27.619 11.548 30.249-3.611 26.885 2.803 44.042 6.794 62.877.797 3.764 4.119 6.345 7.818 6.345 5.09 0 8.888-4.686 7.834-9.659-4.262-20.127-10.047-34.644-6.325-59.211h2.961c15.762 0 24.712-18.058 15.178-30.601l-1.556-2.047c65.142-14.923 114.685-95.557 114.685-163.452zm-125.868 175.18c1.541 2.028.109 4.919-2.439 4.919h-15.451c-2.547 0-3.983-2.89-2.44-4.919l7.094-9.335c2.398.079 4.156.058 6.137-.007z"/><path d="m154.253 272.771c11.426 11.033 29.322 11.032 40.748 0l7.466-7.211 10.288 1.452c15.741 2.231 30.224-8.286 32.972-23.924l1.793-10.204 9.171-4.858c14.053-7.442 19.586-24.452 12.598-38.722l-4.556-9.304 4.556-9.304c6.988-14.271 1.455-31.28-12.597-38.723l-9.172-4.858-1.793-10.204c-.764-4.352-4.915-7.265-9.263-6.494-4.353.764-7.26 4.911-6.495 9.264l2.47 14.058c.427 2.431 1.952 4.529 4.134 5.685l12.63 6.689c6.371 3.375 8.882 11.082 5.717 17.548l-6.278 12.822c-1.087 2.219-1.087 4.816 0 7.035l6.278 12.823c3.165 6.465.654 14.172-5.718 17.547l-12.629 6.689c-2.182 1.155-3.707 3.254-4.134 5.685l-2.47 14.058c-1.247 7.095-7.827 11.863-14.976 10.851l-14.155-1.999c-2.448-.345-4.904.455-6.677 2.167l-10.274 9.924c-5.193 5.015-13.327 5.014-18.519 0l-10.275-9.924c-1.772-1.711-4.235-2.504-6.676-2.167l-14.157 1.999c-7.153 1.008-13.728-3.755-14.975-10.851l-2.471-14.058c-.427-2.432-1.953-4.529-4.134-5.685l-12.63-6.689c-6.371-3.375-8.882-11.082-5.717-17.547l6.279-12.822c1.087-2.22 1.087-4.817 0-7.037l-6.279-12.822c-3.165-6.465-.654-14.172 5.718-17.547l12.629-6.689c2.181-1.155 3.707-3.253 4.134-5.685l2.471-14.059c1.247-7.094 7.813-11.862 14.976-10.85l14.156 1.999c2.443.341 4.902-.456 6.676-2.167l10.275-9.924c5.191-5.015 13.326-5.014 18.518 0l10.275 9.924c3.178 3.068 8.242 2.981 11.313-.197 3.069-3.178 2.98-8.243-.197-11.313l-10.277-9.923c-11.424-11.031-29.323-11.03-40.747 0l-7.466 7.211-10.289-1.452c-15.738-2.235-30.224 8.285-32.971 23.924l-1.794 10.204-9.171 4.858c-14.053 7.442-19.586 24.452-12.598 38.723l4.557 9.303-4.556 9.304c-6.988 14.271-1.455 31.28 12.597 38.723l9.172 4.858 1.794 10.203c2.747 15.641 17.231 26.152 32.97 23.926l10.29-1.453z"/><path d="m147.917 220.499c3.706 2.407 8.66 1.351 11.065-2.354l44-67.789c2.406-3.706 1.352-8.66-2.354-11.065-3.708-2.409-8.66-1.351-11.065 2.354l-44 67.789c-2.406 3.706-1.352 8.66 2.354 11.065z"/><circle cx="203.423" cy="204.67" r="12"/><circle cx="145.123" cy="155.12" r="12"/></g></svg>