<svg id="Layer_1" enable-background="new 0 0 480.158 480.158" height="512" viewBox="0 0 480.158 480.158" width="512" xmlns="http://www.w3.org/2000/svg"><path d="m468.234 310.639-26.02-30.23c-4.56-5.29-11.19-8.325-18.17-8.325h-367.9c-6.98 0-13.62 3.035-18.18 8.325l-26.04 30.23c-8.93 10.37-1.56 26.44 12.12 26.44h11.1v119c0 8.84 7.16 16 16 16h377.9c8.83 0 15.99-7.16 15.99-16v-119h11.09c13.68 0 21.04-16.07 12.11-26.44z" fill="#c79a83"/><path d="m82.854 472.079h-31.71c-8.837 0-16-7.163-16-16v-119h47.696c8.452 0 15.303 6.852 15.303 15.303 0 0 .001 103.873.002 103.961.138 8.622-6.669 15.736-15.291 15.736z" fill="#e0b7a3"/><path d="m445.034 337.079v119c0 8.84-7.16 16-15.99 16h-150.9c8.84 0 16-7.16 16-16v-183.96l44.35 53.41c6.08 7.32 15.09 11.55 24.6 11.55z" fill="#a07765"/><path d="m313.034 274.369-50.98 61.38c-9.15 11.01-22.61 17.33-36.93 17.33h-181.98c-4.418 0-8-3.582-8-8v-8h189.98c9.519 0 18.545-4.236 24.627-11.559 45.54-54.827 44.292-53.501 44.393-53.401 0-.1-.863-.04 17.77-.04z" fill="#a07765"/><path d="m294.114 272.084c.092.1.613-.711-44.37 53.445-6.08 7.32-15.1 11.55-24.62 11.55h-201.08c-13.68 0-21.05-16.07-12.12-26.44l26.04-30.23c4.56-5.29 11.2-8.325 18.18-8.325z" fill="#e0b7a3"/><path d="m242.835 292.079h-156.691c-6.98 0-13.621 3.039-18.18 8.33-36.001 41.779-23.245 26.968-26.199 30.416-3.4 3.968-8.365 6.254-13.591 6.254h-4.129c-13.68 0-21.05-16.07-12.12-26.44l26.04-30.23c4.56-5.29 11.2-8.325 18.18-8.325h186.692c13.447.001 12.795 19.995-.002 19.995z" fill="#ebcbb7"/><path d="m468.234 310.639c8.93 10.37 1.57 26.44-12.11 26.44h-93.03c-9.51 0-18.52-4.23-24.6-11.55l-44.35-53.41c0-.1-5.307-.035 129.9-.035 6.98 0 13.61 3.035 18.17 8.325z" fill="#c79a83"/><path d="m373.17 327.488c3.167 3.814.454 9.591-4.503 9.591h-5.573c-9.51 0-18.521-4.23-24.6-11.55-46.076-55.481-44.35-53.344-44.35-53.445h129.9c6.98 0 13.612 3.033 18.17 8.325 3.266 3.793.569 9.68-4.437 9.68h-47.063c-19.32.008-29.885 22.535-17.544 37.399z" fill="#e0b7a3"/><path d="m306.144 8.079h-212c-13.25 0-24 10.75-24 24v140c0 13.25 10.75 24 24 24h110.13c11.23 23.15 32.18 37.89 56.62 42.83 10.78 2.17 18.55-10.15 11.96-18.95-5.39-7.189-9.46-15.26-12.05-23.88h45.34c13.25 0 24-10.75 24-24v-140c0-13.25-10.75-24-24-24z" fill="#cbe3fa"/><path d="m306.243 28.079h-172.099c-13.255 0-24 10.745-24 24v128c0 8.837-7.163 16-16 16-13.255 0-24-10.745-24-24v-140c0-13.255 10.745-24 24-24h212c15.684 0 14.614 20 .099 20z" fill="#eef7ff"/><path d="m260.064 134.329c3.34-7.48 3.25-11.93-.76-19.14 4.35-7.851 3.92-13.55-3.07-19.92 7.08-21.18-14.52-23.45-35.94-17.1.54-11.2-1.559-22.054-5.23-32.18-5.346-14.743-27.43-8.76-24 6.96 3.23 14.77-2.77 29.56-15.21 38.14-3.598-4.796-9.001-7.39-14.67-7.39-10.09 0-18.26 8.18-18.26 18.26v42.45c0 10.08 8.17 18.26 18.26 18.26 6.05 0 11.41-2.94 14.73-7.47 43.27 5.45 101.28 15.21 84.15-20.87z" fill="#fff3e4"/><path d="m179.444 101.959v42.45c0 10.04-8.133 18.26-18.26 18.26-10.09 0-18.26-8.18-18.26-18.26v-42.45c0-10.08 8.17-18.26 18.26-18.26 10.038 0 18.26 8.132 18.26 18.26z" fill="#ff6d7a"/><g><path d="m94.144 204.079h105.289c12.333 21.984 33.889 37.418 59.879 42.669 17.955 3.63 30.93-16.912 19.943-31.583-4.838-6.46-8.467-13.654-10.784-21.384-1.269-4.232-5.728-6.635-9.96-5.365-4.232 1.269-6.634 5.729-5.366 9.961 2.859 9.535 7.335 18.41 13.304 26.38 2.209 2.949-.417 7.025-3.969 6.308-23.13-4.673-41.244-18.337-51.005-38.475-1.337-2.759-4.133-4.511-7.199-4.511h-110.132c-8.822 0-16-7.178-16-16v-140c0-8.822 7.178-16 16-16h212c8.822 0 16 7.178 16 16v140c0 7.854-5.842 14.655-13.589 15.82-4.369.657-7.378 4.732-6.721 9.102s4.733 7.378 9.102 6.721c15.511-2.334 27.208-15.938 27.208-31.643v-140c0-17.645-14.355-32-32-32h-212c-17.645 0-32 14.355-32 32v140c0 17.645 14.355 32 32 32z"/><path d="m189.144 389.079c4.418 0 8-3.582 8-8s-3.582-8-8-8h-76c-4.418 0-8 3.582-8 8s3.582 8 8 8z"/><path d="m474.299 305.416-26.022-30.222c-6.083-7.064-14.916-11.115-24.235-11.115h-367.897c-9.322 0-18.158 4.051-24.244 11.113l-26.036 30.222c-13.41 15.568-2.336 39.665 18.183 39.665h201.079c11.93 0 23.145-5.263 30.768-14.439l10.49-12.627c2.824-3.398 2.357-8.442-1.041-11.266-3.399-2.823-8.443-2.358-11.266 1.041l-10.491 12.627c-4.574 5.506-11.302 8.664-18.46 8.664h-201.079c-6.844 0-10.529-8.036-6.061-13.222l26.037-30.222c3.043-3.531 7.461-5.557 12.122-5.557h229.999v176c0 4.411-3.589 8-8 8h-227c-4.411 0-8-3.589-8-8v-75c0-4.418-3.582-8-8-8s-8 3.582-8 8v75c0 13.233 10.766 24 24 24h227c13.234 0 24-10.767 24-24v-176h121.898c4.656 0 9.07 2.024 12.11 5.555l26.022 30.222c4.467 5.188.782 13.224-6.052 13.224h-93.026c-7.151 0-13.875-3.157-18.445-8.662l-8.352-10.059c-2.822-3.399-7.866-3.868-11.265-1.045s-3.867 7.866-1.044 11.266l8.352 10.059c7.62 9.178 18.83 14.441 30.755 14.441h73.936v111c0 4.411-3.585 8-7.991 8h-92.413c-4.418 0-8 3.582-8 8s3.582 8 8 8h92.413c13.229 0 23.991-10.767 23.991-24v-111h3.09c20.532 0 31.564-24.114 18.175-39.663z"/><path d="m216.544 151.898c-4.404-.339-8.265 2.919-8.625 7.322s2.918 8.265 7.322 8.625c16.828 1.375 43.075 2.759 52.514-10.902 4.18-6.051 4.504-13.684.976-22.728 2.437-6.873 2.286-12.569-.534-19.088 3.327-8.178 2.306-15.477-3.099-22.125 1.803-9.433-1.421-15.348-4.737-18.78-7.946-8.226-21.725-7.921-32.194-6.108-.611-8.495-2.619-16.771-5.581-24.868-4.32-11.809-15.55-15.526-24.771-12.969-9.321 2.583-17.317 11.785-14.565 24.376 2.381 10.899-1.3 22.273-12.048 29.931-2.677 1.916-3.962 5.348-3.052 8.634.863 3.123 3.296 4.053 3.296 8.744v42.444c0 5.657-4.603 10.26-10.26 10.26s-10.261-4.603-10.261-10.26v-42.444c0-4.418-3.582-8-8-8s-8 3.582-8 8v42.444c0 14.479 11.78 26.26 26.261 26.26 14.48 0 26.26-11.78 26.26-26.26v-42.444c0-3.036-.526-5.988-1.516-8.78 11.291-10.706 16.328-26.487 12.951-41.944-.834-3.817 1.651-5.11 3.207-5.542 1.517-.419 4.233-.607 5.4 2.848.038.112.079.224.122.335 3.578 9.222 5.16 18.904 4.704 28.779-.375 5.751 5.295 10.047 10.761 8.032 13.265-3.837 23.16-3.063 25.779-.352 1.523 1.576.366 5.698-.202 7.397-1.004 3.003-.142 6.315 2.198 8.448 3.952 3.603 4.184 5.21 1.459 10.115-1.342 2.417-1.342 5.356.002 7.772 2.74 4.927 2.808 6.721.453 11.997-.953 2.135-.924 4.579.078 6.691 2.257 4.754 2.895 8.431 1.75 10.088-1.41 2.041-7.937 6.518-38.048 4.052z"/></g></svg>