<svg id="Layer_1" enable-background="new 0 0 480 480" height="512" viewBox="0 0 480 480" width="512" xmlns="http://www.w3.org/2000/svg"><path d="m358.192 325c14.28 0 25.41-12.4 23.86-26.6l-19.54-179.45c-1.33-12.18-11.61-21.4-23.86-21.4h-161.13c-12.25 0-22.53 9.22-23.85 21.4l-19.55 179.45c-1.54 14.199 9.58 26.6 23.86 26.6z" fill="#c79a83"/><path d="m339.355 97.56c13.947.404 14.846 21.885.9 22.323-126.105 3.956-175.65 89.117-167.559 189.843.669 8.322-6.366 15.274-14.714 15.274-14.28 0-25.4-12.4-23.86-26.6l19.55-179.45c1.32-12.18 11.6-21.4 23.85-21.4 0 0 161.6.003 161.833.01z" fill="#e0b7a3"/><circle cx="257.982" cy="203.33" fill="#eef7ff" r="37.5"/><path d="m409.112 294.14c-41.37 95.051-123.5 48.07-149.88 82.67-4.97 6.53-6.22 13.91-6.11 20.19h11.87c8.84 0 16 7.16 16 16v43c0 8.84-7.16 16-16 16h-180c-8.84 0-16-7.16-16-16v-43c0-8.84 7.161-16 16.001-16h7.339c-5.22-17.14-11.74-50.24 5.7-83.95 30.213-58.39 120.322-95.25 143.9-63.08.02.021.03.04.04.05 1.93 2.66 3.42 5.801 4.37 9.431 3.49 13.3-5.77 29.12-24.71 43.56.14 0 .28-.007.42-.01 39.06-.676 51.668 2.577 73.47 2.74 0 0 .01-.01.01-.021 25.03.19 43.99-5.25 65.89-32.76 17.971-22.571 58.777-4.313 47.69 21.18z" fill="#ffebd2"/><path d="m395.602 283.68c-5.48 1.45-10.41 4.551-14.18 9.28-32.82 41.24-56.98 32.75-116.96 30.5-7.395-.282-12.16-8.68-6.82-15.72 1.901-2.506 4.99-3.84 8.13-3.62 42.698 2.826 66.161 5.883 95.65-31.16 7.894-9.915 22.229-13.572 36.11-6.79 7.58 3.93 6.37 15.32-1.93 17.51z" fill="#fff3e4"/><path d="m234.522 243.368c6.687 4.148 3.781 14.442-4.082 14.731-36.695 1.349-90.335 32.292-112.408 74.951-10.18 19.684-12.195 39.153-11.068 55.364.323 4.64-3.323 8.586-7.974 8.586h-6.658c-5.22-17.14-11.74-50.24 5.7-83.95 27.421-52.995 105.19-89.096 136.49-69.682z" fill="#fff3e4"/><path d="m280.992 413v43c0 8.84-7.16 16-16 16h-180c-8.84 0-16-7.16-16-16v-43c0-8.84 7.161-16 16.001-16h179.999c8.84 0 16 7.16 16 16z" fill="#80aaff"/><path d="m266.069 397.036c12.667.842 11.701 19.964-.994 19.964h-150.083c-8.837 0-16 7.163-16 16v25c0 7.732-6.268 14-14 14-8.837 0-16-7.163-16-16v-43c0-8.837 7.165-16 16.001-16 128.88 0 180.241-.02 181.076.036z" fill="#9cbcff"/><g><path d="m385.358 254.859-14.894-136.775c-1.772-16.268-15.448-28.535-31.812-28.535h-15.584v-24.713c0-35.751-29.086-64.836-64.837-64.836-37.188 0-65.338 29.83-65.338 64.836v24.713h-15.367c-16.364 0-30.041 12.268-31.812 28.535l-10.734 98.566c-.478 4.393 2.695 8.341 7.087 8.819 4.389.476 8.341-2.695 8.819-7.087l10.734-98.566c.886-8.134 7.724-14.268 15.906-14.268h15.367v33.416c0 4.418 3.582 8 8 8s8-3.582 8-8v-33.416h98.174v33.416c0 4.418 3.582 8 8 8s8-3.582 8-8v-33.416h15.584c8.182 0 15.02 6.134 15.906 14.268l14.971 137.48c-5.326 2.092-10.293 5.562-14.365 10.679-26.058 32.74-46.102 31.101-83.53 28.529-4.419-.304-8.234 3.006-8.547 7.412-.313 4.407 3.006 8.232 7.413 8.547 40.703 2.911 66.806 3.643 97.184-34.525 7.159-8.995 19.608-8.686 27.686-3.829 3.273 1.969 10.45 7.549 6.407 16.837-39.83 91.514-118.404 41.01-148.902 81.018-5.284 6.931-7.89 15.348-7.75 25.016-.003.058.019.619.05.903.392 3.545 3.145 6.623 7.134 7.076.624.064-.075.041 12.686.041 4.411 0 8 3.589 8 8v43c0 4.411-3.589 8-8 8h-180c-4.411 0-8-3.589-8-8v-43c0-4.411 3.589-8 8-8h123.355c4.418 0 8-3.582 8-8s-3.582-8-8-8h-109.952c-4.928-19.28-6.904-45.896 6.745-72.274 30.349-58.659 123.753-92.234 133.458-55.246 3.459 13.184-13.825 35.796-53.55 53.504-4.035 1.799-5.849 6.528-4.05 10.563 1.799 4.037 6.527 5.849 10.564 4.05 44.297-19.745 68.834-48.077 62.512-72.178-4.047-15.423-16.1-25.005-33.938-26.983-38.981-4.317-103.47 29.194-129.208 78.938-15.04 29.068-13.882 58.055-8.941 79.821-11.82 1.482-20.997 11.588-20.997 23.805v43c0 13.233 10.767 24 24 24h180c13.233 0 24-10.767 24-24v-43c0-13.233-10.767-24-24-24h-2.95c11.72-43.182 108.511 13.774 154.404-91.669 9.344-21.47-8.198-41.154-31.088-42.472zm-176.465-165.31v-24.713c0-26.929 21.908-48.836 48.836-48.836 28.385 0 49.338 22.672 49.338 48.836v24.713z"/><path d="m274.467 227.793c-6.523 4.407-3.385 14.63 4.486 14.63 1.541 0 3.099-.444 4.471-1.372 12.557-8.484 20.054-22.587 20.054-37.724 0-25.088-20.411-45.498-45.499-45.498s-45.498 20.41-45.498 45.498c0 4.418 3.582 8 8 8s8-3.582 8-8c0-16.266 13.233-29.498 29.498-29.498 16.266 0 29.499 13.232 29.499 29.498.001 9.816-4.864 18.961-13.011 24.466z"/></g></svg>