<svg id="Layer_1" enable-background="new 0 0 480 480" height="512" viewBox="0 0 480 480" width="512" xmlns="http://www.w3.org/2000/svg"><path d="m448 262.5h-66.339c.497-2.961.339 10.315.339-200 0-13.25-10.75-24-24-24h-196c-13.25 0-24 10.75-24 24v94h-106c-13.25 0-24 10.75-24 24v237c0 13.25 10.75 24 24 24h237c13.25 0 24-10.75 24-24 0 13.25 10.75 24 24 24h131c13.25 0 24-10.75 24-24v-131c0-13.25-10.75-24-24-24z" fill="#c79a83"/><g fill="#e0b7a3"><path d="m228 38.5v22c0 4.42-3.58 8-8 8h-18c-13.25 0-24 10.75-24 24v64h-40v-94c0-13.25 10.75-24 24-24z"/><path d="m269.524 182.5h-62.524c-4.418 0-8-3.582-8-8v-18h70c18.574 0 17.381 26 .524 26z"/><path d="m102.48 156.5v18c0 4.418-3.582 8-8 8h-26.48c-13.255 0-24 10.745-24 24v227c0 4.418-3.582 8-8 8h-4c-13.255 0-24-10.745-24-24v-237c0-13.255 10.745-24 24-24z"/><path d="m458.566 282.5h-36.566c-4.418 0-8-3.582-8-8v-12h34c6.103 0 11.677 2.283 15.914 6.041 5.489 4.869 1.989 13.959-5.348 13.959z"/><path d="m350 262.5v12.395c0 3.806-3.091 7.306-6.848 7.913-11.4 1.841-20.162 11.725-20.162 23.7v111.097c.006 19.479-29.99 20.61-29.99-.105v-131c0-13.255 10.745-24 24-24z"/><path d="m358.099 68.5h-58.099c-4.418 0-8-3.582-8-8v-22h66c20.685 0 19.614 30 .099 30z"/></g><path d="m382 254.5c0 4.091.08 5.632-.339 8h-64.661c-11.756 0-21.743 8.539-23.66 20-.529 0-.34 7.908-.34-102 0-13.25-10.75-24-24-24h-131v-8c0-4.42 3.58-8 8-8h123c22.09 0 40 17.91 40 40v66.8c5.422-1.092 3.504-.8 65-.8 4.42 0 8 3.58 8 8z" fill="#a07765"/><path d="m292 38.5v56.11c0 11.9-12.52 19.63-23.16 14.31l-8.84-4.42-8.84 4.42c-10.64 5.32-23.16-2.41-23.16-14.31v-56.11z" fill="#cbe3fa"/><path d="m292 38.5v22c0 4.418-3.582 8-8 8h-48c-4.418 0-8-3.582-8-8v-22z" fill="#eef7ff"/><path d="m414 262.5v46.11c0 11.9-12.52 19.63-23.16 14.31l-8.84-4.42-8.84 4.42c-10.64 5.32-23.16-2.41-23.16-14.31v-46.11z" fill="#cbe3fa"/><path d="m414 262.5v12c0 4.418-3.582 8-8 8h-48c-4.418 0-8-3.582-8-8v-12z" fill="#eef7ff"/><path d="m199 156.5v75.08c0 9.73-10.96 15.41-18.91 9.81l-4.96-3.49-15.3 10.55c-5.47 3.77-12.71 3.77-18.18 0l-15.3-10.55-4.96 3.49c-7.95 5.6-18.91-.08-18.91-9.81v-75.08z" fill="#cbe3fa"/><path d="m199 156.5v18c0 4.418-3.582 8-8 8h-80.52c-4.418 0-8-3.582-8-8v-18z" fill="#eef7ff"/><g><path d="m448 254.5h-58v-192c0-17.645-14.355-32-32-32h-196c-17.645 0-32 14.355-32 32v56.322c0 4.418 3.582 8 8 8s8-3.582 8-8v-56.322c0-8.822 7.178-16 16-16h58v48.111c0 13.708 11.214 24.021 23.985 24.021 6.562 0 10.325-2.345 16.015-5.188l5.267 2.633c15.976 7.989 34.733-3.644 34.733-21.466v-15.143c0-4.418-3.582-8-8-8s-8 3.582-8 8v15.144c0 5.927-6.235 9.822-11.578 7.155l-8.845-4.422c-2.252-1.127-4.902-1.127-7.154 0l-8.846 4.422c-5.309 2.655-11.577-1.198-11.577-7.155v-48.112h122c8.822 0 16 7.178 16 16v192h-57c-17.645 0-32 14.355-32 32v131c0 8.822-7.178 16-16 16h-237c-8.822 0-16-7.178-16-16v-237c0-8.822 7.178-16 16-16h159v67.083c0 3.246-3.649 5.14-6.304 3.27l-4.96-3.496c-2.739-1.931-6.392-1.947-9.152-.046l-15.301 10.556c-2.718 1.876-6.369 1.875-9.085 0l-15.301-10.556c-2.759-1.904-6.413-1.886-9.152.046l-4.959 3.496c-2.654 1.869-6.304-.022-6.304-3.27v-35.857c0-4.418-3.582-8-8-8s-8 3.582-8 8v35.857c0 15.689 17.707 26.085 31.922 16.065l10.708 7.388c8.149 5.623 19.104 5.625 27.257 0l10.708-7.388c14.136 9.952 31.923-.27 31.923-16.065v-67.083h62c8.822 0 16 7.178 16 16v45.322c0 4.418 3.582 8 8 8s8-3.582 8-8v-45.322c0-17.645-14.355-32-32-32h-237c-17.645 0-32 14.355-32 32v237c0 17.645 14.355 32 32 32h237c17.645 0 32-14.355 32-32v-131c0-8.822 7.178-16 16-16h89v38.111c0 5.939-6.244 9.817-11.578 7.155l-8.845-4.422c-2.252-1.127-4.902-1.127-7.154 0l-8.846 4.422c-5.319 2.661-11.577-1.208-11.577-7.155v-15.045c0-4.418-3.582-8-8-8s-8 3.582-8 8v15.045c0 13.708 11.216 24.021 23.984 24.021 6.57 0 10.34-2.352 16.016-5.188l5.267 2.633c15.976 7.989 34.733-3.644 34.733-21.466v-38.111h26c8.822 0 16 7.178 16 16v131c0 8.822-7.178 16-16 16h-105.322c-4.418 0-8 3.582-8 8s3.582 8 8 8h105.322c17.645 0 32-14.355 32-32v-131c0-17.645-14.355-32-32-32z"/><path d="m53 352.5v50c0 4.418 3.582 8 8 8s8-3.582 8-8v-50c0-4.418-3.582-8-8-8s-8 3.582-8 8z"/><path d="m97 371.5v31c0 4.418 3.582 8 8 8s8-3.582 8-8v-31c0-4.418-3.582-8-8-8s-8 3.582-8 8z"/><path d="m356 404.5v-16c0-4.418-3.582-8-8-8h-16c-4.418 0-8 3.582-8 8v16c0 4.418 3.582 8 8 8h16c4.418 0 8-3.582 8-8z"/></g></svg>