<svg id="Layer_1" enable-background="new 0 0 480.045 480.045" height="512" viewBox="0 0 480.045 480.045" width="512" xmlns="http://www.w3.org/2000/svg"><path d="m471.774 436.995-37.86-295.98c-1.02-7.99-7.82-13.97-15.87-13.97h-325.38c-8.24 0-15.14 6.27-15.92 14.48l-28.27 295.47c-1.8 18.79 12.98 35.05 31.86 35.05h359.58c18.88 0 33.66-16.26 31.86-35.05z" fill="#e0b7a3"/><path d="m349.914 472.045h-269.58c-18.88 0-33.66-16.26-31.86-35.05l4.559-47.624c.79-8.249 7.744-14.586 16.03-14.485 108.265 1.323 205.526-44.523 265.981-130.166 8.592-12.171 27.643-7.22 29.062 7.611l17.668 184.663c1.8 18.791-12.98 35.051-31.86 35.051z" fill="#c79a83"/><path d="m471.774 436.995c1.8 18.79-12.98 35.05-31.86 35.05h-90c18.88 0 33.66-16.26 31.86-35.05l-28.27-295.47c-.78-8.21-7.68-14.48-15.92-14.48h80.46c8.05 0 14.85 5.98 15.87 13.97z" fill="#a07765"/><path d="m302.124 237.045h-270c-13.25 0-24 10.75-24 24v187c0 13.25 10.75 24 24 24h270c13.25 0 24-10.75 24-24v-187c0-13.25-10.75-24-24-24z" fill="#eef7ff"/><path d="m326.124 261.045v187c0 13.255-10.745 24-24 24h-141.86c-14.314 0-21.48-17.415-11.221-27.398 51.316-49.935 64.963-126.704 35.817-196.539-2.196-5.263 1.68-11.063 7.382-11.063h109.881c13.256 0 24.001 10.745 24.001 24z" fill="#cbe3fa"/><path d="m130.774 316.045h-65.3c-10.68 0-19.35 8.67-19.35 19.35v82.301c0 10.68 8.67 19.35 19.35 19.35h65.3c10.68 0 19.35-8.67 19.35-19.35v-82.301c0-10.68-8.67-19.35-19.35-19.35z" fill="#cbe3fa"/><path d="m150.124 409.855v7.84c0 10.68-8.67 19.35-19.35 19.35h-65.3c-10.68 0-19.35-8.67-19.35-19.35v-7.84c10.4-9.72 23.52-16.56 38.1-19.24.193-.193 5.078 4.43 13.9 4.43 5.17 0 9.97-1.64 13.89-4.44.505.504 19.903 2.233 38.11 19.25z" fill="#ff8c95"/><path d="m98.124 347.045c13.25 0 24 10.75 24 24 0 8.07-3.99 15.22-10.11 19.56-15.819 11.299-37.89-.114-37.89-19.56 0-13.25 10.75-24 24-24z" fill="#fff3e4"/><path d="m288.124 408.065v15.96c0 7.19-5.83 13.02-13.02 13.02h-64.96c-7.19 0-13.02-5.83-13.02-13.02v-15.96c0-7.19 5.83-13.02 13.02-13.02h64.96c7.19 0 13.02 5.83 13.02 13.02z" fill="#ff6d7a"/><g><path d="m479.736 436.236c-.016-.178 1.175 9.133-37.889-296.236-1.528-11.946-11.763-20.955-23.807-20.955h-16.916v-35c0-54.095-50.854-94.606-104.027-81.596-4.291 1.05-6.919 5.38-5.869 9.672 1.05 4.293 5.382 6.92 9.672 5.869 43.055-10.533 84.225 22.258 84.225 66.055v35h-55c-4.418 0-8 3.582-8 8s3.582 8 8 8h7.457c4.146 0 7.569 3.111 7.964 7.238l28.263 295.477c.781 8.167-2.609 16.079-9.07 21.167-3.471 2.732-4.069 7.763-1.336 11.234 2.718 3.453 7.748 4.082 11.234 1.336 10.757-8.47 16.401-21.651 15.1-35.261-30.267-316.435-28.058-296.964-29.539-301.191h57.844c4.015 0 7.427 3.003 7.936 6.984l37.844 295.85c1.277 14.062-9.761 26.166-23.902 26.166h-24.86c-4.418 0-8 3.582-8 8s3.582 8 8 8h24.857c23.58 0 42.064-20.344 39.819-43.809z"/><path d="m423.115 399.046c4.796 0 8.496-4.168 7.959-8.904l-23.438-206.257c-.5-4.39-4.468-7.532-8.853-7.046-4.39.499-7.544 4.463-7.046 8.853l23.438 206.257c.465 4.082 3.925 7.097 7.94 7.097z"/><path d="m302.124 229.045h-186.645c-4.418 0-8 3.582-8 8s3.582 8 8 8h186.646c8.822 0 16 7.178 16 16v187c0 8.822-7.178 16-16 16h-270c-8.822 0-16-7.178-16-16v-187c0-8.822 7.178-15.999 16-15.999h35.488c3.205 0 6.146-1.956 7.388-4.959.677-1.644-.05 4.179 9.703-97.803.395-4.127 3.818-7.238 7.964-7.238h38.457v47c0 4.418 3.582 8 8 8s8-3.582 8-8v-47h136v47c0 4.418 3.582 8 8 8s8-3.582 8-8v-98c0-46.317-37.683-84-84-84s-84 37.683-84 84v35h-38.458c-12.437 0-22.707 9.335-23.892 21.715l-8.444 88.285h-28.207c-17.645 0-32 14.355-32 32v187c0 17.645 14.355 32 32 32h270c17.645 0 32-14.355 32-32v-187c0-17.646-14.355-32.001-32-32.001zm-155-145c0-37.495 30.505-68 68-68s68 30.505 68 68v35h-34v-35c0-9.444 1.896-18.582 5.638-27.158 1.767-4.05-.085-8.765-4.135-10.531-4.047-1.767-8.765.083-10.531 4.135-4.626 10.605-6.972 21.896-6.972 33.555v35h-86z"/><path d="m82.754 399.093c9.425 5.182 21.03 5.355 30.752.003 11.632 2.681 22.353 8.379 31.156 16.603 4.634 4.327 12.201 1.757 13.325-4.404.202-1.106.136 3.375.136-75.895 0-15.083-12.271-27.354-27.354-27.354h-65.29c-15.083 0-27.354 12.271-27.354 27.354v82.291c0 15.083 12.271 27.354 27.354 27.354h59.774c4.418 0 8-3.582 8-8s-3.582-8-8-8h-59.774c-6.261 0-11.354-5.094-11.354-11.354v-4.235c8.296-7.022 18.086-11.936 28.629-14.363zm-17.275-75.048h65.291c6.261 0 11.354 5.094 11.354 11.354v58.358c-4.997-3.07-10.296-5.604-15.821-7.564 11.419-21.152-3.95-47.148-28.179-47.148-10.656 0-20.579 5.28-26.545 14.124-2.47 3.663-1.504 8.636 2.159 11.106 3.663 2.469 8.635 1.505 11.106-2.159 2.986-4.428 7.95-7.071 13.279-7.071 8.822 0 16 7.178 16 16 0 13.107-14.896 20.494-25.292 13.03-1.777-1.256-3.936-1.705-6.016-1.336-10.392 2.15-19.029 5.082-28.692 11.019v-58.358c.001-6.261 5.095-11.355 11.356-11.355z"/><path d="m261.124 269.045h-188c-4.418 0-8 3.582-8 8s3.582 8 8 8h188c4.418 0 8-3.582 8-8s-3.582-8-8-8z"/><path d="m189.124 424.028c0 11.589 9.428 21.017 21.017 21.017h64.967c11.589 0 21.017-9.428 21.017-21.017v-15.967c0-11.589-9.428-21.017-21.017-21.017h-64.967c-11.589 0-21.017 9.428-21.017 21.017zm16-15.967c0-2.767 2.25-5.017 5.017-5.017h64.967c2.767 0 5.017 2.25 5.017 5.017v15.967c0 2.767-2.25 5.017-5.017 5.017h-64.967c-2.767 0-5.017-2.25-5.017-5.017z"/><g><path d="m288.124 354.045h-91c-4.418 0-8-3.582-8-8s3.582-8 8-8h91c4.418 0 8 3.582 8 8s-3.582 8-8 8z"/></g></g></svg>